<?xml version="1.0" encoding="UTF-8" standalone="no"?>
<!-- Created with Inkscape (http://www.inkscape.org/) -->

<svg
   width="76.817322mm"
   height="49.955227mm"
   viewBox="0 0 76.817322 49.955227"
   version="1.1"
   id="svg297"
   xml:space="preserve"
   xmlns:xlink="http://www.w3.org/1999/xlink"
   xmlns="http://www.w3.org/2000/svg"
   xmlns:svg="http://www.w3.org/2000/svg"><defs
     id="defs294"><path
       d="m 1097.1204,189.71373 -74.1605,-59.14005 -69.02243,59.14005 -12.35418,-80.35687 -104.283,80.35687 L 779.07969,29 710.48313,144.85736 667.6892,99.487294 620.72293,189.71373 577.28768,130.57368 518.85746,189.71373 463.57396,54.394047 385.12042,189.71373 c 0,85.76264 39.84909,163.82359 104.27218,220.02643 C 553.8157,465.943 642.81538,487 741.12171,487 c 98.30633,0 187.30601,-21.057 251.7291,-77.25984 64.42309,-56.20284 104.26959,-123.85439 104.26959,-209.61704 z"
       id="path-1" /></defs><g
     id="layer1"
     transform="translate(-608.02431,-37.772044)"><g
       id="Group-6-Copy-9"
       transform="matrix(0.10788956,0,0,0.10788956,628.36678,13.039871)"
       style="fill:none;fill-rule:evenodd;stroke:none;stroke-width:1"><path
         d="m 177.0316,671.23601 c 144.6986,0 252.41933,-46.44529 252.41933,-217.19599 0,-170.7507 -122.99015,-224.80401 -267.68876,-224.80401 -144.698599,0 -256.311219,54.05331 -256.311219,224.80401 0,170.7507 126.88204,217.19599 271.580649,217.19599 z"
         id="Shekam-4"
         fill="#f9f381" /><mask
         id="mask-2-5"
         fill="#ffffff"><use
           xlink:href="#path-1"
           id="use5957-0" /></mask><use
         id="Path-99-69"
         stroke="#48a043"
         fill="#48a043"
         xlink:href="#path-1"
         transform="translate(-573.66947,205.25788)"
         style="fill:#48a043;fill-opacity:1;stroke:none;stroke-opacity:1" /></g></g></svg>
