<svg xmlns="http://www.w3.org/2000/svg" version="1.1" width="3300" height="2000"><g id="Notes"><style>
    text {
      font-family: monospace;
      text-anchor: middle;
    }
    text.emphasis {
      font-weight:bold;
    }
    text.lanchor {
      text-anchor: start;
    }
  </style><rect height="2200" id="artboard" fill="white" width="3300" x="0" y="0"/><line id="" style="fill:none;stroke:black;stroke-width:0.5;" x1="263" x2="3036" y1="292" y2="292"/><text class="lanchor emphasis" transform="matrix(1 0 0 1 263 322)">Weight/Scale Variations</text><text transform="matrix(1 0 0 1 559.711 322)">Ultralight</text><text transform="matrix(1 0 0 1 856.422 322)">Thin</text><text transform="matrix(1 0 0 1 1153.13 322)">Light</text><text transform="matrix(1 0 0 1 1449.84 322)">Regular</text><text transform="matrix(1 0 0 1 1746.56 322)">Medium</text><text transform="matrix(1 0 0 1 2043.27 322)">Semibold</text><text transform="matrix(1 0 0 1 2339.98 322)">Bold</text><text transform="matrix(1 0 0 1 2636.69 322)">Heavy</text><text transform="matrix(1 0 0 1 2933.4 322)">Black</text><text id="template-version" style="text-anchor: end;" transform="matrix(1 0 0 1 3036 1933)">Template v.1.0</text><text class="lanchor" transform="matrix(1 0 0 1 263 726)">Small</text><text class="lanchor" transform="matrix(1 0 0 1 263 1156)">Medium</text><text class="lanchor" transform="matrix(1 0 0 1 263 1586)">Large</text></g><g id="Guides"><g id="H-reference" style="fill:#27AAE1;stroke:none;" transform="matrix(1 0 0 1 339 696)"><path d="M 54.9316 0 L 57.666 0 L 30.5664 -70.459 L 28.0762 -70.459 L 0.976562 0 L 3.66211 0 L 12.9395 -24.4629 L 45.7031 -24.4629 Z M 29.1992 -67.0898 L 29.4434 -67.0898 L 44.8242 -26.709 L 13.8184 -26.709 Z"/></g><line id="Baseline-S" style="fill:none;stroke:#27AAE1;opacity:1;stroke-width:0.577;" x1="263" x2="3036" y1="696" y2="696"/><line id="Capline-S" style="fill:none;stroke:#27AAE1;opacity:1;stroke-width:0.577;" x1="263" x2="3036" y1="625.541" y2="625.541"/><g id="H-reference" style="fill:#27AAE1;stroke:none;" transform="matrix(1 0 0 1 339 1126)"><path d="M 54.9316 0 L 57.666 0 L 30.5664 -70.459 L 28.0762 -70.459 L 0.976562 0 L 3.66211 0 L 12.9395 -24.4629 L 45.7031 -24.4629 Z M 29.1992 -67.0898 L 29.4434 -67.0898 L 44.8242 -26.709 L 13.8184 -26.709 Z"/></g><line id="Baseline-M" style="fill:none;stroke:#27AAE1;opacity:1;stroke-width:0.577;" x1="263" x2="3036" y1="1126" y2="1126"/><line id="Capline-M" style="fill:none;stroke:#27AAE1;opacity:1;stroke-width:0.577;" x1="263" x2="3036" y1="1055.54" y2="1055.54"/><g id="H-reference" style="fill:#27AAE1;stroke:none;" transform="matrix(1 0 0 1 339 1556)"><path d="M 54.9316 0 L 57.666 0 L 30.5664 -70.459 L 28.0762 -70.459 L 0.976562 0 L 3.66211 0 L 12.9395 -24.4629 L 45.7031 -24.4629 Z M 29.1992 -67.0898 L 29.4434 -67.0898 L 44.8242 -26.709 L 13.8184 -26.709 Z"/></g><line id="Baseline-L" style="fill:none;stroke:#27AAE1;opacity:1;stroke-width:0.577;" x1="263" x2="3036" y1="1556" y2="1556"/><line id="Capline-L" style="fill:none;stroke:#27AAE1;opacity:1;stroke-width:0.577;" x1="263" x2="3036" y1="1485.54" y2="1485.54"/><rect height="119.336" id="left-margin" style="fill:darkred;stroke:none;opacity:0.4;" width="12.4512" x="1394.06" y="1030.79"/><rect height="119.336" id="right-margin" style="fill:darkgreen;stroke:none;opacity:0.4;" width="12.4512" x="1502.5112" y="1030.79"/><rect x="1406.5112" y="1045" width="96" height="96" fill="none" stroke="blue" stroke-dasharray="5"/><rect x="1394.06" y="1030.79" width="120.9024" height="119.336" fill="none" stroke="blue"/></g><g id="Symbols"><g id="Bold-L" transform="matrix(1 0 0 1 2266 1556)"><path d="M59.0175 33.30125000000002  55.63125 11.693750000000016 Q53.535000000000004 11.048750000000016 50.874375 9.516875000000013 Q48.213750000000005 7.985000000000014 46.44 6.533750000000012 L26.28375 15.886250000000015 L7.57875 -17.169999999999987 L25.96125 -30.55374999999998 Q25.8 -31.52124999999998 25.719375 -32.891874999999985 Q25.63875 -34.26249999999999 25.63875 -35.22999999999999 Q25.63875 -36.19749999999999 25.719375 -37.56812499999998 Q25.8 -38.938749999999985 25.96125 -39.906249999999986 L7.57875 -53.45124999999999 L26.28375 -86.18499999999997 L46.7625 -76.99374999999999 Q48.375 -78.28374999999998 50.955 -79.73499999999999 Q53.535000000000004 -81.18624999999999 55.63125 -81.83124999999998 L59.0175 -103.92249999999999 H95.7825 L99.16875 -81.99249999999999 Q101.265 -81.18624999999999 103.925625 -79.81562499999998 Q106.58625 -78.445 108.36 -76.99374999999999 L128.6775 -86.18499999999997 L147.22125 -53.45124999999999 L128.6775 -40.22874999999999 Q128.83875 -39.09999999999998 129.0 -37.72937499999999 Q129.16125 -36.358749999999986 129.16125 -35.22999999999999 Q129.16125 -34.10124999999999 129.0 -32.81124999999999 Q128.83875 -31.52124999999998 128.6775 -30.392499999999984 L147.22125 -17.169999999999987 L128.51625 15.886250000000015 L108.19875 6.533750000000012 Q106.425 7.985000000000014 103.925625 9.516875000000013 Q101.42625 11.048750000000016 99.16875 11.693750000000016 L95.7825 33.30125000000002 H59.0175 Z M77.0775 -14.267499999999984 Q85.785 -14.267499999999984 91.91250000000001 -20.39499999999999 Q98.04 -26.52249999999998 98.04 -35.22999999999999 Q98.04 -43.937499999999986 91.91250000000001 -50.06499999999998 Q85.785 -56.19249999999998 77.0775 -56.19249999999998 Q68.37 -56.19249999999998 62.2425 -50.06499999999998 Q56.115 -43.937499999999986 56.115 -35.22999999999999 Q56.115 -26.52249999999998 62.2425 -20.39499999999999 Q68.37 -14.267499999999984 77.0775 -14.267499999999984 Z M77.0775 -23.94249999999998 Q72.24000000000001 -23.94249999999998 69.015 -27.248124999999987 Q65.79 -30.55374999999998 65.79 -35.22999999999999 Q65.79 -39.906249999999986 69.015 -43.21187499999999 Q72.24000000000001 -46.517499999999984 77.0775 -46.517499999999984 Q81.75375 -46.517499999999984 85.059375 -43.21187499999999 Q88.36500000000001 -39.906249999999986 88.36500000000001 -35.22999999999999 Q88.36500000000001 -30.55374999999998 85.059375 -27.248124999999987 Q81.75375 -23.94249999999998 77.0775 -23.94249999999998 Z M71.595 18.143750000000015 H83.04375 L85.4625 0.24500000000001165 Q90.94500000000001 -1.0449999999999875 95.94375000000001 -3.7862499999999883 Q100.94250000000001 -6.527499999999982 104.8125 -10.881249999999987 L121.905 -3.4637499999999832 L126.90375 -12.977499999999985 L112.06875000000001 -23.781249999999986 Q112.71375 -26.68374999999999 113.1975 -29.50562499999998 Q113.68125 -32.327499999999986 113.68125 -35.22999999999999 Q113.68125 -38.13249999999999 113.278125 -40.954374999999985 Q112.875 -43.77624999999999 112.06875000000001 -46.67874999999998 L127.065 -57.48249999999999 L121.905 -66.99624999999999 L104.97375000000001 -59.578749999999985 Q101.265 -64.09374999999999 96.26625 -67.15749999999998 Q91.2675 -70.22124999999998 85.4625 -70.86625 L83.205 -88.60374999999999 H71.595 L69.49875 -70.86625 Q63.69375 -69.89874999999999 58.614375 -66.91562499999999 Q53.535000000000004 -63.93249999999999 49.665 -59.578749999999985 L32.895 -66.99624999999999 L27.735 -57.48249999999999 L42.40875 -46.83999999999999 Q41.76375 -43.937499999999986 41.28 -41.03499999999998 Q40.79625 -38.13249999999999 40.79625 -35.22999999999999 Q40.79625 -32.327499999999986 41.28 -29.344374999999985 Q41.76375 -26.361249999999984 42.40875 -23.61999999999999 L27.735 -12.977499999999985 L32.895 -3.4637499999999832 L49.665 -10.881249999999987 Q53.69625 -6.688749999999985 58.775625000000005 -3.7862499999999883 Q63.855000000000004 -0.8837499999999849 69.49875 0.4062500000000142 L71.595 18.143750000000015 Z"/></g><g id="Semibold-L" transform="matrix(1 0 0 1 1970.27 1556)"><path d="M60.55985625 31.548623750000015  57.24358875000001 10.501951250000015 Q54.72679875000001 9.646681250000015 51.75060750000001 7.939527500000011 Q48.7745775 6.232373750000015 46.65027 4.500710000000012 L26.984865000000003 13.572796250000014 L9.89220375 -16.609172499999985 L27.8540025 -29.712508749999984 Q27.622770000000003 -30.89027874999998 27.542145 -32.47117374999999 Q27.46152 -34.052229999999994 27.46152 -35.22999999999999 Q27.46152 -36.407769999999985 27.542145 -37.98882624999999 Q27.622770000000003 -39.569721249999986 27.8540025 -40.74749124999998 L9.89220375 -53.94193374999999 L26.984865000000003 -83.94168999999998 L46.83264375 -74.96070999999999 Q48.86568375 -76.60126749999999 51.79624125 -78.26278749999999 Q54.72679875000001 -79.92430749999998 57.24358875000001 -80.70959499999998 L60.55985625 -102.09973 H94.24014374999999 L97.55641125 -80.87084499999999 Q100.07320125000001 -79.92430749999998 103.08438375 -78.34341249999999 Q106.09556625 -76.76251749999999 108.14973 -74.96070999999999 L127.9064025 -83.94168999999998 L144.90779625000002 -53.94193374999999 L126.85473 -41.06999124999999 Q127.08612375 -39.73097124999998 127.2123825 -38.150076249999984 Q127.33848 -36.56901999999998 127.33848 -35.22999999999999 Q127.33848 -33.890979999999985 127.2123825 -32.390548749999994 Q127.08612375 -30.89027874999998 126.85473 -29.551258749999988 L144.90779625000002 -16.609172499999985 L127.81513500000001 13.572796250000014 L108.0584625 4.500710000000012 Q105.93431625 6.232373750000015 103.08438375 7.974518750000016 Q100.23445125 9.716825000000014 97.55641125 10.501951250000015 L94.24014374999999 31.548623750000015 H60.55985625 Z M77.2177875 -14.267499999999984 Q85.9252875 -14.267499999999984 92.05278750000001 -20.39499999999999 Q98.1802875 -26.52249999999998 98.1802875 -35.22999999999999 Q98.1802875 -43.937499999999986 92.05278750000001 -50.06499999999998 Q85.9252875 -56.19249999999998 77.2177875 -56.19249999999998 Q68.5102875 -56.19249999999998 62.3827875 -50.06499999999998 Q56.2552875 -43.937499999999986 56.2552875 -35.22999999999999 Q56.2552875 -26.52249999999998 62.3827875 -20.39499999999999 Q68.5102875 -14.267499999999984 77.2177875 -14.267499999999984 Z M77.2177875 -23.94249999999998 Q72.45027 -23.94249999999998 69.19027875 -27.248124999999987 Q65.9302875 -30.55374999999998 65.9302875 -35.22999999999999 Q65.9302875 -39.906249999999986 69.19027875 -43.21187499999999 Q72.45027 -46.517499999999984 77.2177875 -46.517499999999984 Q81.8940375 -46.517499999999984 85.1996625 -43.21187499999999 Q88.50528750000001 -39.906249999999986 88.50528750000001 -35.22999999999999 Q88.50528750000001 -30.55374999999998 85.1996625 -27.248124999999987 Q81.8940375 -23.94249999999998 77.2177875 -23.94249999999998 Z M71.0341725 18.774721250000017 H83.67472125 L86.0233275 0.8058275000000137 Q91.43568375000001 -0.48417249999998546 96.32929874999999 -3.2254224999999863 Q101.22291375 -5.966672499999987 105.09291375000001 -10.110152499999991 L122.18541375000001 -2.692652499999987 L127.81513500000001 -13.117787499999984 L112.8398475 -24.06166374999998 Q113.48484750000001 -26.894019999999983 113.93360625000001 -29.64591249999998 Q114.382365 -32.397643749999986 114.382365 -35.22999999999999 Q114.382365 -38.06235624999998 114.01423125000001 -40.814087499999985 Q113.64609750000001 -43.565979999999996 112.8398475 -46.398336249999986 L127.90624125000001 -57.34221249999999 L122.18541375000001 -67.7673475 L105.18402 -60.349847499999996 Q101.47527 -64.72472124999999 96.6168075 -67.68333624999998 Q91.75818375 -70.64195124999999 86.0233275 -71.35693374999998 L83.7658275 -89.23472124999998 H71.0341725 L68.86777875 -71.35693374999998 Q63.20306625 -70.31945125 58.2638175 -67.44146124999997 Q53.32473 -64.56347124999999 49.5247125 -60.349847499999996 L32.61458625 -67.7673475 L26.89375875 -57.34221249999999 L41.777778749999996 -46.489442499999996 Q41.13277875 -43.65708624999998 40.68418125 -40.85972124999999 Q40.2354225 -38.06235624999998 40.2354225 -35.22999999999999 Q40.2354225 -32.397643749999986 40.68418125 -29.55464499999998 Q41.13277875 -26.711807499999978 41.777778749999996 -23.970557499999984 L26.89375875 -13.117787499999984 L32.61458625 -2.692652499999987 L49.5247125 -10.110152499999991 Q53.485980000000005 -6.057778749999983 58.425067500000004 -3.2254224999999863 Q63.36431625 -0.39306624999998263 68.86777875 0.8969337500000165 L71.0341725 18.774721250000017 Z"/></g><g id="Medium-L" transform="matrix(1 0 0 1 1674.31 1556)"><path d="M61.716663749999995 30.233952500000015  58.453125 9.607981250000016 Q55.62076875 8.595008750000012 52.408023750000005 6.756436250000014 Q49.19527875 4.9177025000000185 46.80813375 2.9757687500000145 L27.510701250000004 11.837423750000013 L11.627576249999999 -16.188471249999985 L29.27380875 -29.081537499999982 Q28.989847500000003 -30.41700999999999 28.909222500000002 -32.15576874999999 Q28.8285975 -33.89436624999999 28.8285975 -35.22999999999999 Q28.8285975 -36.56563374999999 28.909222500000002 -38.30423124999999 Q28.989847500000003 -40.04298999999999 29.27380875 -41.37846249999998 L11.627576249999999 -54.31006749999999 L27.510701250000004 -82.25888499999999 L46.885211250000005 -73.43576874999998 Q49.23381750000001 -75.33916375 52.4272125 -77.1585475 Q55.62076875 -78.97776999999998 58.453125 -79.86819249999999 L61.716663749999995 -100.73265249999997 H93.08333625 L96.346875 -80.02944249999999 Q99.17923125000002 -78.97776999999998 102.4534125 -77.2391725 Q105.7274325 -75.50041374999999 107.99186625 -73.43576874999998 L127.3278375 -82.25888499999999 L143.17242375 -54.31006749999999 L125.4876525 -41.70096249999999 Q125.7714525 -40.204239999999984 125.8714275 -38.46548124999998 Q125.9714025 -36.726883749999985 125.9714025 -35.22999999999999 Q125.9714025 -33.73311624999998 125.8714275 -32.07514374999998 Q125.7714525 -30.41700999999999 125.4876525 -28.920287499999986 L143.17242375 -16.188471249999985 L127.28929875 11.837423750000013 L107.9533275 2.9757687500000145 Q105.5661825 4.9177025000000185 102.4534125 6.817711250000016 Q99.34048125000001 8.717720000000014 96.346875 9.607981250000016 L93.08333625 30.233952500000015 H61.716663749999995 Z M77.3229225 -14.267499999999984 Q86.03042250000001 -14.267499999999984 92.15792250000001 -20.39499999999999 Q98.28542250000001 -26.52249999999998 98.28542250000001 -35.22999999999999 Q98.28542250000001 -43.937499999999986 92.15792250000001 -50.06499999999998 Q86.03042250000001 -56.19249999999998 77.3229225 -56.19249999999998 Q68.6154225 -56.19249999999998 62.4879225 -50.06499999999998 Q56.3604225 -43.937499999999986 56.3604225 -35.22999999999999 Q56.3604225 -26.52249999999998 62.4879225 -20.39499999999999 Q68.6154225 -14.267499999999984 77.3229225 -14.267499999999984 Z M77.3229225 -23.94249999999998 Q72.60813375000001 -23.94249999999998 69.3216975 -27.248124999999987 Q66.0354225 -30.55374999999998 66.0354225 -35.22999999999999 Q66.0354225 -39.906249999999986 69.3216975 -43.21187499999999 Q72.60813375000001 -46.517499999999984 77.3229225 -46.517499999999984 Q81.9991725 -46.517499999999984 85.3047975 -43.21187499999999 Q88.61042250000001 -39.906249999999986 88.61042250000001 -35.22999999999999 Q88.61042250000001 -30.55374999999998 85.3047975 -27.248124999999987 Q81.9991725 -23.94249999999998 77.3229225 -23.94249999999998 Z M70.61347125 19.247990000000016 H84.14799 L86.44402875 1.2265287500000142 Q91.80381750000001 -0.06347124999998499 96.61858124999999 -2.804721249999986 Q101.43318375 -5.545971249999987 105.30318375 -9.531587499999986 L122.39568375 -2.1140874999999824 L128.49867375 -13.222922499999981 L113.4184125 -24.271933749999988 Q114.0634125 -27.051883749999988 114.48572625000001 -29.751047499999984 Q114.90820125 -32.450211249999995 114.90820125 -35.22999999999999 Q114.90820125 -38.009788749999984 114.56635125000001 -40.70895249999998 Q114.22466250000001 -43.40811624999998 113.4184125 -46.18806624999999 L128.5372125 -57.237077499999984 L122.39568375 -68.34591249999998 L105.34188375000001 -60.92841249999999 Q101.63313375 -65.19798999999998 96.879645 -68.0775925 Q92.1263175 -70.95735624999999 86.44402875 -71.7250675 L84.18652875 -89.70798999999997 H70.61347125 L68.39451 -71.7250675 Q62.8349325 -70.63485625 58.000980000000006 -67.83571749999999 Q53.16686625 -65.03673999999998 49.4195775 -60.92841249999999 L32.40431625 -68.34591249999998 L26.2627875 -57.237077499999984 L41.30451 -46.22660499999999 Q40.65951 -43.44681624999998 40.23719625 -40.728302499999984 Q39.814721250000005 -38.009788749999984 39.814721250000005 -35.22999999999999 Q39.814721250000005 -32.450211249999995 40.23719625 -29.712508749999984 Q40.65951 -26.97464499999998 41.30451 -24.233394999999987 L26.2627875 -13.222922499999981 L32.40431625 -2.1140874999999824 L49.4195775 -9.531587499999986 Q53.32811625 -5.58450999999998 58.16223000000001 -2.804721249999986 Q62.996182499999996 -0.02493249999998426 68.39451 1.2650675000000149 L70.61347125 19.247990000000016 Z"/></g><g id="Regular-L" transform="matrix(1 0 0 1 1378.56 1556)"><path d="M62.565000000000005 29.270000000000017  59.34 8.952500000000015 Q56.276250000000005 7.823750000000018 52.89 5.888750000000016 Q49.503750000000004 3.9537500000000136 46.92375 1.857500000000016 L27.896250000000002 10.565000000000015 L12.9 -15.879999999999988 L30.315 -28.61874999999999 Q29.9925 -30.069999999999993 29.911875000000002 -31.924374999999984 Q29.83125 -33.77874999999999 29.83125 -35.22999999999999 Q29.83125 -36.68124999999999 29.911875000000002 -38.53562499999998 Q29.9925 -40.389999999999986 30.315 -41.84124999999999 L12.9 -54.579999999999984 L27.896250000000002 -81.02499999999999 L46.92375 -72.31749999999998 Q49.503750000000004 -74.41375 52.89 -76.34874999999998 Q56.276250000000005 -78.28374999999998 59.34 -79.25124999999998 L62.565000000000005 -99.72999999999999 H92.235 L95.46000000000001 -79.4125 Q98.52375 -78.28374999999998 101.99062500000001 -76.429375 Q105.4575 -74.57499999999999 107.87625 -72.31749999999998 L126.90375 -81.02499999999999 L141.9 -54.579999999999984 L124.485 -42.16374999999999 Q124.8075 -40.55124999999998 124.888125 -38.69687499999999 Q124.96875 -36.84249999999999 124.96875 -35.22999999999999 Q124.96875 -33.61749999999999 124.888125 -31.843749999999986 Q124.8075 -30.069999999999993 124.485 -28.457499999999982 L141.9 -15.879999999999988 L126.90375 10.565000000000015 L107.87625 1.857500000000016 Q105.29625 3.9537500000000136 101.99062500000001 5.969375000000014 Q98.685 7.985000000000014 95.46000000000001 8.952500000000015 L92.235 29.270000000000017 H62.565000000000005 Z M77.4 -14.267499999999984 Q86.1075 -14.267499999999984 92.235 -20.39499999999999 Q98.3625 -26.52249999999998 98.3625 -35.22999999999999 Q98.3625 -43.937499999999986 92.235 -50.06499999999998 Q86.1075 -56.19249999999998 77.4 -56.19249999999998 Q68.6925 -56.19249999999998 62.565000000000005 -50.06499999999998 Q56.4375 -43.937499999999986 56.4375 -35.22999999999999 Q56.4375 -26.52249999999998 62.565000000000005 -20.39499999999999 Q68.6925 -14.267499999999984 77.4 -14.267499999999984 Z M77.4 -23.94249999999998 Q72.72375 -23.94249999999998 69.418125 -27.248124999999987 Q66.1125 -30.55374999999998 66.1125 -35.22999999999999 Q66.1125 -39.906249999999986 69.418125 -43.21187499999999 Q72.72375 -46.517499999999984 77.4 -46.517499999999984 Q82.07625 -46.517499999999984 85.38187500000001 -43.21187499999999 Q88.6875 -39.906249999999986 88.6875 -35.22999999999999 Q88.6875 -30.55374999999998 85.38187500000001 -27.248124999999987 Q82.07625 -23.94249999999998 77.4 -23.94249999999998 Z M70.305 19.595000000000017 H84.495 L86.7525 1.535000000000018 Q92.07375 0.24500000000001165 96.830625 -2.496249999999982 Q101.5875 -5.237499999999983 105.4575 -9.107499999999987 L122.55 -1.6899999999999835 L129.0 -13.299999999999983 L113.8425 -24.426249999999982 Q114.4875 -27.16749999999999 114.890625 -29.828124999999986 Q115.29375 -32.48874999999998 115.29375 -35.22999999999999 Q115.29375 -37.97124999999998 114.97125 -40.63187499999998 Q114.64875 -43.29249999999999 113.8425 -46.03374999999998 L129.0 -57.15999999999998 L122.55 -68.76999999999998 L105.4575 -61.35249999999999 Q101.74875 -65.54499999999999 97.0725 -68.366875 Q92.39625000000001 -71.18874999999998 86.7525 -71.99499999999999 L84.495 -90.05499999999998 H70.305 L68.0475 -71.99499999999999 Q62.565000000000005 -70.86625 57.808125000000004 -68.12499999999999 Q53.05125 -65.38374999999999 49.3425 -61.35249999999999 L32.25 -68.76999999999998 L25.8 -57.15999999999998 L40.9575 -46.03374999999998 Q40.3125 -43.29249999999999 39.909375000000004 -40.63187499999998 Q39.50625 -37.97124999999998 39.50625 -35.22999999999999 Q39.50625 -32.48874999999998 39.909375000000004 -29.828124999999986 Q40.3125 -27.16749999999999 40.9575 -24.426249999999982 L25.8 -13.299999999999983 L32.25 -1.6899999999999835 L49.3425 -9.107499999999987 Q53.2125 -5.237499999999983 57.969375 -2.496249999999982 Q62.72625 0.24500000000001165 68.0475 1.535000000000018 L70.305 19.595000000000017 Z"/></g><g id="Light-L" transform="matrix(1 0 0 1 1082.77 1556)"><path d="M64.61174625 26.044838750000014  61.69683 6.657590000000013 Q58.385077499999994 5.528840000000017 54.56458125 3.3767975000000163 Q50.744246249999996 1.224755000000016 47.97816375 -1.1817399999999907 L29.942996250000004 7.029593750000011 L17.05557375 -15.755998749999982 L33.354240000000004 -27.750418749999994 Q33.031740000000006 -29.449832499999985 32.88903375 -31.45916874999999 Q32.7463275 -33.468666249999984 32.7463275 -35.167918749999984 Q32.7463275 -36.80525124999998 32.88903375 -38.81474874999998 Q33.031740000000006 -40.82424624999999 33.354240000000004 -42.709581249999985 L17.05557375 -54.76608249999998 L29.942996250000004 -77.36559249999999 L47.9160825 -69.27825999999999 Q50.8682475 -71.684755 54.56458125 -73.8058375 Q58.26107625000001 -75.92692 61.634910000000005 -76.95634 L64.61174625 -96.50483875 H90.18825375 L93.10317 -77.05566999999999 Q96.66308625 -75.74083749999998 100.2230025 -73.79342125 Q103.78291875000001 -71.84600499999999 106.63575375 -69.27825999999999 L124.91892375 -77.36559249999999 L137.74442625 -54.76608249999998 L121.19775750000001 -42.78391749999999 Q121.64425875 -40.861333749999986 121.756005 -38.91391749999998 Q121.86759 -36.96650124999999 121.86759 -35.22999999999999 Q121.86759 -33.55541874999999 121.72488375 -31.657667499999988 Q121.58233875 -29.75991624999999 121.19775750000001 -27.71316999999999 L137.682345 -15.755998749999982 L124.79492250000001 7.029593750000011 L106.63575375 -1.2436599999999913 Q103.62166875 1.2866750000000167 100.12996125000001 3.4264625000000137 Q96.63825375 5.566088750000013 93.10317 6.595670000000013 L90.18825375 26.044838750000014 H64.61174625 Z M77.21391750000001 -17.058576249999987 Q84.8049225 -17.058576249999987 90.0952125 -22.34870499999998 Q95.38534125000001 -27.63899499999998 95.38534125000001 -35.22999999999999 Q95.38534125000001 -42.821004999999985 90.0952125 -48.111294999999984 Q84.8049225 -53.40142374999999 77.21391750000001 -53.40142374999999 Q69.6848325 -53.40142374999999 64.36374375 -48.111294999999984 Q59.04249375 -42.821004999999985 59.04249375 -35.22999999999999 Q59.04249375 -27.63899499999998 64.36374375 -22.34870499999998 Q69.6848325 -17.058576249999987 77.21391750000001 -17.058576249999987 Z M77.21391750000001 -24.376746249999982 Q72.72375 -24.376746249999982 69.54212625000001 -27.55820874999999 Q66.36066375 -30.73983249999999 66.36066375 -35.22999999999999 Q66.36066375 -39.72016749999999 69.54212625000001 -42.90179124999999 Q72.72375 -46.08325374999998 77.21391750000001 -46.08325374999998 Q81.76616625 -46.08325374999998 84.91666875 -42.90179124999999 Q88.0673325 -39.72016749999999 88.0673325 -35.22999999999999 Q88.0673325 -30.73983249999999 84.91666875 -27.55820874999999 Q81.76616625 -24.376746249999982 77.21391750000001 -24.376746249999982 Z M70.4910825 18.726668750000016 H84.24683625 L86.5664175 0.7287500000000122 Q91.70158500000001 -0.5612499999999869 96.14837625 -3.116417499999983 Q100.5951675 -5.671746249999984 104.65125 -9.603666249999982 L121.49558625 -2.3101674999999844 L127.94558625 -13.734246249999984 L113.03625000000001 -24.736333749999986 Q113.68125 -27.601746249999977 114.05325375000001 -30.13820874999999 Q114.42541875 -32.67483249999998 114.42541875 -35.22999999999999 Q114.42541875 -37.90916874999999 114.10291875 -40.38371124999999 Q113.78041875000001 -42.85825374999999 113.03625000000001 -45.59950374999998 L128.0695875 -56.725753749999996 L121.61958750000001 -68.14983249999999 L104.58916875 -60.85633374999999 Q101.19050250000001 -64.67666874999999 96.39025125 -67.591585 Q91.59 -70.50650124999999 86.50433625000001 -71.18874999999998 L84.3089175 -89.18666875 H70.4910825 L68.35758375 -71.25066999999999 Q62.99924625 -70.18400125 58.49037375 -67.59787374999999 Q53.9816625 -65.01158499999998 50.08683 -60.91825374999999 L33.1804125 -68.14983249999999 L26.730412500000003 -56.725753749999996 L41.63974875 -45.785586249999994 Q40.9326675 -43.230418749999984 40.560663749999996 -40.600914999999986 Q40.18849875 -37.97124999999998 40.18849875 -35.167918749999984 Q40.18849875 -32.48874999999998 40.560663749999996 -29.921166249999985 Q40.9326675 -27.353582499999987 41.577667500000004 -24.736333749999986 L26.730412500000003 -13.734246249999984 L33.1804125 -2.3101674999999844 L50.02474875 -9.541746249999981 Q53.89474875 -5.6096649999999855 58.43458125 -3.0544974999999823 Q62.97441375 -0.4993299999999863 68.29566375 0.79067000000002 L70.4910825 18.726668750000016 Z"/></g><g id="Thin-L" transform="matrix(1 0 0 1 787.282 1556)"><path d="M66.65817 22.820000000000014  64.05349875 4.363163750000012 Q60.4935825 3.234413750000016 56.23900125 0.8651675000000125 Q51.98458125 -1.5039174999999858 49.032416250000004 -4.220334999999984 L31.98942 3.4948325000000153 L21.210502500000004 -15.631997499999983 L36.392835000000005 -26.882248749999988 Q36.070335 -28.82966499999999 35.86570875 -30.994123749999986 Q35.6610825 -33.15858249999998 35.6610825 -35.10599874999998 Q35.6610825 -36.92925249999999 35.86570875 -39.09387249999999 Q36.070335 -41.25833124999998 36.392835000000005 -43.57775124999999 L21.210502500000004 -54.95216499999998 L31.98942 -73.70682999999998 L48.908415 -66.23966499999999 Q52.23258375 -68.95608249999998 56.23900125 -71.26324749999999 Q60.245418750000006 -73.57025124999998 63.929336250000006 -74.66191374999998 L66.65817 -93.28 H88.14183 L90.74650125000001 -74.69900125 Q94.80258375 -73.19824749999998 98.45554125 -71.15778999999999 Q102.10849875 -69.11733249999999 105.39541875 -66.23966499999999 L122.93458125000001 -73.70682999999998 L133.5894975 -54.95216499999998 L117.91099875 -43.40408499999998 Q118.48150125000001 -41.17141749999999 118.6242075 -39.13095999999999 Q118.76691375 -37.090502499999985 118.76691375 -35.22999999999999 Q118.76691375 -33.493498749999986 118.56212625 -31.47158499999999 Q118.3575 -29.449832499999985 117.91099875 -26.96900124999999 L133.46549625 -15.631997499999983 L122.6864175 3.4948325000000153 L105.39541875 -4.344336249999991 Q101.94724875 -1.3799162499999866 98.26945875 0.8838725000000096 Q94.59183 3.147500000000015 90.74650125000001 4.239001250000015 L88.14183 22.820000000000014 H66.65817 Z M77.02783500000001 -19.84916874999999 Q83.5026675 -19.84916874999999 87.9557475 -24.30224874999999 Q92.40866625 -28.755167499999985 92.40866625 -35.22999999999999 Q92.40866625 -41.70483249999998 87.9557475 -46.15775124999999 Q83.5026675 -50.61083124999999 77.02783500000001 -50.61083124999999 Q70.677165 -50.61083124999999 66.162165 -46.15775124999999 Q61.64700375 -41.70483249999998 61.64700375 -35.22999999999999 Q61.64700375 -28.755167499999985 66.162165 -24.30224874999999 Q70.677165 -19.84916874999999 77.02783500000001 -19.84916874999999 Z M77.02783500000001 -24.81083124999998 Q72.72375 -24.81083124999998 69.6661275 -27.86829249999998 Q66.60866625 -30.92591499999999 66.60866625 -35.22999999999999 Q66.60866625 -39.53408499999999 69.6661275 -42.591707499999984 Q72.72375 -45.64916874999999 77.02783500000001 -45.64916874999999 Q81.45608250000001 -45.64916874999999 84.45162375 -42.591707499999984 Q87.447165 -39.53408499999999 87.447165 -35.22999999999999 Q87.447165 -30.92591499999999 84.45162375 -27.86829249999998 Q81.45608250000001 -24.81083124999998 77.02783500000001 -24.81083124999998 Z M70.677165 17.858498750000013 H83.99883375 L86.380335 -0.07749999999998636 Q91.32958125 -1.3674999999999855 95.46628875 -3.736584999999984 Q99.602835 -6.105831249999987 103.845 -10.099832499999984 L120.44133375 -2.9303349999999853 L126.89133375 -14.168331249999987 L112.23 -25.04641749999999 Q112.875 -28.035831249999987 113.21604375000001 -30.448292499999994 Q113.55724875 -32.86091499999999 113.55724875 -35.22999999999999 Q113.55724875 -37.84724874999999 113.23474875000001 -40.13570874999999 Q112.91224875 -42.42416874999999 112.23 -45.165418749999986 L127.1394975 -56.291668749999985 L120.6894975 -67.52966499999998 L103.72099875 -60.36016749999999 Q100.63241625 -63.808498749999984 95.70816375 -66.81645624999999 Q90.78375 -69.82441374999999 86.25633375 -70.3825 L84.12283500000001 -88.31849874999997 H70.677165 L68.66766750000001 -70.50650124999999 Q63.43333125 -69.50191374999999 59.172461250000005 -67.07074749999998 Q54.911752500000006 -64.63958124999999 50.83099875 -60.484168749999995 L34.1105025 -67.52966499999998 L27.660502500000003 -56.291668749999985 L42.321836250000004 -45.53758374999998 Q41.552835 -43.16849874999998 41.21179125 -40.56979374999999 Q40.87058625 -37.97124999999998 40.87058625 -35.10599874999998 Q40.87058625 -32.48874999999998 41.21179125 -30.014207499999983 Q41.552835 -27.539664999999985 42.197835000000005 -25.04641749999999 L27.660502500000003 -14.168331249999987 L34.1105025 -2.9303349999999853 L50.70683625 -9.975831249999985 Q54.57683625000001 -5.98166874999999 58.899626250000004 -3.6125837499999847 Q63.22241625 -1.2434987499999863 68.54366625 0.04650125000001282 L70.677165 17.858498750000013 Z"/></g><g id="Ultralight-L" transform="matrix(1 0 0 1 491.205 1556)"><path d="M67.88625 20.885000000000016  65.4675 2.9862500000000125 Q61.75875 1.857500000000016 57.24375 -0.6418749999999847 Q52.72875 -3.141249999999985 49.665 -6.043749999999989 L33.2175 1.3737500000000153 L23.70375 -15.557499999999983 L38.21625 -26.361249999999984 Q37.893750000000004 -28.457499999999982 37.651875000000004 -30.71499999999999 Q37.410000000000004 -32.97249999999998 37.410000000000004 -35.06874999999998 Q37.410000000000004 -37.00374999999998 37.651875000000004 -39.26124999999999 Q37.893750000000004 -41.51874999999998 38.21625 -44.09874999999998 L23.70375 -55.063749999999985 L33.2175 -71.51124999999999 L49.503750000000004 -64.41624999999999 Q53.05125 -67.31874999999998 57.24375 -69.73749999999998 Q61.43625 -72.15624999999999 65.30625 -73.28499999999998 L67.88625 -91.345 H86.91375000000001 L89.3325 -73.28499999999998 Q93.68625 -71.67249999999999 97.395 -69.57624999999999 Q101.10375 -67.47999999999999 104.65125 -64.41624999999999 L121.74375 -71.51124999999999 L131.09625 -55.063749999999985 L115.93875 -43.77624999999999 Q116.58375000000001 -41.35749999999999 116.745 -39.26124999999999 Q116.90625 -37.16499999999999 116.90625 -35.22999999999999 Q116.90625 -33.45624999999998 116.664375 -31.359999999999985 Q116.4225 -29.263749999999987 115.93875 -26.52249999999998 L130.935 -15.557499999999983 L121.42125 1.3737500000000153 L104.65125 -6.204999999999984 Q100.94250000000001 -2.9799999999999827 97.153125 -0.6418749999999847 Q93.36375 1.6962500000000134 89.3325 2.825000000000017 L86.91375000000001 20.885000000000016 H67.88625 Z M76.91625 -21.523749999999986 Q82.72125 -21.523749999999986 86.671875 -25.47437499999998 Q90.6225 -29.424999999999983 90.6225 -35.22999999999999 Q90.6225 -41.03499999999998 86.671875 -44.985624999999985 Q82.72125 -48.93624999999999 76.91625 -48.93624999999999 Q71.27250000000001 -48.93624999999999 67.24125000000001 -44.985624999999985 Q63.21 -41.03499999999998 63.21 -35.22999999999999 Q63.21 -29.424999999999983 67.24125000000001 -25.47437499999998 Q71.27250000000001 -21.523749999999986 76.91625 -21.523749999999986 Z M76.91625 -25.071249999999992 Q72.72375 -25.071249999999992 69.74062500000001 -28.05437499999998 Q66.75750000000001 -31.03749999999998 66.75750000000001 -35.22999999999999 Q66.75750000000001 -39.422499999999985 69.74062500000001 -42.405624999999986 Q72.72375 -45.38874999999999 76.91625 -45.38874999999999 Q81.27 -45.38874999999999 84.1725 -42.405624999999986 Q87.075 -39.422499999999985 87.075 -35.22999999999999 Q87.075 -31.03749999999998 84.1725 -28.05437499999998 Q81.27 -25.071249999999992 76.91625 -25.071249999999992 Z M70.78875000000001 17.337500000000016 H83.85000000000001 L86.26875 -0.5612499999999869 Q91.10625 -1.851249999999986 95.056875 -4.108749999999986 Q99.00750000000001 -6.366249999999987 103.36125 -10.397499999999987 L119.80875 -3.302499999999988 L126.25875 -14.428749999999987 L111.74625 -25.232499999999987 Q112.39125 -28.296249999999986 112.71375 -30.63437499999999 Q113.03625000000001 -32.97249999999998 113.03625000000001 -35.22999999999999 Q113.03625000000001 -37.80999999999999 112.71375 -39.98687499999998 Q112.39125 -42.16374999999999 111.74625 -44.90499999999999 L126.58125 -56.031249999999986 L120.13125000000001 -67.15749999999998 L103.2 -60.062499999999986 Q100.2975 -63.28749999999998 95.29875 -66.35125 Q90.3 -69.41499999999999 86.1075 -69.89874999999999 L84.01125 -87.79749999999999 H70.78875000000001 L68.85375 -70.05999999999999 Q63.69375 -69.09249999999999 59.581875000000004 -66.75437499999998 Q55.47 -64.41624999999999 51.2775 -60.22374999999998 L34.66875 -67.15749999999998 L28.21875 -56.031249999999986 L42.73125 -45.38874999999999 Q41.925000000000004 -43.13124999999998 41.6025 -40.55124999999998 Q41.28 -37.97124999999998 41.28 -35.06874999999998 Q41.28 -32.48874999999998 41.6025 -30.069999999999993 Q41.925000000000004 -27.65124999999999 42.57 -25.232499999999987 L28.21875 -14.428749999999987 L34.66875 -3.302499999999988 L51.11625 -10.236249999999984 Q54.98625 -6.204999999999984 59.17875 -3.947499999999984 Q63.37125 -1.6899999999999835 68.6925 -0.39999999999998437 L70.78875000000001 17.337500000000016 Z"/></g><g id="Bold-M" transform="matrix(1 0 0 1 2281.8 1126)"><path d="M42.625 19.02000000000001  40.375 1.6450000000000102 Q39.75 1.3950000000000102 39.125 1.0200000000000102 Q38.5 0.6450000000000102 37.875 0.27000000000001023 L21.75 7.14500000000001 L4.25 -23.35499999999999 L18.125 -33.85499999999999 Q18.125 -34.22999999999999 18.125 -34.54249999999999 Q18.125 -34.85499999999999 18.125 -35.22999999999999 Q18.125 -35.60499999999999 18.125 -35.91749999999999 Q18.125 -36.22999999999999 18.125 -36.60499999999999 L4.25 -47.10499999999999 L21.75 -77.35499999999999 L38.125 -70.60499999999999 Q38.75 -70.97999999999999 39.25 -71.29249999999999 Q39.75 -71.60499999999999 40.375 -71.85499999999999 L42.625 -89.47999999999999 H77.375 L79.625 -71.85499999999999 Q80.25 -71.60499999999999 80.875 -71.29249999999999 Q81.5 -70.97999999999999 82.125 -70.60499999999999 L98.25 -77.35499999999999 L115.75 -47.10499999999999 L101.75 -36.60499999999999 Q101.75 -36.22999999999999 101.75 -35.91749999999999 Q101.75 -35.60499999999999 101.75 -35.22999999999999 Q101.75 -34.85499999999999 101.6875 -34.54249999999999 Q101.625 -34.22999999999999 101.625 -33.85499999999999 L115.625 -23.35499999999999 L98.0 7.14500000000001 L81.875 0.27000000000001023 Q81.25 0.6450000000000102 80.75 1.0200000000000102 Q80.25 1.3950000000000102 79.625 1.6450000000000102 L77.375 19.02000000000001 H42.625 Z M59.875 -17.72999999999999 Q67.125 -17.72999999999999 72.25 -22.85499999999999 Q77.375 -27.97999999999999 77.375 -35.22999999999999 Q77.375 -42.47999999999999 72.25 -47.60499999999999 Q67.125 -52.72999999999999 59.875 -52.72999999999999 Q52.625 -52.72999999999999 47.5 -47.60499999999999 Q42.375 -42.47999999999999 42.375 -35.22999999999999 Q42.375 -27.97999999999999 47.5 -22.85499999999999 Q52.625 -17.72999999999999 59.875 -17.72999999999999 Z M59.875 -27.72999999999999 Q56.75 -27.72999999999999 54.5625 -29.91749999999999 Q52.375 -32.10499999999999 52.375 -35.22999999999999 Q52.375 -38.35499999999999 54.5625 -40.54249999999999 Q56.75 -42.72999999999999 59.875 -42.72999999999999 Q63.0 -42.72999999999999 65.1875 -40.54249999999999 Q67.375 -38.35499999999999 67.375 -35.22999999999999 Q67.375 -32.10499999999999 65.1875 -29.91749999999999 Q63.0 -27.72999999999999 59.875 -27.72999999999999 Z M56.375 3.2700000000000102 H63.375 L65.25 -9.72999999999999 Q69.25 -10.72999999999999 72.875 -12.72999999999999 Q76.5 -14.72999999999999 79.25 -17.97999999999999 L91.5 -12.85499999999999 L94.875 -19.10499999999999 L84.5 -26.97999999999999 Q85.125 -28.97999999999999 85.5 -31.04249999999999 Q85.875 -33.10499999999999 85.875 -35.22999999999999 Q85.875 -37.35499999999999 85.5 -39.41749999999999 Q85.125 -41.47999999999999 84.5 -43.47999999999999 L95.125 -51.35499999999999 L91.5 -57.60499999999999 L79.375 -52.35499999999999 Q76.625 -55.60499999999999 73.0 -57.72999999999999 Q69.375 -59.85499999999999 65.25 -60.72999999999999 L63.625 -73.72999999999999 H56.375 L54.875 -60.85499999999999 Q50.625 -59.97999999999999 46.9375 -57.85499999999999 Q43.25 -55.72999999999999 40.375 -52.47999999999999 L28.375 -57.60499999999999 L24.875 -51.35499999999999 L35.125 -43.72999999999999 Q34.5 -41.60499999999999 34.125 -39.54249999999999 Q33.75 -37.47999999999999 33.75 -35.22999999999999 Q33.75 -33.10499999999999 34.125 -30.97999999999999 Q34.5 -28.85499999999999 35.125 -26.72999999999999 L24.875 -19.10499999999999 L28.375 -12.85499999999999 L40.375 -17.97999999999999 Q43.25 -14.85499999999999 47.0 -12.72999999999999 Q50.75 -10.60499999999999 54.875 -9.60499999999999 L56.375 3.2700000000000102 Z"/></g><g id="Semibold-M" transform="matrix(1 0 0 1 1985.97 1126)"><path d="M44.201 17.172250000000012  42.059625 0.39512500000001083 Q40.999875 -0.017999999999990024 40.021625 -0.6103749999999906 Q39.0435 -1.202749999999991 38.092375 -1.8493749999999913 L22.510875 4.753875000000011 L6.641125 -22.811499999999988 L20.081375 -32.98549999999999 Q20.027 -33.57787499999999 20.027 -34.10774999999999 Q20.027 -34.63762499999999 20.027 -35.22999999999999 Q20.027 -35.82237499999999 20.027 -36.35224999999999 Q20.027 -36.88212499999999 20.081375 -37.47449999999999 L6.641125 -47.648499999999984 L22.510875 -75.07249999999999 L38.23375 -68.539875 Q39.18475 -69.18662499999999 40.1195 -69.743625 Q41.05425 -70.30075 42.059625 -70.71374999999999 L44.201 -87.63224999999998 H75.799 L77.940375 -70.71374999999999 Q79.000125 -70.30075 79.978375 -69.743625 Q80.9565 -69.18662499999999 81.907625 -68.539875 L97.489125 -75.07249999999999 L113.358875 -47.648499999999984 L99.848 -37.47449999999999 Q99.90225 -36.88212499999999 99.90225 -36.35224999999999 Q99.90225 -35.82237499999999 99.90225 -35.22999999999999 Q99.90225 -34.63762499999999 99.867 -34.10774999999999 Q99.831625 -33.57787499999999 99.723 -32.98549999999999 L113.233875 -22.811499999999988 L97.2935 4.753875000000011 L81.76625 -1.8493749999999913 Q80.81525 -1.202749999999991 79.8805 -0.6103749999999906 Q78.94575 -0.017999999999990024 77.940375 0.39512500000001083 L75.799 17.172250000000012 H44.201 Z M60.038 -17.72999999999999 Q67.288 -17.72999999999999 72.413 -22.85499999999999 Q77.538 -27.97999999999999 77.538 -35.22999999999999 Q77.538 -42.47999999999999 72.413 -47.60499999999999 Q67.288 -52.72999999999999 60.038 -52.72999999999999 Q52.73375 -52.72999999999999 47.635875 -47.60499999999999 Q42.538 -42.47999999999999 42.538 -35.22999999999999 Q42.538 -27.97999999999999 47.635875 -22.85499999999999 Q52.73375 -17.72999999999999 60.038 -17.72999999999999 Z M60.038 -27.72999999999999 Q56.913 -27.72999999999999 54.7255 -29.91749999999999 Q52.538 -32.10499999999999 52.538 -35.22999999999999 Q52.538 -38.35499999999999 54.7255 -40.54249999999999 Q56.913 -42.72999999999999 60.038 -42.72999999999999 Q63.163 -42.72999999999999 65.3505 -40.54249999999999 Q67.538 -38.35499999999999 67.538 -35.22999999999999 Q67.538 -32.10499999999999 65.3505 -29.91749999999999 Q63.163 -27.72999999999999 60.038 -27.72999999999999 Z M55.77725 3.922125000000012 H64.027125 L65.84775 -9.186499999999988 Q69.7935 -10.186499999999988 73.282625 -12.15937499999999 Q76.77175 -14.132249999999992 79.52175 -17.164874999999988 L91.826125 -12.039874999999988 L95.85325 -19.267999999999986 L85.315125 -27.251749999999987 Q85.940125 -29.142999999999986 86.260875 -31.15124999999999 Q86.5815 -33.15937499999999 86.5815 -35.22999999999999 Q86.5815 -37.30062499999999 86.260875 -39.30874999999999 Q85.940125 -41.31699999999999 85.315125 -43.20824999999999 L95.9945 -51.19199999999999 L91.826125 -58.420124999999985 L79.592375 -53.170124999999985 Q76.842375 -56.25712499999999 73.35325 -58.300625 Q69.864125 -60.34412499999999 65.84775 -61.273499999999984 L64.22275 -74.38212499999999 H55.8315 L54.222875 -61.34412499999999 Q50.135875 -60.414749999999984 46.611375 -58.37124999999999 Q43.087 -56.327749999999995 40.26625 -53.295124999999985 L28.10325 -58.420124999999985 L24.0055 -51.19199999999999 L34.472875 -43.403874999999985 Q33.847875 -41.387624999999986 33.52725 -39.40662499999999 Q33.2065 -37.42562499999999 33.2065 -35.22999999999999 Q33.2065 -33.15937499999999 33.52725 -31.142999999999986 Q33.847875 -29.126749999999987 34.472875 -27.11037499999999 L24.0055 -19.267999999999986 L28.10325 -12.039874999999988 L40.26625 -17.21912499999999 Q43.087 -14.202874999999992 46.64675 -12.15937499999999 Q50.2065 -10.115874999999988 54.222875 -9.115874999999988 L55.77725 3.922125000000012 Z"/></g><g id="Medium-M" transform="matrix(1 0 0 1 1689.91 1126)"><path d="M45.383125 15.78637500000001  43.323375 -0.5424999999999898 Q41.9375 -1.077749999999991 40.69425 -1.833249999999989 Q39.451125 -2.5886249999999897 38.255375 -3.4392499999999906 L23.0815 2.960250000000009 L8.43475 -22.403874999999992 L21.548875 -32.33324999999999 Q21.45375 -33.08874999999999 21.45375 -33.78162499999999 Q21.45375 -34.47462499999999 21.45375 -35.22999999999999 Q21.45375 -35.98537499999999 21.45375 -36.67837499999999 Q21.45375 -37.37124999999999 21.548875 -38.12674999999999 L8.43475 -48.056124999999994 L23.0815 -73.36049999999999 L38.31525 -66.99087499999999 Q39.510875 -67.84137499999999 40.77175 -68.581875 Q42.032625 -69.322375 43.323375 -69.85775 L45.383125 -86.24637499999999 H74.616875 L76.676625 -69.85775 Q78.0625 -69.322375 79.30575 -68.581875 Q80.548875 -67.84137499999999 81.744625 -66.99087499999999 L96.9185 -73.36049999999999 L111.56525 -48.056124999999994 L98.42125 -38.12674999999999 Q98.516375 -37.37124999999999 98.516375 -36.67837499999999 Q98.516375 -35.98537499999999 98.516375 -35.22999999999999 Q98.516375 -34.47462499999999 98.501375 -33.78162499999999 Q98.486375 -33.08874999999999 98.29625 -32.33324999999999 L111.44025 -22.403874999999992 L96.763625 2.960250000000009 L81.68475 -3.4392499999999906 Q80.489125 -2.5886249999999897 79.22825 -1.833249999999989 Q77.967375 -1.077749999999991 76.676625 -0.5424999999999898 L74.616875 15.78637500000001 H45.383125 Z M60.160375 -17.72999999999999 Q67.410375 -17.72999999999999 72.535375 -22.85499999999999 Q77.660375 -27.97999999999999 77.660375 -35.22999999999999 Q77.660375 -42.47999999999999 72.535375 -47.60499999999999 Q67.410375 -52.72999999999999 60.160375 -52.72999999999999 Q52.81525 -52.72999999999999 47.73775 -47.60499999999999 Q42.660375 -42.47999999999999 42.660375 -35.22999999999999 Q42.660375 -27.97999999999999 47.73775 -22.85499999999999 Q52.81525 -17.72999999999999 60.160375 -17.72999999999999 Z M60.160375 -27.72999999999999 Q57.035375 -27.72999999999999 54.847875 -29.91749999999999 Q52.660375 -32.10499999999999 52.660375 -35.22999999999999 Q52.660375 -38.35499999999999 54.847875 -40.54249999999999 Q57.035375 -42.72999999999999 60.160375 -42.72999999999999 Q63.285375 -42.72999999999999 65.472875 -40.54249999999999 Q67.660375 -38.35499999999999 67.660375 -35.22999999999999 Q67.660375 -32.10499999999999 65.472875 -29.91749999999999 Q63.285375 -27.72999999999999 60.160375 -27.72999999999999 Z M55.32875 4.41125000000001 H64.51625 L66.29625 -8.778874999999992 Q70.201125 -9.778874999999992 73.58825 -11.731374999999993 Q76.9755 -13.68374999999999 79.7255 -16.55337499999999 L92.070625 -11.428374999999988 L96.587 -19.39037499999999 L85.926625 -27.455499999999986 Q86.551625 -29.26537499999999 86.8315 -31.23274999999999 Q87.111375 -33.20012499999999 87.111375 -35.22999999999999 Q87.111375 -37.25987499999999 86.8315 -39.22724999999999 Q86.551625 -41.19462499999999 85.926625 -43.00449999999999 L96.64675 -51.06962499999999 L92.070625 -59.03162499999999 L79.755375 -53.78162499999999 Q77.005375 -56.74624999999999 73.61825 -58.728624999999994 Q70.231 -60.710999999999984 66.29625 -61.681124999999994 L64.67125 -74.87124999999999 H55.423875 L53.73375 -61.710999999999984 Q49.769 -60.74087499999999 46.366875 -58.758499999999984 Q42.964625 -56.77624999999999 40.18475 -53.90662499999999 L27.8995 -59.03162499999999 L23.35325 -51.06962499999999 L33.98375 -43.15937499999998 Q33.35875 -41.22462499999999 33.07875 -39.304749999999984 Q32.798875 -37.38487499999999 32.798875 -35.22999999999999 Q32.798875 -33.20012499999999 33.07875 -31.26537499999999 Q33.35875 -29.330499999999986 33.98375 -27.395749999999992 L23.35325 -19.39037499999999 L27.8995 -11.428374999999988 L40.18475 -16.64849999999999 Q42.964625 -13.71374999999999 46.38175 -11.731374999999993 Q49.798875 -9.748999999999988 53.73375 -8.748999999999988 L55.32875 4.41125000000001 Z"/></g><g id="Regular-M" transform="matrix(1 0 0 1 1394.06 1126)"><path d="M46.25 14.77000000000001  44.25 -1.2299999999999898 Q42.625 -1.8549999999999898 41.1875 -2.7299999999999898 Q39.75 -3.6049999999999898 38.375 -4.60499999999999 L23.5 1.6450000000000102 L9.75 -22.10499999999999 L22.625 -31.85499999999999 Q22.5 -32.72999999999999 22.5 -33.54249999999999 Q22.5 -34.35499999999999 22.5 -35.22999999999999 Q22.5 -36.10499999999999 22.5 -36.91749999999999 Q22.5 -37.72999999999999 22.625 -38.60499999999999 L9.75 -48.35499999999999 L23.5 -72.10499999999999 L38.375 -65.85499999999999 Q39.75 -66.85499999999999 41.25 -67.72999999999999 Q42.75 -68.60499999999999 44.25 -69.22999999999999 L46.25 -85.22999999999999 H73.75 L75.75 -69.22999999999999 Q77.375 -68.60499999999999 78.8125 -67.72999999999999 Q80.25 -66.85499999999999 81.625 -65.85499999999999 L96.5 -72.10499999999999 L110.25 -48.35499999999999 L97.375 -38.60499999999999 Q97.5 -37.72999999999999 97.5 -36.91749999999999 Q97.5 -36.10499999999999 97.5 -35.22999999999999 Q97.5 -34.35499999999999 97.5 -33.54249999999999 Q97.5 -32.72999999999999 97.25 -31.85499999999999 L110.125 -22.10499999999999 L96.375 1.6450000000000102 L81.625 -4.60499999999999 Q80.25 -3.6049999999999898 78.75 -2.7299999999999898 Q77.25 -1.8549999999999898 75.75 -1.2299999999999898 L73.75 14.77000000000001 H46.25 Z M60.25 -17.72999999999999 Q67.5 -17.72999999999999 72.625 -22.85499999999999 Q77.75 -27.97999999999999 77.75 -35.22999999999999 Q77.75 -42.47999999999999 72.625 -47.60499999999999 Q67.5 -52.72999999999999 60.25 -52.72999999999999 Q52.875 -52.72999999999999 47.8125 -47.60499999999999 Q42.75 -42.47999999999999 42.75 -35.22999999999999 Q42.75 -27.97999999999999 47.8125 -22.85499999999999 Q52.875 -17.72999999999999 60.25 -17.72999999999999 Z M60.25 -27.72999999999999 Q57.125 -27.72999999999999 54.9375 -29.91749999999999 Q52.75 -32.10499999999999 52.75 -35.22999999999999 Q52.75 -38.35499999999999 54.9375 -40.54249999999999 Q57.125 -42.72999999999999 60.25 -42.72999999999999 Q63.375 -42.72999999999999 65.5625 -40.54249999999999 Q67.75 -38.35499999999999 67.75 -35.22999999999999 Q67.75 -32.10499999999999 65.5625 -29.91749999999999 Q63.375 -27.72999999999999 60.25 -27.72999999999999 Z M55.0 4.77000000000001 H64.875 L66.625 -8.47999999999999 Q70.5 -9.47999999999999 73.8125 -11.41749999999999 Q77.125 -13.35499999999999 79.875 -16.10499999999999 L92.25 -10.97999999999999 L97.125 -19.47999999999999 L86.375 -27.60499999999999 Q87.0 -29.35499999999999 87.25 -31.29249999999999 Q87.5 -33.22999999999999 87.5 -35.22999999999999 Q87.5 -37.22999999999999 87.25 -39.16749999999999 Q87.0 -41.10499999999999 86.375 -42.85499999999999 L97.125 -50.97999999999999 L92.25 -59.47999999999999 L79.875 -54.22999999999999 Q77.125 -57.10499999999999 73.8125 -59.04249999999999 Q70.5 -60.97999999999999 66.625 -61.97999999999999 L65.0 -75.22999999999999 H55.125 L53.375 -61.97999999999999 Q49.5 -60.97999999999999 46.1875 -59.04249999999999 Q42.875 -57.10499999999999 40.125 -54.35499999999999 L27.75 -59.47999999999999 L22.875 -50.97999999999999 L33.625 -42.97999999999999 Q33.0 -41.10499999999999 32.75 -39.22999999999999 Q32.5 -37.35499999999999 32.5 -35.22999999999999 Q32.5 -33.22999999999999 32.75 -31.35499999999999 Q33.0 -29.47999999999999 33.625 -27.60499999999999 L22.875 -19.47999999999999 L27.75 -10.97999999999999 L40.125 -16.22999999999999 Q42.875 -13.35499999999999 46.1875 -11.41749999999999 Q49.5 -9.47999999999999 53.375 -8.47999999999999 L55.0 4.77000000000001 Z"/></g><g id="Light-M" transform="matrix(1 0 0 1 1098.18 1126)"><path d="M48.46175 12.26987500000001  46.557875 -2.960874999999991 Q44.54825 -3.6339999999999897 42.437625 -4.845499999999991 Q40.327 -6.0571249999999885 38.6635 -7.441749999999992 L24.55775 -1.480249999999991 L13.0195 -21.47999999999999 L25.221375 -30.70112499999999 Q25.04825 -31.81649999999999 24.976125 -32.94149999999999 Q24.904 -34.06649999999999 24.904 -35.18187499999999 Q24.904 -36.24924999999999 24.976125 -37.35024999999999 Q25.04825 -38.45124999999999 25.221375 -39.75887499999999 L13.0195 -48.97999999999999 L24.55775 -68.883625 L38.615375 -62.970124999999996 Q40.423125 -64.402875 42.476 -65.590375 Q44.529 -66.77799999999999 46.50975 -67.49912499999999 L48.46175 -82.72987499999999 H71.53825 L73.442125 -67.451 Q75.692125 -66.63374999999999 77.514375 -65.54237499999999 Q79.3365 -64.451 81.19225 -62.970124999999996 L95.44225 -68.883625 L106.9805 -48.97999999999999 L94.586375 -39.61474999999999 Q94.855625 -38.40312499999999 94.879625 -37.35024999999999 Q94.903625 -36.29737499999999 94.903625 -35.22999999999999 Q94.903625 -34.21074999999999 94.855625 -33.15787499999999 Q94.8075 -32.10499999999999 94.509375 -30.749124999999992 L106.8075 -21.47999999999999 L95.269125 -1.480249999999991 L81.19225 -7.489874999999991 Q79.3365 -6.00899999999999 77.40375 -4.8696249999999885 Q75.471 -3.7301249999999904 73.442125 -3.0089999999999897 L71.53825 12.26987500000001 H48.46175 Z M60.057625 -20.230124999999987 Q66.298 -20.230124999999987 70.67775 -24.609874999999988 Q75.0575 -28.989749999999987 75.0575 -35.22999999999999 Q75.0575 -41.47024999999999 70.67775 -45.85012499999999 Q66.298 -50.22987499999999 60.057625 -50.22987499999999 Q53.7405 -50.22987499999999 49.399125 -45.85012499999999 Q45.057875 -41.47024999999999 45.057875 -35.22999999999999 Q45.057875 -28.989749999999987 49.399125 -24.609874999999988 Q53.7405 -20.230124999999987 60.057625 -20.230124999999987 Z M60.057625 -27.72999999999999 Q56.932625 -27.72999999999999 54.745125 -29.91749999999999 Q52.557625 -32.10499999999999 52.557625 -35.22999999999999 Q52.557625 -38.35499999999999 54.745125 -40.54249999999999 Q56.932625 -42.72999999999999 60.057625 -42.72999999999999 Q63.182625 -42.72999999999999 65.370125 -40.54249999999999 Q67.557625 -38.35499999999999 67.557625 -35.22999999999999 Q67.557625 -32.10499999999999 65.370125 -29.91749999999999 Q63.182625 -27.72999999999999 60.057625 -27.72999999999999 Z M55.0 4.77000000000001 H64.826875 L66.625 -8.62424999999999 Q70.451875 -9.62424999999999 73.620125 -11.465624999999989 Q76.788375 -13.306874999999991 79.73075 -16.20112499999999 L92.153875 -10.97999999999999 L97.076875 -19.47999999999999 L86.23075 -27.65312499999999 Q86.85575 -29.59537499999999 87.08175 -31.46074999999999 Q87.307625 -33.32612499999999 87.307625 -35.22999999999999 Q87.307625 -37.18187499999999 87.08175 -38.99924999999999 Q86.85575 -40.81649999999999 86.23075 -42.71074999999999 L97.173125 -50.97999999999999 L92.25 -59.47999999999999 L79.682625 -54.18187499999999 Q77.173125 -56.86462499999999 73.66825 -58.92224999999999 Q70.163375 -60.97999999999999 66.576875 -61.83574999999999 L65.0 -75.22999999999999 H55.076875 L53.423125 -61.88387499999999 Q49.596125 -60.97999999999999 46.35575 -59.11462499999999 Q43.115375 -57.24924999999999 40.173125 -54.30687499999999 L27.75 -59.47999999999999 L22.826875 -50.97999999999999 L33.625 -42.93187499999999 Q33.0 -41.15312499999999 32.75 -39.22999999999999 Q32.5 -37.30687499999999 32.5 -35.18187499999999 Q32.5 -33.22999999999999 32.75 -31.35499999999999 Q33.0 -29.47999999999999 33.576875 -27.65312499999999 L22.826875 -19.47999999999999 L27.75 -10.97999999999999 L40.125 -16.22999999999999 Q42.971125 -13.306874999999991 46.2115 -11.44149999999999 Q49.451875 -9.57612499999999 53.375 -8.57612499999999 L55.0 4.77000000000001 Z"/></g><g id="Thin-M" transform="matrix(1 0 0 1 802.565 1126)"><path d="M50.673 9.77000000000001  48.865375 -4.691499999999991 Q46.471125 -5.412624999999991 43.6875 -6.96074999999999 Q40.903875 -8.508874999999989 38.951875 -10.277999999999992 L25.615375 -4.60499999999999 L16.288375 -20.85499999999999 L27.81725 -29.547374999999988 Q27.596125 -30.90312499999999 27.451875 -32.34062499999999 Q27.307625 -33.77812499999999 27.307625 -35.13387499999999 Q27.307625 -36.39349999999999 27.451875 -37.78287499999999 Q27.596125 -39.17224999999999 27.81725 -40.91262499999999 L16.288375 -49.60499999999999 L25.615375 -65.66274999999999 L38.85575 -60.08574999999999 Q41.096125 -61.95112499999999 43.701875 -63.45112499999999 Q46.307625 -64.95112499999999 48.76925 -65.76849999999999 L50.673 -80.22999999999999 H69.327 L71.134625 -65.67237499999999 Q74.009625 -64.66274999999999 76.216375 -63.35499999999999 Q78.423125 -62.04737499999999 80.759625 -60.08574999999999 L94.384625 -65.66274999999999 L103.711625 -49.60499999999999 L91.798125 -40.62424999999999 Q92.211625 -39.07612499999999 92.259625 -37.78287499999999 Q92.30775 -36.48962499999999 92.30775 -35.22999999999999 Q92.30775 -34.06649999999999 92.211625 -32.77324999999999 Q92.115375 -31.47999999999999 91.76925 -29.64349999999999 L103.490375 -20.85499999999999 L94.1635 -4.60499999999999 L80.759625 -10.37424999999999 Q78.423125 -8.412624999999991 76.05775 -7.008874999999989 Q73.692375 -5.60499999999999 71.134625 -4.787624999999991 L69.327 9.77000000000001 H50.673 Z M59.865375 -22.72999999999999 Q65.096125 -22.72999999999999 68.73075 -26.36462499999999 Q72.365375 -29.99924999999999 72.365375 -35.22999999999999 Q72.365375 -40.46074999999999 68.73075 -44.09537499999999 Q65.096125 -47.72999999999999 59.865375 -47.72999999999999 Q54.60575 -47.72999999999999 50.9855 -44.09537499999999 Q47.365375 -40.46074999999999 47.365375 -35.22999999999999 Q47.365375 -29.99924999999999 50.9855 -26.36462499999999 Q54.60575 -22.72999999999999 59.865375 -22.72999999999999 Z M59.865375 -27.72999999999999 Q56.740375 -27.72999999999999 54.552875 -29.91749999999999 Q52.365375 -32.10499999999999 52.365375 -35.22999999999999 Q52.365375 -38.35499999999999 54.552875 -40.54249999999999 Q56.740375 -42.72999999999999 59.865375 -42.72999999999999 Q62.990375 -42.72999999999999 65.177875 -40.54249999999999 Q67.365375 -38.35499999999999 67.365375 -35.22999999999999 Q67.365375 -32.10499999999999 65.177875 -29.91749999999999 Q62.990375 -27.72999999999999 59.865375 -27.72999999999999 Z M55.0 4.77000000000001 H64.778875 L66.625 -8.768499999999989 Q70.403875 -9.768499999999989 73.427875 -11.51362499999999 Q76.451875 -13.258874999999989 79.5865 -16.29724999999999 L92.05775 -10.97999999999999 L97.028875 -19.47999999999999 L86.0865 -27.70112499999999 Q86.7115 -29.83574999999999 86.9135 -31.62899999999999 Q87.115375 -33.42224999999999 87.115375 -35.22999999999999 Q87.115375 -37.13387499999999 86.9135 -38.83099999999999 Q86.7115 -40.52812499999999 86.0865 -42.56649999999999 L97.221125 -50.97999999999999 L92.25 -59.47999999999999 L79.490375 -54.13387499999999 Q77.221125 -56.62424999999999 73.524 -58.80212499999999 Q69.826875 -60.97999999999999 66.528875 -61.69149999999999 L65.0 -75.22999999999999 H55.028875 L53.471125 -61.78774999999999 Q49.69225 -60.97999999999999 46.524 -59.18674999999999 Q43.35575 -57.39349999999999 40.221125 -54.25887499999999 L27.75 -59.47999999999999 L22.778875 -50.97999999999999 L33.625 -42.88387499999999 Q33.0 -41.20112499999999 32.75 -39.22999999999999 Q32.5 -37.25887499999999 32.5 -35.13387499999999 Q32.5 -33.22999999999999 32.75 -31.35499999999999 Q33.0 -29.47999999999999 33.528875 -27.70112499999999 L22.778875 -19.47999999999999 L27.75 -10.97999999999999 L40.125 -16.22999999999999 Q43.06725 -13.258874999999989 46.235625 -11.465624999999989 Q49.403875 -9.672249999999991 53.375 -8.672249999999991 L55.0 4.77000000000001 Z"/></g><g id="Ultralight-M" transform="matrix(1 0 0 1 506.415 1126)"><path d="M52.0 8.27000000000001  50.25 -5.72999999999999 Q47.625 -6.47999999999999 44.4375 -8.22999999999999 Q41.25 -9.97999999999999 39.125 -11.97999999999999 L26.25 -6.47999999999999 L18.25 -20.47999999999999 L29.375 -28.85499999999999 Q29.125 -30.35499999999999 28.9375 -31.97999999999999 Q28.75 -33.60499999999999 28.75 -35.10499999999999 Q28.75 -36.47999999999999 28.9375 -38.04249999999999 Q29.125 -39.60499999999999 29.375 -41.60499999999999 L18.25 -49.97999999999999 L26.25 -63.72999999999999 L39.0 -58.35499999999999 Q41.5 -60.47999999999999 44.4375 -62.16749999999999 Q47.375 -63.85499999999999 50.125 -64.72999999999999 L52.0 -78.72999999999999 H68.0 L69.75 -64.60499999999999 Q73.0 -63.47999999999999 75.4375 -62.04249999999999 Q77.875 -60.60499999999999 80.5 -58.35499999999999 L93.75 -63.72999999999999 L101.75 -49.97999999999999 L90.125 -41.22999999999999 Q90.625 -39.47999999999999 90.6875 -38.04249999999999 Q90.75 -36.60499999999999 90.75 -35.22999999999999 Q90.75 -33.97999999999999 90.625 -32.54249999999999 Q90.5 -31.10499999999999 90.125 -28.97999999999999 L101.5 -20.47999999999999 L93.5 -6.47999999999999 L80.5 -12.10499999999999 Q77.875 -9.85499999999999 75.25 -8.29249999999999 Q72.625 -6.72999999999999 69.75 -5.85499999999999 L68.0 8.27000000000001 H52.0 Z M59.75 -24.22999999999999 Q64.375 -24.22999999999999 67.5625 -27.41749999999999 Q70.75 -30.60499999999999 70.75 -35.22999999999999 Q70.75 -39.85499999999999 67.5625 -43.04249999999999 Q64.375 -46.22999999999999 59.75 -46.22999999999999 Q55.125 -46.22999999999999 51.9375 -43.04249999999999 Q48.75 -39.85499999999999 48.75 -35.22999999999999 Q48.75 -30.60499999999999 51.9375 -27.41749999999999 Q55.125 -24.22999999999999 59.75 -24.22999999999999 Z M59.75 -27.72999999999999 Q56.625 -27.72999999999999 54.4375 -29.91749999999999 Q52.25 -32.10499999999999 52.25 -35.22999999999999 Q52.25 -38.35499999999999 54.4375 -40.54249999999999 Q56.625 -42.72999999999999 59.75 -42.72999999999999 Q62.875 -42.72999999999999 65.0625 -40.54249999999999 Q67.25 -38.35499999999999 67.25 -35.22999999999999 Q67.25 -32.10499999999999 65.0625 -29.91749999999999 Q62.875 -27.72999999999999 59.75 -27.72999999999999 Z M55.0 4.77000000000001 H64.75 L66.625 -8.85499999999999 Q70.375 -9.85499999999999 73.3125 -11.54249999999999 Q76.25 -13.22999999999999 79.5 -16.35499999999999 L92.0 -10.97999999999999 L97.0 -19.47999999999999 L86.0 -27.72999999999999 Q86.625 -29.97999999999999 86.8125 -31.72999999999999 Q87.0 -33.47999999999999 87.0 -35.22999999999999 Q87.0 -37.10499999999999 86.8125 -38.72999999999999 Q86.625 -40.35499999999999 86.0 -42.47999999999999 L97.25 -50.97999999999999 L92.25 -59.47999999999999 L79.375 -54.10499999999999 Q77.25 -56.47999999999999 73.4375 -58.72999999999999 Q69.625 -60.97999999999999 66.5 -61.60499999999999 L65.0 -75.22999999999999 H55.0 L53.5 -61.72999999999999 Q49.75 -60.97999999999999 46.625 -59.22999999999999 Q43.5 -57.47999999999999 40.25 -54.22999999999999 L27.75 -59.47999999999999 L22.75 -50.97999999999999 L33.625 -42.85499999999999 Q33.0 -41.22999999999999 32.75 -39.22999999999999 Q32.5 -37.22999999999999 32.5 -35.10499999999999 Q32.5 -33.22999999999999 32.75 -31.35499999999999 Q33.0 -29.47999999999999 33.5 -27.72999999999999 L22.75 -19.47999999999999 L27.75 -10.97999999999999 L40.125 -16.22999999999999 Q43.125 -13.22999999999999 46.25 -11.47999999999999 Q49.375 -9.72999999999999 53.375 -8.72999999999999 L55.0 4.77000000000001 Z"/></g><g id="Bold-S" transform="matrix(1 0 0 1 2294.23 696)"><path d="M33.33525 7.573250000000013  31.658625 -5.938374999999986 Q31.461375 -6.234249999999989 30.918937500000002 -6.5301249999999875 Q30.3765 -6.825999999999986 29.982000000000003 -6.924624999999988 L17.456625000000003 -1.5988749999999872 L3.35325 -26.156499999999987 L14.004750000000001 -34.24374999999999 Q14.103375 -34.44099999999999 14.103375 -34.73687499999999 Q14.103375 -35.032749999999986 14.103375 -35.22999999999999 Q14.103375 -35.42724999999999 14.103375 -35.72312499999999 Q14.103375 -36.01899999999999 14.004750000000001 -36.21624999999999 L3.35325 -44.303499999999985 L17.456625000000003 -68.66387499999999 L30.17925 -63.43674999999999 Q30.57375 -63.53537499999999 30.96825 -63.781937499999984 Q31.362750000000002 -64.0285 31.658625 -64.32437499999999 L33.33525 -78.03325 H61.344750000000005 L63.021375000000006 -64.32437499999999 Q63.218625 -64.0285 63.7610625 -63.781937499999984 Q64.3035 -63.53537499999999 64.69800000000001 -63.43674999999999 L77.223375 -68.66387499999999 L91.32675 -44.303499999999985 L80.67525 -36.21624999999999 Q80.576625 -36.01899999999999 80.576625 -35.72312499999999 Q80.576625 -35.42724999999999 80.576625 -35.22999999999999 Q80.576625 -35.032749999999986 80.52731250000001 -34.73687499999999 Q80.47800000000001 -34.44099999999999 80.67525 -34.24374999999999 L91.32675 -26.156499999999987 L77.12475 -1.5988749999999872 L64.50075 -6.924624999999988 Q64.10625 -6.825999999999986 63.71175 -6.5301249999999875 Q63.31725 -6.234249999999989 63.021375000000006 -5.938374999999986 L61.344750000000005 7.573250000000013 H33.33525 Z M47.044125 -21.12662499999999 Q52.863 -21.12662499999999 57.005250000000004 -25.268874999999987 Q61.1475 -29.41112499999999 61.1475 -35.22999999999999 Q61.1475 -41.04887499999999 57.005250000000004 -45.191124999999985 Q52.863 -49.33337499999999 47.044125 -49.33337499999999 Q41.323875 -49.33337499999999 37.132312500000005 -45.191124999999985 Q32.94075 -41.04887499999999 32.94075 -35.22999999999999 Q32.94075 -29.41112499999999 37.132312500000005 -25.268874999999987 Q41.323875 -21.12662499999999 47.044125 -21.12662499999999 Z M47.044125 -29.41112499999999 Q44.677125000000004 -29.41112499999999 42.9511875 -31.137062499999985 Q41.22525 -32.862999999999985 41.22525 -35.22999999999999 Q41.22525 -37.59699999999999 42.9511875 -39.32293749999999 Q44.677125000000004 -41.04887499999999 47.044125 -41.04887499999999 Q49.411125000000006 -41.04887499999999 51.1370625 -39.32293749999999 Q52.863 -37.59699999999999 52.863 -35.22999999999999 Q52.863 -32.862999999999985 51.1370625 -31.137062499999985 Q49.411125000000006 -29.41112499999999 47.044125 -29.41112499999999 Z M44.479875 -5.247999999999987 H50.1015 L51.383625 -15.307749999999988 Q54.342375000000004 -16.096749999999986 57.2518125 -17.724062499999988 Q60.16125 -19.351374999999987 62.331 -21.915624999999984 L71.799 -17.87199999999999 L74.5605 -22.605999999999987 L66.47325000000001 -28.819374999999987 Q66.966375 -30.39737499999999 67.26225000000001 -31.975374999999985 Q67.558125 -33.55337499999999 67.558125 -35.22999999999999 Q67.558125 -36.70937499999999 67.26225000000001 -38.23806249999999 Q66.966375 -39.76674999999999 66.571875 -41.54199999999999 L74.856375 -47.85399999999999 L71.897625 -52.587999999999994 L62.52825 -48.44574999999999 Q60.259875 -51.00999999999999 57.399750000000004 -52.68662499999999 Q54.539625 -54.363249999999994 51.48225 -55.05362499999998 L50.200125 -65.21199999999999 H44.38125 L43.296375000000005 -55.152249999999995 Q40.140375 -54.46187499999999 37.2309375 -52.78524999999999 Q34.3215 -51.10862499999999 32.053125 -48.54437499999999 L22.782375000000002 -52.587999999999994 L19.922250000000002 -47.85399999999999 L27.812250000000002 -41.73924999999999 Q27.41775 -39.96399999999999 27.121875000000003 -38.33668749999999 Q26.826 -36.70937499999999 26.826 -35.22999999999999 Q26.826 -33.750624999999985 27.121875000000003 -32.12331249999999 Q27.41775 -30.495999999999988 27.812250000000002 -28.72074999999999 L19.922250000000002 -22.605999999999987 L22.782375000000002 -17.87199999999999 L32.053125 -21.816999999999986 Q34.3215 -19.44999999999999 37.28025 -17.773374999999987 Q40.239000000000004 -16.096749999999986 43.296375000000005 -15.307749999999988 L44.479875 -5.247999999999987 Z"/></g><g id="Semibold-S" transform="matrix(1 0 0 1 1998.1 696)"><path d="M34.578714000000005 6.115375250000014  32.987794125 -6.924526374999985 Q32.447526375 -7.349106999999986 31.626374625 -7.816490874999989 Q30.8053215 -8.283874749999988 30.153508875 -8.59681187499999 L18.056955375 -3.4854726249999857 L5.239847625 -25.72767849999999 L15.548329875000002 -33.55771449999999 Q15.604053000000002 -33.92647337499999 15.604053000000002 -34.39385724999999 Q15.604053000000002 -34.86124112499999 15.604053000000002 -35.22999999999999 Q15.604053000000002 -35.59875887499999 15.604053000000002 -36.06614274999999 Q15.604053000000002 -36.533526624999986 15.548329875000002 -36.90228549999999 L5.239847625 -44.73232149999998 L18.056955375 -66.86298249999999 L30.265053750000003 -61.80736637499999 Q30.91676775 -62.120402125 31.654285500000004 -62.55987512499999 Q32.39180325 -62.99944674999999 32.987794125 -63.42392874999999 L34.578714000000005 -76.57537525 H60.10128600000001 L61.692205875000006 -63.42392874999999 Q62.232473625 -62.99944674999999 63.053625375 -62.55987512499999 Q63.87467850000001 -62.120402125 64.52649112499999 -61.80736637499999 L76.623044625 -66.86298249999999 L89.440152375 -44.73232149999998 L79.174572 -36.90228549999999 Q79.11875025 -36.533526624999986 79.11875025 -36.06614274999999 Q79.11875025 -35.59875887499999 79.11875025 -35.22999999999999 Q79.11875025 -34.86124112499999 79.09093800000001 -34.39385724999999 Q79.063027125 -33.92647337499999 79.174572 -33.55771449999999 L89.440152375 -25.72767849999999 L76.5673215 -3.4854726249999857 L64.41494625 -8.59681187499999 Q63.76323225000001 -8.283874749999988 63.0257145 -7.816490874999989 Q62.288196750000004 -7.349106999999986 61.692205875000006 -6.924526374999985 L60.10128600000001 6.115375250000014 H34.578714000000005 Z M47.172731999999996 -21.12662499999999 Q52.991607 -21.12662499999999 57.133857 -25.268874999999987 Q61.276107 -29.41112499999999 61.276107 -35.22999999999999 Q61.276107 -41.04887499999999 57.133857 -45.191124999999985 Q52.991607 -49.33337499999999 47.172731999999996 -49.33337499999999 Q41.409678750000005 -49.33337499999999 37.239517875 -45.191124999999985 Q33.069357 -41.04887499999999 33.069357 -35.22999999999999 Q33.069357 -29.41112499999999 37.239517875 -25.268874999999987 Q41.409678750000005 -21.12662499999999 47.172731999999996 -21.12662499999999 Z M47.172731999999996 -29.41112499999999 Q44.805732 -29.41112499999999 43.0797945 -31.137062499999985 Q41.353857 -32.862999999999985 41.353857 -35.22999999999999 Q41.353857 -37.59699999999999 43.0797945 -39.32293749999999 Q44.805732 -41.04887499999999 47.172731999999996 -41.04887499999999 Q49.539732 -41.04887499999999 51.2656695 -39.32293749999999 Q52.991607 -37.59699999999999 52.991607 -35.22999999999999 Q52.991607 -32.862999999999985 51.2656695 -31.137062499999985 Q49.539732 -29.41112499999999 47.172731999999996 -29.41112499999999 Z M44.00825025 -4.733473374999985 H50.616026625 L51.855249750000006 -14.878928499999986 Q54.771196499999995 -15.667928499999988 57.573428625 -17.273839374999987 Q60.37566075 -18.87975024999999 62.54541075 -21.272491374999987 L72.056312625 -17.228866374999985 L75.33233925 -22.734606999999983 L67.116383625 -29.033785749999986 Q67.609508625 -30.525981999999985 67.86258037500001 -32.06117874999999 Q68.1155535 -33.59627687499999 68.1155535 -35.22999999999999 Q68.1155535 -36.66647312499999 67.86258037500001 -38.15225874999999 Q67.609508625 -39.63814299999999 67.215008625 -41.32758924999999 L75.5424105 -47.72539299999999 L72.154937625 -53.231133624999984 L62.69975887500001 -49.08888362499999 Q60.43138387500001 -51.524526624999986 57.678464250000005 -53.136848125 Q54.925544625 -54.74916962499999 51.953874750000004 -55.48244649999998 L50.671749750000004 -65.72652662499999 H43.9524285 L42.781848375 -55.538169624999995 Q39.754455375 -54.80489274999998 36.973624875000006 -53.192571249999986 Q34.192893000000005 -51.58024974999999 31.96732125 -49.187508624999985 L22.56796425 -53.231133624999984 L19.236214500000003 -47.72539299999999 L27.297723375000004 -41.48193737499999 Q26.903223375000003 -39.792491124999984 26.650250250000003 -38.22948212499999 Q26.3971785 -36.66647312499999 26.3971785 -35.22999999999999 Q26.3971785 -33.79352687499999 26.650250250000003 -32.251919499999985 Q26.903223375000003 -30.710410749999987 27.297723375000004 -29.02086587499999 L19.236214500000003 -22.734606999999983 L22.56796425 -17.228866374999985 L31.96732125 -21.216669624999987 Q34.192893000000005 -18.93547337499999 37.00153575 -17.323151874999986 Q39.8101785 -15.710830374999986 42.781848375 -14.921830374999985 L44.00825025 -4.733473374999985 Z"/></g><g id="Medium-S" transform="matrix(1 0 0 1 1701.85 696)"><path d="M35.511410625 5.021919875000013  33.984892875 -7.664312499999987 Q33.187312500000004 -8.18524974999999 32.15707575 -8.781339249999988 Q31.126937625 -9.377330124999986 30.282115875000002 -9.85122324999999 L18.5071785 -4.900642749999989 L6.65501775 -25.40606237499999 L16.706187375 -33.04308924999999 Q16.729758750000002 -33.54055374999999 16.729758750000002 -34.13654462499999 Q16.729758750000002 -34.73263412499999 16.729758750000002 -35.22999999999999 Q16.729758750000002 -35.72736587499999 16.729758750000002 -36.32345537499999 Q16.729758750000002 -36.919446249999986 16.706187375 -37.416910749999985 L6.65501775 -45.05393762499999 L18.5071785 -65.51221449999998 L30.32935725 -60.58520537499999 Q31.174080375 -61.058999874999984 32.16891075 -61.643254375 Q33.163741125 -62.227508875 33.984892875 -62.74854474999999 L35.511410625 -75.48191987499999 H59.168589374999996 L60.69510712500001 -62.74854474999999 Q61.4926875 -62.227508875 62.52292425 -61.643254375 Q63.553062374999996 -61.058999874999984 64.397884125 -60.58520537499999 L76.1728215 -65.51221449999998 L88.02498225000001 -45.05393762499999 L78.04886625 -37.416910749999985 Q78.025294875 -36.919446249999986 78.025294875 -36.32345537499999 Q78.025294875 -35.72736587499999 78.025294875 -35.22999999999999 Q78.025294875 -34.73263412499999 78.013459875 -34.13654462499999 Q78.001624875 -33.54055374999999 78.04886625 -33.04308924999999 L88.02498225000001 -25.40606237499999 L76.14925012500001 -4.900642749999989 L64.35064274999999 -9.85122324999999 Q63.505919625000004 -9.377330124999986 62.511089250000005 -8.781339249999988 Q61.516258875000005 -8.18524974999999 60.69510712500001 -7.664312499999987 L59.168589374999996 5.021919875000013 H35.511410625 Z M47.269285875 -21.12662499999999 Q53.08816087500001 -21.12662499999999 57.230410875000004 -25.268874999999987 Q61.372660875 -29.41112499999999 61.372660875 -35.22999999999999 Q61.372660875 -41.04887499999999 57.230410875000004 -45.191124999999985 Q53.08816087500001 -49.33337499999999 47.269285875 -49.33337499999999 Q41.47398225 -49.33337499999999 37.31989725 -45.191124999999985 Q33.165910875 -41.04887499999999 33.165910875 -35.22999999999999 Q33.165910875 -29.41112499999999 37.31989725 -25.268874999999987 Q41.47398225 -21.12662499999999 47.269285875 -21.12662499999999 Z M47.269285875 -29.41112499999999 Q44.902285875000004 -29.41112499999999 43.176348375 -31.137062499999985 Q41.450410875 -32.862999999999985 41.450410875 -35.22999999999999 Q41.450410875 -37.59699999999999 43.176348375 -39.32293749999999 Q44.902285875000004 -41.04887499999999 47.269285875 -41.04887499999999 Q49.636285875000006 -41.04887499999999 51.362223375000006 -39.32293749999999 Q53.08816087500001 -37.59699999999999 53.08816087500001 -35.22999999999999 Q53.08816087500001 -32.862999999999985 51.362223375000006 -31.137062499999985 Q49.636285875000006 -29.41112499999999 47.269285875 -29.41112499999999 Z M43.65438375 -4.347553749999989 H51.00194625 L52.20911625 -14.557312374999988 Q55.09281262500001 -15.34631237499999 57.814566750000004 -16.93614737499999 Q60.5364195 -18.525883749999988 62.7061695 -20.79001787499999 L72.24922312500001 -16.746392874999987 L75.911268 -22.831160874999988 L67.59885712500001 -29.194544499999985 Q68.091982125 -30.62253587499999 68.3128035 -32.12548224999999 Q68.533624875 -33.62842862499999 68.533624875 -35.22999999999999 Q68.533624875 -36.634321374999985 68.3128035 -38.087955249999986 Q68.091982125 -39.54158912499999 67.69748212500001 -41.16683049999999 L76.05703575 -47.628839124999985 L72.34784812500001 -53.713607124999996 L62.828365875 -49.57135712499999 Q60.559990875000004 -51.91044624999999 57.887549250000006 -53.47454012499999 Q55.215008999999995 -55.03863399999999 52.30774125 -55.804062624999986 L51.025616250000006 -66.11244624999999 H43.630812375000005 L42.39592875 -55.82763399999999 Q39.464991 -55.06220537499999 36.780714375 -53.49811149999998 Q34.096339125 -51.93411624999999 31.903017750000004 -49.66998212499999 L22.4072055 -53.713607124999996 L18.72158925 -47.628839124999985 L26.91180375 -41.28902687499998 Q26.51730375 -39.66388412499999 26.29638375 -38.14910274999999 Q26.075562375000004 -36.634321374999985 26.075562375000004 -35.22999999999999 Q26.075562375000004 -33.82567862499999 26.29638375 -32.34847337499999 Q26.51730375 -30.871169499999986 26.91180375 -29.24602674999999 L18.72158925 -22.831160874999988 L22.4072055 -16.746392874999987 L31.903017750000004 -20.766446499999986 Q34.096339125 -18.549553749999987 36.79245075 -16.98545987499999 Q39.488562375 -15.421365999999985 42.39592875 -14.632365999999987 L43.65438375 -4.347553749999989 Z"/></g><g id="Regular-S" transform="matrix(1 0 0 1 1405.73 696)"><path d="M36.195375 4.220000000000013  34.716 -8.206749999999989 Q33.72975 -8.798499999999986 32.54625 -9.488874999999986 Q31.362750000000002 -10.179249999999989 30.3765 -10.770999999999987 L18.837375 -5.938374999999986 L7.69275 -25.17024999999999 L17.55525 -32.66574999999999 Q17.55525 -33.257499999999986 17.55525 -33.94787499999999 Q17.55525 -34.638249999999985 17.55525 -35.22999999999999 Q17.55525 -35.82174999999999 17.55525 -36.51212499999999 Q17.55525 -37.202499999999986 17.55525 -37.79424999999999 L7.69275 -45.28974999999999 L18.837375 -64.52162499999999 L30.3765 -59.68899999999999 Q31.362750000000002 -60.28074999999998 32.54625 -60.97112499999999 Q33.72975 -61.66149999999999 34.716 -62.253249999999994 L36.195375 -74.67999999999999 H58.484625 L59.964000000000006 -62.253249999999994 Q60.950250000000004 -61.66149999999999 62.133750000000006 -60.97112499999999 Q63.31725 -60.28074999999998 64.3035 -59.68899999999999 L75.842625 -64.52162499999999 L86.98725 -45.28974999999999 L77.223375 -37.79424999999999 Q77.223375 -37.202499999999986 77.223375 -36.51212499999999 Q77.223375 -35.82174999999999 77.223375 -35.22999999999999 Q77.223375 -34.638249999999985 77.223375 -33.94787499999999 Q77.223375 -33.257499999999986 77.223375 -32.66574999999999 L86.98725 -25.17024999999999 L75.842625 -5.938374999999986 L64.3035 -10.770999999999987 Q63.31725 -10.179249999999989 62.133750000000006 -9.488874999999986 Q60.950250000000004 -8.798499999999986 59.964000000000006 -8.206749999999989 L58.484625 4.220000000000013 H36.195375 Z M47.34 -21.12662499999999 Q53.158875 -21.12662499999999 57.301125 -25.268874999999987 Q61.443375 -29.41112499999999 61.443375 -35.22999999999999 Q61.443375 -41.04887499999999 57.301125 -45.191124999999985 Q53.158875 -49.33337499999999 47.34 -49.33337499999999 Q41.521125000000005 -49.33337499999999 37.378875 -45.191124999999985 Q33.236625000000004 -41.04887499999999 33.236625000000004 -35.22999999999999 Q33.236625000000004 -29.41112499999999 37.378875 -25.268874999999987 Q41.521125000000005 -21.12662499999999 47.34 -21.12662499999999 Z M47.34 -29.41112499999999 Q44.973 -29.41112499999999 43.2470625 -31.137062499999985 Q41.521125000000005 -32.862999999999985 41.521125000000005 -35.22999999999999 Q41.521125000000005 -37.59699999999999 43.2470625 -39.32293749999999 Q44.973 -41.04887499999999 47.34 -41.04887499999999 Q49.707 -41.04887499999999 51.4329375 -39.32293749999999 Q53.158875 -37.59699999999999 53.158875 -35.22999999999999 Q53.158875 -32.862999999999985 51.4329375 -31.137062499999985 Q49.707 -29.41112499999999 47.34 -29.41112499999999 Z M43.395 -4.064499999999988 H51.285000000000004 L52.4685 -14.321499999999986 Q55.328625 -15.110499999999988 57.9915 -16.688499999999987 Q60.654375 -18.266499999999986 62.824125 -20.436249999999987 L72.39075 -16.39262499999999 L76.33575 -22.90187499999999 L67.952625 -29.312499999999986 Q68.44575 -30.693249999999985 68.643 -32.17262499999999 Q68.84025 -33.65199999999999 68.84025 -35.22999999999999 Q68.84025 -36.61074999999999 68.643 -38.04081249999999 Q68.44575 -39.470874999999985 68.05125 -41.04887499999999 L76.434375 -47.55812499999999 L72.48937500000001 -54.067374999999984 L62.92275 -49.92512499999999 Q60.654375 -52.193499999999986 58.0408125 -53.72218749999999 Q55.42725 -55.25087499999999 52.567125000000004 -56.039874999999995 L51.285000000000004 -66.39549999999998 H43.395 L42.112875 -56.039874999999995 Q39.25275 -55.25087499999999 36.6391875 -53.72218749999999 Q34.025625 -52.193499999999986 31.855875 -50.02374999999999 L22.289250000000003 -54.067374999999984 L18.344250000000002 -47.55812499999999 L26.62875 -41.14749999999999 Q26.23425 -39.56949999999999 26.037000000000003 -38.090124999999986 Q25.839750000000002 -36.61074999999999 25.839750000000002 -35.22999999999999 Q25.839750000000002 -33.84924999999999 26.037000000000003 -32.419187499999985 Q26.23425 -30.989124999999987 26.62875 -29.41112499999999 L18.344250000000002 -22.90187499999999 L22.289250000000003 -16.39262499999999 L31.855875 -20.436249999999987 Q34.025625 -18.266499999999986 36.6391875 -16.737812499999986 Q39.25275 -15.209124999999986 42.112875 -14.420124999999988 L43.395 -4.064499999999988 Z"/></g><g id="Light-S" transform="matrix(1 0 0 1 1109.75 696)"><path d="M37.94044575 2.2474013750000132  36.536913375000005 -9.57241037499999 Q35.24719425000001 -10.202130999999987 33.532598625 -11.158004499999986 Q31.818003 -12.113976624999985 30.6041265 -13.009195749999986 L19.67193975 -8.404197249999989 L10.2723855 -24.67712499999999 L19.603789875 -31.75534262499999 Q19.56581925 -32.53674849999999 19.508912625 -33.47368599999999 Q19.452006 -34.410623499999986 19.452006 -35.19202937499999 Q19.452006 -35.93556324999999 19.508912625 -36.85356474999999 Q19.56581925 -37.771566249999985 19.603789875 -38.70465737499999 L10.2723855 -45.78287499999999 L19.67193975 -61.97996012499999 L30.566155875 -57.41283362499999 Q31.893845625 -58.34602337499999 33.513564 -59.282960874999986 Q35.13338100000001 -60.21999699999999 36.49894275 -60.88758962499999 L37.94044575 -72.70740137499999 H56.739554250000005 L58.14308662500001 -60.84961899999999 Q59.62246162500001 -60.106183749999985 61.109529375 -59.24508887499999 Q62.5964985 -58.38399399999999 63.96206025 -57.41283362499999 L75.00806025 -61.97996012499999 L84.40761450000001 -45.78287499999999 L75.023149875 -38.59094274999999 Q75.13696312500001 -37.733595624999985 75.155899125 -36.85356474999999 Q75.174835125 -35.97353387499999 75.174835125 -35.22999999999999 Q75.174835125 -34.524436749999985 75.13696312500001 -33.64440587499999 Q75.09899250000001 -32.76437499999999 75.06102187500001 -31.79321462499999 L84.3697425 -24.67712499999999 L74.970089625 -8.404197249999989 L63.96206025 -13.047166374999989 Q62.5964985 -12.076005999999989 61.07155875 -11.177039124999986 Q59.54661900000001 -10.277973624999987 58.14308662500001 -9.610380999999986 L56.739554250000005 2.2474013750000132 H37.94044575 Z M47.188216125000004 -23.099223624999986 Q52.210497000000004 -23.099223624999986 55.764744750000006 -26.653471374999988 Q59.31899250000001 -30.207817749999982 59.31899250000001 -35.22999999999999 Q59.31899250000001 -40.25218224999999 55.764744750000006 -43.80652862499999 Q52.210497000000004 -47.36077637499999 47.188216125000004 -47.36077637499999 Q42.204004499999996 -47.36077637499999 38.630722125 -43.80652862499999 Q35.05753837500001 -40.25218224999999 35.05753837500001 -35.22999999999999 Q35.05753837500001 -30.207817749999982 38.630722125 -26.653471374999988 Q42.204004499999996 -23.099223624999986 47.188216125000004 -23.099223624999986 Z M47.188216125000004 -29.41112499999999 Q44.82121612500001 -29.41112499999999 43.095278625000006 -31.137062499999985 Q41.369341125000005 -32.862999999999985 41.369341125000005 -35.22999999999999 Q41.369341125000005 -37.59699999999999 43.095278625000006 -39.32293749999999 Q44.82121612500001 -41.04887499999999 47.188216125000004 -41.04887499999999 Q49.555216125 -41.04887499999999 51.281153625 -39.32293749999999 Q53.007091125 -37.59699999999999 53.007091125 -35.22999999999999 Q53.007091125 -32.862999999999985 51.281153625 -31.137062499999985 Q49.555216125 -29.41112499999999 47.188216125000004 -29.41112499999999 Z M43.395 -4.064499999999988 H51.247029375000004 L52.4685 -14.435313249999986 Q55.290654375 -15.224313249999987 57.839716125 -16.726470624999987 Q60.388777875 -18.22852937499999 62.71031175 -20.512092624999987 L72.314907375 -16.39262499999999 L76.297779375 -22.90187499999999 L67.83881175 -29.350470624999986 Q68.33193675 -30.88290587499999 68.51025075 -32.305374249999986 Q68.688466125 -33.72784262499999 68.688466125 -35.22999999999999 Q68.688466125 -36.57277937499999 68.51025075 -37.90806324999999 Q68.33193675 -39.24324849999999 67.93743675 -40.93506174999999 L76.472345625 -47.55812499999999 L72.48937500000001 -54.067374999999984 L62.770966125 -49.88715437499999 Q60.692345625 -52.003844124999986 57.92699925 -53.627310249999994 Q55.161652875 -55.25087499999999 52.529154375000005 -55.92606174999999 L51.285000000000004 -66.39549999999998 H43.357029375 L42.150845625 -55.96403237499999 Q39.328592625 -55.25087499999999 36.77193675 -53.779094124999986 Q34.215280875000005 -52.30731324999999 31.893845625 -49.98577937499999 L22.289250000000003 -54.067374999999984 L18.306279375000003 -47.55812499999999 L26.62875 -41.10952937499999 Q26.23425 -39.60747062499999 26.037000000000003 -38.090124999999986 Q25.839750000000002 -36.57277937499999 25.839750000000002 -35.19202937499999 Q25.839750000000002 -33.84924999999999 26.037000000000003 -32.419187499999985 Q26.23425 -30.989124999999987 26.590779375 -29.449095624999984 L18.306279375000003 -22.90187499999999 L22.289250000000003 -16.39262499999999 L31.855875 -20.436249999999987 Q34.101467625000005 -18.22852937499999 36.6581235 -16.75674849999999 Q39.214779375 -15.28496762499999 42.112875 -14.495967624999988 L43.395 -4.064499999999988 Z"/></g><g id="Thin-S" transform="matrix(1 0 0 1 814.015 696)"><path d="M39.685122 0.2750000000000128  38.357530875 -10.937873499999988 Q36.764342625000005 -11.605466124999989 34.518750000000004 -12.826936749999987 Q32.273157375000004 -14.048407374999986 30.831654375000003 -15.24699699999999 L20.506405875000002 -10.869624999999989 L12.851527874999999 -24.18399999999999 L21.65193525 -30.845033874999984 Q21.576092625 -31.81609562499999 21.462279375 -32.99959562499999 Q21.348466125 -34.183095624999986 21.348466125 -35.15415737499999 Q21.348466125 -36.04937649999999 21.462279375 -37.19490587499999 Q21.576092625 -38.34043524999999 21.65193525 -39.61496612499999 L12.851527874999999 -46.27599999999999 L20.506405875000002 -59.438689749999995 L30.755811750000003 -55.13706174999999 Q32.424842625000004 -56.41159262499998 34.480779375000004 -57.59509262499999 Q36.536716125000005 -58.77859262499999 38.28168825 -59.522126499999985 L39.685122 -70.73499999999999 H54.994878 L56.322469125000005 -59.44628387499999 Q58.294969125 -58.551064749999995 60.085407375 -57.519249999999985 Q61.875845625000004 -56.48753387499998 63.620719125 -55.13706174999999 L74.17359412500001 -59.438689749999995 L81.828472125 -46.27599999999999 L72.823220625 -39.38743824999999 Q73.050847125 -38.26459262499999 73.088719125 -37.19490587499999 Q73.12668975 -36.12521912499999 73.12668975 -35.22999999999999 Q73.12668975 -34.410623499999986 73.050847125 -33.34093674999999 Q72.974905875 -32.27124999999999 72.89906325 -30.920876499999984 L81.752530875 -24.18399999999999 L74.0977515 -10.869624999999989 L63.620719125 -15.322938249999986 Q61.875845625000004 -13.97246612499999 60.00956475 -12.864907374999987 Q58.143283875 -11.757249999999988 56.322469125000005 -11.013716124999988 L54.994878 0.2750000000000128 H39.685122 Z M47.036530875000004 -25.07162499999999 Q51.262217625000005 -25.07162499999999 54.228561750000004 -28.03796912499999 Q57.194905875 -31.00431324999999 57.194905875 -35.22999999999999 Q57.194905875 -39.45568674999999 54.228561750000004 -42.42203087499999 Q51.262217625000005 -45.38837499999999 47.036530875000004 -45.38837499999999 Q42.88668675 -45.38837499999999 39.882372000000004 -42.42203087499999 Q36.878155875000004 -39.45568674999999 36.878155875000004 -35.22999999999999 Q36.878155875000004 -31.00431324999999 39.882372000000004 -28.03796912499999 Q42.88668675 -25.07162499999999 47.036530875000004 -25.07162499999999 Z M47.036530875000004 -29.41112499999999 Q44.669530875 -29.41112499999999 42.943593375 -31.137062499999985 Q41.217655875000005 -32.862999999999985 41.217655875000005 -35.22999999999999 Q41.217655875000005 -37.59699999999999 42.943593375 -39.32293749999999 Q44.669530875 -41.04887499999999 47.036530875000004 -41.04887499999999 Q49.403530875 -41.04887499999999 51.129468375 -39.32293749999999 Q52.855405875 -37.59699999999999 52.855405875 -35.22999999999999 Q52.855405875 -32.862999999999985 51.129468375 -31.137062499999985 Q49.403530875 -29.41112499999999 47.036530875000004 -29.41112499999999 Z M43.395 -4.064499999999988 H51.209157375000004 L52.4685 -14.549126499999986 Q55.252782375 -15.338126499999987 57.688030875 -16.764342624999987 Q60.123279375 -18.190657374999986 62.5964985 -20.587935249999987 L72.23906475 -16.39262499999999 L76.259907375 -22.90187499999999 L67.7249985 -29.388342624999986 Q68.2181235 -31.07256174999999 68.37750150000001 -32.43812349999999 Q68.536780875 -33.80368524999999 68.536780875 -35.22999999999999 Q68.536780875 -36.53490737499999 68.37750150000001 -37.77531399999999 Q68.2181235 -39.015720624999986 67.82362350000001 -40.82124849999999 L76.51021762500001 -47.55812499999999 L72.48937500000001 -54.067374999999984 L62.619280875 -49.84928237499999 Q60.730217625 -51.81418824999999 57.813186 -53.53253162499999 Q54.896154375 -55.25087499999999 52.491282375000004 -55.812248499999995 L51.285000000000004 -66.39549999999998 H43.319157375 L42.188717625 -55.888189749999995 Q39.404435250000006 -55.25087499999999 36.904686000000005 -53.83600074999998 Q34.404936750000005 -52.421126499999986 31.931717625 -49.947907374999986 L22.289250000000003 -54.067374999999984 L18.268407375 -47.55812499999999 L26.62875 -41.07165737499999 Q26.23425 -39.64534262499999 26.037000000000003 -38.090124999999986 Q25.839750000000002 -36.53490737499999 25.839750000000002 -35.15415737499999 Q25.839750000000002 -33.84924999999999 26.037000000000003 -32.419187499999985 Q26.23425 -30.989124999999987 26.552907375 -29.48696762499999 L18.268407375 -22.90187499999999 L22.289250000000003 -16.39262499999999 L31.855875 -20.436249999999987 Q34.177310250000005 -18.190657374999986 36.677158125 -16.775783124999986 Q39.176907375 -15.36081024999999 42.112875 -14.571810249999988 L43.395 -4.064499999999988 Z"/></g><g id="Ultralight-S" transform="matrix(1 0 0 1 517.792 696)"><path d="M40.732125 -0.9084999999999877  39.45 -11.757249999999988 Q37.67475 -12.447624999999988 35.1105 -13.828374999999987 Q32.54625 -15.209124999999986 30.96825 -16.58987499999999 L21.007125000000002 -12.348999999999986 L14.39925 -23.888124999999988 L22.881 -30.29874999999999 Q22.782375000000002 -31.383624999999988 22.6344375 -32.71506249999999 Q22.4865 -34.04649999999999 22.4865 -35.13137499999999 Q22.4865 -36.11762499999999 22.6344375 -37.39974999999999 Q22.782375000000002 -38.68187499999999 22.881 -40.16124999999999 L14.39925 -46.57187499999999 L21.007125000000002 -57.91374999999999 L30.869625000000003 -53.77149999999999 Q32.743500000000004 -55.25087499999999 35.0611875 -56.582312499999986 Q37.378875 -57.91374999999999 39.351375000000004 -58.702749999999995 L40.732125 -69.55149999999999 H53.947875 L55.230000000000004 -58.604124999999996 Q57.498375 -57.617874999999984 59.470875 -56.48368749999999 Q61.443375 -55.34949999999999 63.415875 -53.77149999999999 L73.672875 -57.91374999999999 L80.28075 -46.57187499999999 L71.503125 -39.865374999999986 Q71.799 -38.583249999999985 71.8483125 -37.39974999999999 Q71.897625 -36.21624999999999 71.897625 -35.22999999999999 Q71.897625 -34.34237499999999 71.799 -33.15887499999999 Q71.70037500000001 -31.975374999999985 71.60175000000001 -30.39737499999999 L80.182125 -23.888124999999988 L73.57425 -12.348999999999986 L63.415875 -16.688499999999987 Q61.443375 -15.110499999999988 59.37225 -13.877687499999986 Q57.301125 -12.644874999999988 55.230000000000004 -11.855874999999987 L53.947875 -0.9084999999999877 H40.732125 Z M46.9455 -26.255124999999985 Q50.69325 -26.255124999999985 53.3068125 -28.868687499999986 Q55.920375 -31.482249999999986 55.920375 -35.22999999999999 Q55.920375 -38.977749999999986 53.3068125 -41.59131249999999 Q50.69325 -44.20487499999999 46.9455 -44.20487499999999 Q43.296375000000005 -44.20487499999999 40.633500000000005 -41.59131249999999 Q37.970625 -38.977749999999986 37.970625 -35.22999999999999 Q37.970625 -31.482249999999986 40.633500000000005 -28.868687499999986 Q43.296375000000005 -26.255124999999985 46.9455 -26.255124999999985 Z M46.9455 -29.41112499999999 Q44.578500000000005 -29.41112499999999 42.852562500000005 -31.137062499999985 Q41.126625000000004 -32.862999999999985 41.126625000000004 -35.22999999999999 Q41.126625000000004 -37.59699999999999 42.852562500000005 -39.32293749999999 Q44.578500000000005 -41.04887499999999 46.9455 -41.04887499999999 Q49.3125 -41.04887499999999 51.0384375 -39.32293749999999 Q52.764375 -37.59699999999999 52.764375 -35.22999999999999 Q52.764375 -32.862999999999985 51.0384375 -31.137062499999985 Q49.3125 -29.41112499999999 46.9455 -29.41112499999999 Z M43.395 -4.064499999999988 H51.186375000000005 L52.4685 -14.617374999999988 Q55.230000000000004 -15.406374999999986 57.597 -16.78712499999999 Q59.964000000000006 -18.167874999999988 62.52825 -20.63349999999999 L72.1935 -16.39262499999999 L76.237125 -22.90187499999999 L67.65675 -29.41112499999999 Q68.14987500000001 -31.18637499999999 68.2978125 -32.51781249999999 Q68.44575 -33.84924999999999 68.44575 -35.22999999999999 Q68.44575 -36.51212499999999 68.2978125 -37.695624999999986 Q68.14987500000001 -38.87912499999999 67.755375 -40.752999999999986 L76.533 -47.55812499999999 L72.48937500000001 -54.067374999999984 L62.52825 -49.82649999999999 Q60.753 -51.70037499999999 57.744937500000006 -53.475624999999994 Q54.736875000000005 -55.25087499999999 52.4685 -55.743999999999986 L51.285000000000004 -66.39549999999998 H43.296375000000005 L42.2115 -55.842624999999984 Q39.45 -55.25087499999999 36.984375 -53.87012499999999 Q34.518750000000004 -52.489374999999995 31.954500000000003 -49.92512499999999 L22.289250000000003 -54.067374999999984 L18.245625 -47.55812499999999 L26.62875 -41.04887499999999 Q26.23425 -39.66812499999999 26.037000000000003 -38.090124999999986 Q25.839750000000002 -36.51212499999999 25.839750000000002 -35.13137499999999 Q25.839750000000002 -33.84924999999999 26.037000000000003 -32.419187499999985 Q26.23425 -30.989124999999987 26.530125 -29.50974999999999 L18.245625 -22.90187499999999 L22.289250000000003 -16.39262499999999 L31.855875 -20.436249999999987 Q34.222875 -18.167874999999988 36.688500000000005 -16.78712499999999 Q39.154125 -15.406374999999986 42.112875 -14.617374999999988 L43.395 -4.064499999999988 Z"/></g></g></svg>