<?xml version="1.0" encoding="UTF-8" standalone="no"?>
<!-- Created with Inkscape (http://www.inkscape.org/) -->

<svg
   width="76.926453mm"
   height="75.500183mm"
   viewBox="0 0 76.926453 75.500183"
   version="1.1"
   id="svg297"
   xml:space="preserve"
   inkscape:version="1.2.2 (b0a84865, 2022-12-01)"
   sodipodi:docname="Creature_Design_Parts.svg"
   xmlns:inkscape="http://www.inkscape.org/namespaces/inkscape"
   xmlns:sodipodi="http://sodipodi.sourceforge.net/DTD/sodipodi-0.dtd"
   xmlns="http://www.w3.org/2000/svg"
   xmlns:svg="http://www.w3.org/2000/svg"><sodipodi:namedview
     id="namedview299"
     pagecolor="#505050"
     bordercolor="#eeeeee"
     borderopacity="1"
     inkscape:showpageshadow="0"
     inkscape:pageopacity="0"
     inkscape:pagecheckerboard="0"
     inkscape:deskcolor="#505050"
     inkscape:document-units="mm"
     showgrid="false"
     inkscape:zoom="0.2287265"
     inkscape:cx="2061.4139"
     inkscape:cy="880.96482"
     inkscape:window-width="2516"
     inkscape:window-height="1295"
     inkscape:window-x="0"
     inkscape:window-y="25"
     inkscape:window-maximized="0"
     inkscape:current-layer="layer1" /><defs
     id="defs294" /><g
     inkscape:label="Layer 1"
     inkscape:groupmode="layer"
     id="layer1"
     transform="translate(-791.76412,-570.40166)"><g
       id="g44687"><path
         d="m 830.2275,645.90184 c 10.62128,0 20.23706,-2.27163 27.19752,-8.33482 6.96045,-6.06318 11.26558,-13.36146 11.26558,-22.61356 0,-18.5042 -17.02941,-44.55176 -38.272,-44.55176 -21.24258,0 -38.65448,26.04756 -38.65448,44.55176 0,9.2521 4.30541,16.55038 11.26586,22.61356 6.96045,6.06319 16.57623,8.33482 27.19752,8.33482 z"
         id="Oval-8-5-56-3-2-4"
         style="fill:#48a043;fill-rule:evenodd;stroke:none;stroke-width:0.107889" /><path
         d="m 830.22747,639.12844 c 8.51672,0 16.22714,-1.36827 21.80839,-5.02024 5.58126,-3.65202 9.03333,-8.04794 9.03333,-13.62074 0,-11.14552 -13.44369,-19.38597 -30.47712,-19.38597 -17.03343,0 -31.20653,8.24045 -31.20653,19.38597 0,5.5728 3.45227,9.96872 9.03356,13.62074 5.58122,3.65197 13.29168,5.02024 21.80837,5.02024 z"
         id="Oval-Copy-13-9-3-6-6-7"
         style="fill:#f9f381;fill-rule:evenodd;stroke:none;stroke-width:0.103067" /><circle
         style="fill:#000000;fill-opacity:1;stroke:none;stroke-width:1.25508;stroke-linecap:round;stroke-linejoin:round;stroke-dasharray:none;stroke-opacity:1"
         id="path44108-1-6-5-8-1-0"
         cx="627.19147"
         cy="-811.2937"
         r="4.2347479"
         transform="rotate(90)" /><ellipse
         style="fill:#f9f381;fill-opacity:1;stroke:none;stroke-width:1.22013;stroke-linecap:round;stroke-linejoin:round;stroke-dasharray:none;stroke-opacity:1"
         id="path44108-1-6-0-7-5-0-4"
         cx="628.33936"
         cy="-811.2937"
         rx="3.9415729"
         ry="4.2998977"
         transform="rotate(90)" /><circle
         style="fill:#000000;fill-opacity:1;stroke:none;stroke-width:1.25508;stroke-linecap:round;stroke-linejoin:round;stroke-dasharray:none;stroke-opacity:1"
         id="path44108-1-6-06-5-8-5"
         cx="627.71271"
         cy="-850.64429"
         r="4.2347479"
         transform="rotate(90)" /><ellipse
         style="fill:#f9f381;fill-opacity:1;stroke:none;stroke-width:1.22013;stroke-linecap:round;stroke-linejoin:round;stroke-dasharray:none;stroke-opacity:1"
         id="path44108-1-6-0-0-5-2-3"
         cx="628.86053"
         cy="-850.64429"
         rx="3.9415729"
         ry="4.2998977"
         transform="rotate(90)" /><g
         id="g44304-9-1-2"
         transform="matrix(2.5487849,0,0,2.5487849,-1385.1723,-664.47915)"><circle
           style="fill:#000000;fill-opacity:1;stroke:none;stroke-width:0.499999;stroke-linecap:round;stroke-linejoin:round;stroke-dasharray:none;stroke-opacity:1"
           id="path44298-1-6-9"
           cx="869.51849"
           cy="506.97131"
           r="0.86757547" /><path
           style="fill:none;fill-opacity:1;stroke:#000000;stroke-width:0.4;stroke-linecap:round;stroke-linejoin:round;stroke-dasharray:none;stroke-opacity:1"
           d="m 866.47291,507.7847 c 0.46035,1.19298 1.85519,2.71267 3.09073,0 0.9288,1.9279 2.25315,1.92799 3.00038,0"
           id="path44300-1-0-4"
           sodipodi:nodetypes="ccc" /></g></g></g></svg>
