<?xml version="1.0" encoding="UTF-8"?>
<svg width="162px" height="260px" viewBox="0 0 162 260" version="1.1" xmlns="http://www.w3.org/2000/svg" xmlns:xlink="http://www.w3.org/1999/xlink">
    <title>SE 40mm Copy 5@2x</title>
    <g id="SE-40mm-Copy-5" stroke="none" stroke-width="1" fill="none" fill-rule="evenodd">
        <rect fill="#000000" x="0" y="0" width="162" height="260"></rect>
        <path d="M42.1602639,32.6197488 L41.8786797,32.8383611 C41.7311853,32.9528707 41.5187891,32.9261312 41.4042795,32.7786369 C41.3095632,32.6566372 41.3095632,32.4859607 41.4042795,32.363961 L41.6228919,32.0823768 C42.463322,30.9998584 42.463322,29.485423 41.6228919,28.4029046 L41.4042795,28.1213203 C41.28977,27.973826 41.3165094,27.7614298 41.4640038,27.6469202 C41.5860035,27.5522039 41.75668,27.5522039 41.8786797,27.6469202 L42.1602639,27.8655325 C43.2427823,28.7059627 44.7572177,28.7059627 45.8397361,27.8655325 L46.1213203,27.6469202 C46.2688147,27.5324107 46.4812109,27.5591501 46.5957205,27.7066445 C46.6904368,27.8286441 46.6904368,27.9993207 46.5957205,28.1213203 L46.3771081,28.4029046 C45.536678,29.485423 45.536678,30.9998584 46.3771081,32.0823768 L46.5957205,32.363961 C46.71023,32.5114554 46.6834906,32.7238516 46.5359962,32.8383611 C46.4139965,32.9330775 46.24332,32.9330775 46.1213203,32.8383611 L45.8397361,32.6197488 C44.7572177,31.7793187 43.2427823,31.7793187 42.1602639,32.6197488 Z" id="Star-Copy-2" fill="#FF9F0A" transform="translate(44.000000, 30.242641) rotate(-315.000000) translate(-44.000000, -30.242641) "></path>
        <path d="M85.1602639,145.619749 L84.8786797,145.838361 C84.7311853,145.952871 84.5187891,145.926131 84.4042795,145.778637 C84.3095632,145.656637 84.3095632,145.485961 84.4042795,145.363961 L84.6228919,145.082377 C85.463322,143.999858 85.463322,142.485423 84.6228919,141.402905 L84.4042795,141.12132 C84.28977,140.973826 84.3165094,140.76143 84.4640038,140.64692 C84.5860035,140.552204 84.75668,140.552204 84.8786797,140.64692 L85.1602639,140.865533 C86.2427823,141.705963 87.7572177,141.705963 88.8397361,140.865533 L89.1213203,140.64692 C89.2688147,140.532411 89.4812109,140.55915 89.5957205,140.706645 C89.6904368,140.828644 89.6904368,140.999321 89.5957205,141.12132 L89.3771081,141.402905 C88.536678,142.485423 88.536678,143.999858 89.3771081,145.082377 L89.5957205,145.363961 C89.71023,145.511455 89.6834906,145.723852 89.5359962,145.838361 C89.4139965,145.933077 89.24332,145.933077 89.1213203,145.838361 L88.8397361,145.619749 C87.7572177,144.779319 86.2427823,144.779319 85.1602639,145.619749 Z" id="Star-Copy-5" fill="#FF9F0A" transform="translate(87.000000, 143.242641) rotate(-315.000000) translate(-87.000000, -143.242641) "></path>
        <path d="M22.4794833,69.8854352 L21.9947962,70.2787634 C21.8220986,70.418909 21.5684891,70.3925205 21.4283434,70.219823 C21.3083321,70.0719365 21.3083321,69.8601971 21.4283434,69.7123106 L21.8216716,69.2276235 C23.0137232,67.7586921 23.0137232,65.6555215 21.8216716,64.1865901 L21.4283434,63.701903 C21.2881978,63.5292054 21.3145863,63.2755959 21.4872838,63.1354502 C21.6351703,63.0154389 21.8469097,63.0154389 21.9947962,63.1354502 L22.4794833,63.5287783 C23.9484147,64.72083 26.0515853,64.72083 27.5205167,63.5287783 L28.0052038,63.1354502 C28.1779014,62.9953045 28.4315109,63.021693 28.5716566,63.1943906 C28.6916679,63.3422771 28.6916679,63.5540164 28.5716566,63.701903 L28.1783284,64.1865901 C26.9862768,65.6555215 26.9862768,67.7586921 28.1783284,69.2276235 L28.5716566,69.7123106 C28.7118022,69.8850081 28.6854137,70.1386177 28.5127162,70.2787634 C28.3648297,70.3987746 28.1530903,70.3987746 28.0052038,70.2787634 L27.5205167,69.8854352 C26.0515853,68.6933836 23.9484147,68.6933836 22.4794833,69.8854352 Z" id="Star" fill="#FF9F0A" transform="translate(25.000000, 66.707107) rotate(-315.000000) translate(-25.000000, -66.707107) "></path>
        <path d="M115.160264,18.6197488 L114.87868,18.8383611 C114.731185,18.9528707 114.518789,18.9261312 114.40428,18.7786369 C114.309563,18.6566372 114.309563,18.4859607 114.40428,18.363961 L114.622892,18.0823768 C115.463322,16.9998584 115.463322,15.485423 114.622892,14.4029046 L114.40428,14.1213203 C114.28977,13.973826 114.316509,13.7614298 114.464004,13.6469202 C114.586003,13.5522039 114.75668,13.5522039 114.87868,13.6469202 L115.160264,13.8655325 C116.242782,14.7059627 117.757218,14.7059627 118.839736,13.8655325 L119.12132,13.6469202 C119.268815,13.5324107 119.481211,13.5591501 119.59572,13.7066445 C119.690437,13.8286441 119.690437,13.9993207 119.59572,14.1213203 L119.377108,14.4029046 C118.536678,15.485423 118.536678,16.9998584 119.377108,18.0823768 L119.59572,18.363961 C119.71023,18.5114554 119.683491,18.7238516 119.535996,18.8383611 C119.413997,18.9330775 119.24332,18.9330775 119.12132,18.8383611 L118.839736,18.6197488 C117.757218,17.7793187 116.242782,17.7793187 115.160264,18.6197488 Z" id="Star-Copy" fill="#FF9F0A" transform="translate(117.000000, 16.242641) rotate(-315.000000) translate(-117.000000, -16.242641) "></path>
        <path d="M27.1602639,194.619749 L26.8786797,194.838361 C26.7311853,194.952871 26.5187891,194.926131 26.4042795,194.778637 C26.3095632,194.656637 26.3095632,194.485961 26.4042795,194.363961 L26.6228919,194.082377 C27.463322,192.999858 27.463322,191.485423 26.6228919,190.402905 L26.4042795,190.12132 C26.28977,189.973826 26.3165094,189.76143 26.4640038,189.64692 C26.5860035,189.552204 26.75668,189.552204 26.8786797,189.64692 L27.1602639,189.865533 C28.2427823,190.705963 29.7572177,190.705963 30.8397361,189.865533 L31.1213203,189.64692 C31.2688147,189.532411 31.4812109,189.55915 31.5957205,189.706645 C31.6904368,189.828644 31.6904368,189.999321 31.5957205,190.12132 L31.3771081,190.402905 C30.536678,191.485423 30.536678,192.999858 31.3771081,194.082377 L31.5957205,194.363961 C31.71023,194.511455 31.6834906,194.723852 31.5359962,194.838361 C31.4139965,194.933077 31.24332,194.933077 31.1213203,194.838361 L30.8397361,194.619749 C29.7572177,193.779319 28.2427823,193.779319 27.1602639,194.619749 Z" id="Star-Copy-4" fill="#FF9F0A" transform="translate(29.000000, 192.242641) rotate(-315.000000) translate(-29.000000, -192.242641) "></path>
        <path d="M68.1602639,231.619749 L67.8786797,231.838361 C67.7311853,231.952871 67.5187891,231.926131 67.4042795,231.778637 C67.3095632,231.656637 67.3095632,231.485961 67.4042795,231.363961 L67.6228919,231.082377 C68.463322,229.999858 68.463322,228.485423 67.6228919,227.402905 L67.4042795,227.12132 C67.28977,226.973826 67.3165094,226.76143 67.4640038,226.64692 C67.5860035,226.552204 67.75668,226.552204 67.8786797,226.64692 L68.1602639,226.865533 C69.2427823,227.705963 70.7572177,227.705963 71.8397361,226.865533 L72.1213203,226.64692 C72.2688147,226.532411 72.4812109,226.55915 72.5957205,226.706645 C72.6904368,226.828644 72.6904368,226.999321 72.5957205,227.12132 L72.3771081,227.402905 C71.536678,228.485423 71.536678,229.999858 72.3771081,231.082377 L72.5957205,231.363961 C72.71023,231.511455 72.6834906,231.723852 72.5359962,231.838361 C72.4139965,231.933077 72.24332,231.933077 72.1213203,231.838361 L71.8397361,231.619749 C70.7572177,230.779319 69.2427823,230.779319 68.1602639,231.619749 Z" id="Star-Copy-7" fill="#FF9F0A" transform="translate(70.000000, 229.242641) rotate(-315.000000) translate(-70.000000, -229.242641) "></path>
        <path d="M129.83781,164.861787 L128.171573,166.051513 C127.910941,166.23761 127.548796,166.177187 127.3627,165.916555 C127.218766,165.714973 127.218766,165.444223 127.3627,165.242641 L128.552427,163.576404 C129.048865,162.881132 129.048865,161.947295 128.552427,161.252023 L127.3627,159.585786 C127.176604,159.325155 127.237027,158.96301 127.497658,158.776914 C127.699241,158.63298 127.969991,158.63298 128.171573,158.776914 L129.83781,159.966641 C130.533082,160.463079 131.466918,160.463079 132.16219,159.966641 L133.828427,158.776914 C134.089059,158.590817 134.451204,158.65124 134.6373,158.911872 C134.781234,159.113454 134.781234,159.384204 134.6373,159.585786 L133.447573,161.252023 C132.951135,161.947295 132.951135,162.881132 133.447573,163.576404 L134.6373,165.242641 C134.823396,165.503272 134.762973,165.865417 134.502342,166.051513 C134.300759,166.195447 134.030009,166.195447 133.828427,166.051513 L132.16219,164.861787 C131.466918,164.365348 130.533082,164.365348 129.83781,164.861787 Z" id="Star-Copy-3" fill="#FF9F0A" transform="translate(131.000000, 162.414214) rotate(-315.000000) translate(-131.000000, -162.414214) "></path>
        <path d="M160.83781,248.861787 L159.171573,250.051513 C158.910941,250.23761 158.548796,250.177187 158.3627,249.916555 C158.218766,249.714973 158.218766,249.444223 158.3627,249.242641 L159.552427,247.576404 C160.048865,246.881132 160.048865,245.947295 159.552427,245.252023 L158.3627,243.585786 C158.176604,243.325155 158.237027,242.96301 158.497658,242.776914 C158.699241,242.63298 158.969991,242.63298 159.171573,242.776914 L160.83781,243.966641 C161.533082,244.463079 162.466918,244.463079 163.16219,243.966641 L164.828427,242.776914 C165.089059,242.590817 165.451204,242.65124 165.6373,242.911872 C165.781234,243.113454 165.781234,243.384204 165.6373,243.585786 L164.447573,245.252023 C163.951135,245.947295 163.951135,246.881132 164.447573,247.576404 L165.6373,249.242641 C165.823396,249.503272 165.762973,249.865417 165.502342,250.051513 C165.300759,250.195447 165.030009,250.195447 164.828427,250.051513 L163.16219,248.861787 C162.466918,248.365348 161.533082,248.365348 160.83781,248.861787 Z" id="Star-Copy-6" fill="#FF9F0A" transform="translate(162.000000, 246.414214) rotate(-315.000000) translate(-162.000000, -246.414214) "></path>
        <path d="M152.160264,41.4795483 L150.994796,42.3843774 C150.785846,42.5465993 150.484951,42.5087184 150.322729,42.299768 C150.188548,42.1269352 150.188548,41.8851434 150.322729,41.7123106 L151.227558,40.5468429 C152.067989,39.4643245 152.067989,37.9498891 151.227558,36.8673707 L150.322729,35.701903 C150.160507,35.4929526 150.198388,35.192058 150.407339,35.0298361 C150.580172,34.8956547 150.821963,34.8956547 150.994796,35.0298361 L152.160264,35.9346652 C153.242782,36.7750953 154.757218,36.7750953 155.839736,35.9346652 L157.005204,35.0298361 C157.214154,34.8676142 157.515049,34.9054952 157.677271,35.1144455 C157.811452,35.2872783 157.811452,35.5290702 157.677271,35.701903 L156.772442,36.8673707 C155.932011,37.9498891 155.932011,39.4643245 156.772442,40.5468429 L157.677271,41.7123106 C157.839493,41.921261 157.801612,42.2221555 157.592661,42.3843774 C157.419828,42.5185589 157.178037,42.5185589 157.005204,42.3843774 L155.839736,41.4795483 C154.757218,40.6391182 153.242782,40.6391182 152.160264,41.4795483 Z" id="Star-Copy" fill="#FF9F0A" transform="translate(154.000000, 38.707107) rotate(-315.000000) translate(-154.000000, -38.707107) "></path>
    </g>
</svg>