<?xml version="1.0" encoding="UTF-8" standalone="no"?>
<!-- Created with Inkscape (http://www.inkscape.org/) -->

<svg
   width="84.188232mm"
   height="26.142578mm"
   viewBox="0 0 84.188232 26.142578"
   version="1.1"
   id="svg297"
   xml:space="preserve"
   inkscape:version="1.2.2 (b0a84865, 2022-12-01)"
   sodipodi:docname="Creature_Design_Parts.svg"
   xmlns:inkscape="http://www.inkscape.org/namespaces/inkscape"
   xmlns:sodipodi="http://sodipodi.sourceforge.net/DTD/sodipodi-0.dtd"
   xmlns="http://www.w3.org/2000/svg"
   xmlns:svg="http://www.w3.org/2000/svg"><sodipodi:namedview
     id="namedview299"
     pagecolor="#505050"
     bordercolor="#eeeeee"
     borderopacity="1"
     inkscape:showpageshadow="0"
     inkscape:pageopacity="0"
     inkscape:pagecheckerboard="0"
     inkscape:deskcolor="#505050"
     inkscape:document-units="mm"
     showgrid="false"
     inkscape:zoom="0.457453"
     inkscape:cx="3128.1902"
     inkscape:cy="792.43113"
     inkscape:window-width="2516"
     inkscape:window-height="1295"
     inkscape:window-x="0"
     inkscape:window-y="25"
     inkscape:window-maximized="0"
     inkscape:current-layer="Group-3-Copy-3-0" /><defs
     id="defs294" /><g
     inkscape:label="Layer 1"
     inkscape:groupmode="layer"
     id="layer1"
     transform="translate(-359.53468,-190.98759)"><g
       id="g922"
       transform="matrix(0.40777156,0,0,0.40777156,575.73667,154.02788)"><path
         d="m -381.70387,111.88785 37.84333,36.54486 c 4.30967,4.16179 11.17714,4.04193 15.33893,-0.26774 l 1.78398,-1.84734 c 4.09159,-4.23699 3.97375,-10.98865 -0.26324,-15.08025 -0.5824,-0.5624 -1.22695,-1.05669 -1.92119,-1.47325 l -12.23285,-7.34012 v 0 l -22.01331,-27.688304 c -3.72845,-4.68964 -10.55261,-5.46884 -15.24225,-1.74038 -0.37131,0.29522 -0.72286,0.61447 -1.0524,0.9557 l -2.50873,2.59789 c -4.16182,4.309644 -4.04193,11.177144 0.26773,15.338934 z"
         id="Rectangle-Copy-3-3"
         style="fill:#f9f381;fill-rule:evenodd;stroke:none;stroke-width:0.264583" /><path
         d="m -472.24427,115.15968 -37.84332,36.54486 c -4.30967,4.16179 -11.17714,4.04193 -15.33893,-0.26773 l -1.78398,-1.84735 c -4.0916,-4.23698 -3.97375,-10.98865 0.26321,-15.08024 0.5824,-0.5624 1.22695,-1.0567 1.92122,-1.47326 l 12.23282,-7.34012 v 0 l 22.01333,-27.688304 c 3.72843,-4.68964 10.55262,-5.46884 15.24225,-1.74038 0.37132,0.29522 0.72287,0.61447 1.05241,0.9557 l 2.50873,2.59789 c 4.16179,4.309644 4.04193,11.177144 -0.26774,15.338934 z"
         id="Rectangle-Copy-2-7"
         style="fill:#f9f381;fill-rule:evenodd;stroke:none;stroke-width:0.264583" /></g></g></svg>
