<?xml version="1.0" encoding="UTF-8" standalone="no"?>
<!-- Created with Inkscape (http://www.inkscape.org/) -->

<svg
   width="44.471497mm"
   height="30.316986mm"
   viewBox="0 0 44.471497 30.316986"
   version="1.1"
   id="svg297"
   xml:space="preserve"
   inkscape:version="1.2.2 (b0a84865, 2022-12-01)"
   sodipodi:docname="Creature_Design_Parts.svg"
   xmlns:inkscape="http://www.inkscape.org/namespaces/inkscape"
   xmlns:sodipodi="http://sodipodi.sourceforge.net/DTD/sodipodi-0.dtd"
   xmlns="http://www.w3.org/2000/svg"
   xmlns:svg="http://www.w3.org/2000/svg"><sodipodi:namedview
     id="namedview299"
     pagecolor="#505050"
     bordercolor="#eeeeee"
     borderopacity="1"
     inkscape:showpageshadow="0"
     inkscape:pageopacity="0"
     inkscape:pagecheckerboard="0"
     inkscape:deskcolor="#505050"
     inkscape:document-units="mm"
     showgrid="false"
     inkscape:zoom="0.457453"
     inkscape:cx="3128.1902"
     inkscape:cy="792.43113"
     inkscape:window-width="2516"
     inkscape:window-height="1295"
     inkscape:window-x="0"
     inkscape:window-y="25"
     inkscape:window-maximized="0"
     inkscape:current-layer="Group-3-Copy-3-0" /><defs
     id="defs294" /><g
     inkscape:label="Layer 1"
     inkscape:groupmode="layer"
     id="layer1"
     transform="translate(-283.29542,-326.81084)"><g
       id="g11908"
       transform="translate(-10.700097,-1.8797468)"><path
         d="m 303.47163,328.69058 c -2.4431,0 -4.4235,1.98046 -4.4235,4.42347 v 0.15747 c 1.1882,3.71251 1.7352,15.0389 1.1771,15.03634 -2.8734,-1.83464 -5.5603,-1.27911 -6.2296,3.56923 -0.02,2.98622 2.2519,3.62844 4.24,4.59836 2.2424,1.094 4.6292,2.10476 7.1141,2.53211 h 0.01 c 2.443,0 4.4234,-1.98046 4.4234,-4.42348 v -21.47003 c 0,-2.44301 -1.9804,-4.42347 -4.4234,-4.42347 z"
         id="Combined-Shape-Copy-4-7-61-6-5-3-9-9"
         style="fill:#f9f381;fill-rule:evenodd;stroke:none;stroke-width:0.107889"
         sodipodi:nodetypes="sscccscsssss" /><path
         d="m 328.99088,328.6906 c 2.4431,0 4.4235,1.98046 4.4235,4.42348 v 0.15744 c -1.1882,3.71253 -1.7352,15.0389 -1.1771,15.03634 2.8734,-1.83463 5.5603,-1.27911 6.2296,3.56923 0.02,2.98623 -2.2519,3.62845 -4.24,4.59837 -2.2424,1.09399 -4.6292,2.10476 -7.1141,2.5321 h -0.01 c -2.443,0 -4.4234,-1.98046 -4.4234,-4.42347 v -21.47001 c 0,-2.44302 1.9804,-4.42348 4.4234,-4.42348 z"
         id="Combined-Shape-Copy-4-7-61-6-5-3-7-5-4"
         style="fill:#f9f381;fill-rule:evenodd;stroke:none;stroke-width:0.107889"
         sodipodi:nodetypes="sscccscsssss" /></g></g></svg>
