<?xml version="1.0" encoding="UTF-8" standalone="no"?>
<!-- Created with Inkscape (http://www.inkscape.org/) -->

<svg
   width="75.305603mm"
   height="51.188213mm"
   viewBox="0 0 75.305603 51.188213"
   version="1.1"
   id="svg297"
   xml:space="preserve"
   xmlns="http://www.w3.org/2000/svg"
   xmlns:svg="http://www.w3.org/2000/svg"><defs
     id="defs294" /><g
     id="layer1"
     transform="translate(-604.68086,34.710177)"><path
       d="m 604.68088,0.48417092 c 2.3623,-6.02661002 4.3336,-10.26162002 5.9141,-12.70504992 5.7293,-8.85769 12.6222,-14.88378 19.696,-18.3198 4.5579,-2.2139 9.3987,-4.11822 14.2812,-4.16828 1.9559,-0.0201 3.9105,0.21004 5.9749,0.54328 4.3774,0.70658 7.9638,2.41752 11.3661,4.67508 2.6519,1.75968 7.6764,6.56982 9.9811,11.06624 1.7508,3.41596 5.0602,8.5151699 7.1706,17.66159992 0.7716,3.34426998 1.0587,9.09119998 0.8612,17.24079008 l -6.511,-7.9065201 -8.8584,4.6396601 0.4482,-8.7673201 -12.5371,6.1977501 -2.5481,-18.2668201 -9.8481,10.6847 -3.5566,-6.0718 -6.9355,8.78886 -3.2638,-7.21633 -7.5015,4.92809 -2.8073,-15.5211799 z"
       id="Path-8-7-3"
       style="fill:#48a043;fill-opacity:1;fill-rule:evenodd;stroke:none;stroke-width:0.10789" /></g></svg>
