<?xml version="1.0" encoding="UTF-8"?>
<svg width="162px" height="965px" viewBox="0 0 162 965" version="1.1" xmlns="http://www.w3.org/2000/svg" xmlns:xlink="http://www.w3.org/1999/xlink">
    <title>SE 40mm Copy 7@2x</title>
    <defs>
        <linearGradient x1="50%" y1="6.19338703%" x2="50%" y2="55.8595062%" id="linearGradient-1">
            <stop stop-color="#0A84FF" offset="0%"></stop>
            <stop stop-color="#48A043" offset="45.0743952%"></stop>
            <stop stop-color="#FF9F0A" offset="100%"></stop>
        </linearGradient>
    </defs>
    <g id="SE-40mm-Copy-7" stroke="none" stroke-width="1" fill="none" fill-rule="evenodd">
        <rect fill="#000000" x="0" y="0" width="162" height="965"></rect>
        <path d="M55.1602639,468.619749 L54.8786797,468.838361 C54.7311853,468.952871 54.5187891,468.926131 54.4042795,468.778637 C54.3095632,468.656637 54.3095632,468.485961 54.4042795,468.363961 L54.6228919,468.082377 C55.463322,466.999858 55.463322,465.485423 54.6228919,464.402905 L54.4042795,464.12132 C54.28977,463.973826 54.3165094,463.76143 54.4640038,463.64692 C54.5860035,463.552204 54.75668,463.552204 54.8786797,463.64692 L55.1602639,463.865533 C56.2427823,464.705963 57.7572177,464.705963 58.8397361,463.865533 L59.1213203,463.64692 C59.2688147,463.532411 59.4812109,463.55915 59.5957205,463.706645 C59.6904368,463.828644 59.6904368,463.999321 59.5957205,464.12132 L59.3771081,464.402905 C58.536678,465.485423 58.536678,466.999858 59.3771081,468.082377 L59.5957205,468.363961 C59.71023,468.511455 59.6834906,468.723852 59.5359962,468.838361 C59.4139965,468.933077 59.24332,468.933077 59.1213203,468.838361 L58.8397361,468.619749 C57.7572177,467.779319 56.2427823,467.779319 55.1602639,468.619749 Z" id="Star-Copy" fill="#FF9F0A" transform="translate(57.000000, 466.242641) rotate(-315.000000) translate(-57.000000, -466.242641) "></path>
        <path d="M133.160264,489.619749 L132.87868,489.838361 C132.731185,489.952871 132.518789,489.926131 132.40428,489.778637 C132.309563,489.656637 132.309563,489.485961 132.40428,489.363961 L132.622892,489.082377 C133.463322,487.999858 133.463322,486.485423 132.622892,485.402905 L132.40428,485.12132 C132.28977,484.973826 132.316509,484.76143 132.464004,484.64692 C132.586003,484.552204 132.75668,484.552204 132.87868,484.64692 L133.160264,484.865533 C134.242782,485.705963 135.757218,485.705963 136.839736,484.865533 L137.12132,484.64692 C137.268815,484.532411 137.481211,484.55915 137.59572,484.706645 C137.690437,484.828644 137.690437,484.999321 137.59572,485.12132 L137.377108,485.402905 C136.536678,486.485423 136.536678,487.999858 137.377108,489.082377 L137.59572,489.363961 C137.71023,489.511455 137.683491,489.723852 137.535996,489.838361 C137.413997,489.933077 137.24332,489.933077 137.12132,489.838361 L136.839736,489.619749 C135.757218,488.779319 134.242782,488.779319 133.160264,489.619749 Z" id="Star-Copy-8" fill="#FF9F0A" transform="translate(135.000000, 487.242641) rotate(-315.000000) translate(-135.000000, -487.242641) "></path>
        <path d="M145.160264,401.479548 L143.994796,402.384377 C143.785846,402.546599 143.484951,402.508718 143.322729,402.299768 C143.188548,402.126935 143.188548,401.885143 143.322729,401.712311 L144.227558,400.546843 C145.067989,399.464324 145.067989,397.949889 144.227558,396.867371 L143.322729,395.701903 C143.160507,395.492953 143.198388,395.192058 143.407339,395.029836 C143.580172,394.895655 143.821963,394.895655 143.994796,395.029836 L145.160264,395.934665 C146.242782,396.775095 147.757218,396.775095 148.839736,395.934665 L150.005204,395.029836 C150.214154,394.867614 150.515049,394.905495 150.677271,395.114446 C150.811452,395.287278 150.811452,395.52907 150.677271,395.701903 L149.772442,396.867371 C148.932011,397.949889 148.932011,399.464324 149.772442,400.546843 L150.677271,401.712311 C150.839493,401.921261 150.801612,402.222156 150.592661,402.384377 C150.419828,402.518559 150.178037,402.518559 150.005204,402.384377 L148.839736,401.479548 C147.757218,400.639118 146.242782,400.639118 145.160264,401.479548 Z" id="Star-Copy" fill="#FF9F0A" transform="translate(147.000000, 398.707107) rotate(-315.000000) translate(-147.000000, -398.707107) "></path>
        <path d="M33.1602639,578.619749 L32.8786797,578.838361 C32.7311853,578.952871 32.5187891,578.926131 32.4042795,578.778637 C32.3095632,578.656637 32.3095632,578.485961 32.4042795,578.363961 L32.6228919,578.082377 C33.463322,576.999858 33.463322,575.485423 32.6228919,574.402905 L32.4042795,574.12132 C32.28977,573.973826 32.3165094,573.76143 32.4640038,573.64692 C32.5860035,573.552204 32.75668,573.552204 32.8786797,573.64692 L33.1602639,573.865533 C34.2427823,574.705963 35.7572177,574.705963 36.8397361,573.865533 L37.1213203,573.64692 C37.2688147,573.532411 37.4812109,573.55915 37.5957205,573.706645 C37.6904368,573.828644 37.6904368,573.999321 37.5957205,574.12132 L37.3771081,574.402905 C36.536678,575.485423 36.536678,576.999858 37.3771081,578.082377 L37.5957205,578.363961 C37.71023,578.511455 37.6834906,578.723852 37.5359962,578.838361 C37.4139965,578.933077 37.24332,578.933077 37.1213203,578.838361 L36.8397361,578.619749 C35.7572177,577.779319 34.2427823,577.779319 33.1602639,578.619749 Z" id="Star-Copy-2" fill="#FF9F0A" transform="translate(35.000000, 576.242641) rotate(-315.000000) translate(-35.000000, -576.242641) "></path>
        <path d="M76.1602639,691.619749 L75.8786797,691.838361 C75.7311853,691.952871 75.5187891,691.926131 75.4042795,691.778637 C75.3095632,691.656637 75.3095632,691.485961 75.4042795,691.363961 L75.6228919,691.082377 C76.463322,689.999858 76.463322,688.485423 75.6228919,687.402905 L75.4042795,687.12132 C75.28977,686.973826 75.3165094,686.76143 75.4640038,686.64692 C75.5860035,686.552204 75.75668,686.552204 75.8786797,686.64692 L76.1602639,686.865533 C77.2427823,687.705963 78.7572177,687.705963 79.8397361,686.865533 L80.1213203,686.64692 C80.2688147,686.532411 80.4812109,686.55915 80.5957205,686.706645 C80.6904368,686.828644 80.6904368,686.999321 80.5957205,687.12132 L80.3771081,687.402905 C79.536678,688.485423 79.536678,689.999858 80.3771081,691.082377 L80.5957205,691.363961 C80.71023,691.511455 80.6834906,691.723852 80.5359962,691.838361 C80.4139965,691.933077 80.24332,691.933077 80.1213203,691.838361 L79.8397361,691.619749 C78.7572177,690.779319 77.2427823,690.779319 76.1602639,691.619749 Z" id="Star-Copy-5" fill="#FF9F0A" transform="translate(78.000000, 689.242641) rotate(-315.000000) translate(-78.000000, -689.242641) "></path>
        <path d="M13.4794833,615.885435 L12.9947962,616.278763 C12.8220986,616.418909 12.5684891,616.392521 12.4283434,616.219823 C12.3083321,616.071936 12.3083321,615.860197 12.4283434,615.712311 L12.8216716,615.227623 C14.0137232,613.758692 14.0137232,611.655521 12.8216716,610.18659 L12.4283434,609.701903 C12.2881978,609.529205 12.3145863,609.275596 12.4872838,609.13545 C12.6351703,609.015439 12.8469097,609.015439 12.9947962,609.13545 L13.4794833,609.528778 C14.9484147,610.72083 17.0515853,610.72083 18.5205167,609.528778 L19.0052038,609.13545 C19.1779014,608.995305 19.4315109,609.021693 19.5716566,609.194391 C19.6916679,609.342277 19.6916679,609.554016 19.5716566,609.701903 L19.1783284,610.18659 C17.9862768,611.655521 17.9862768,613.758692 19.1783284,615.227623 L19.5716566,615.712311 C19.7118022,615.885008 19.6854137,616.138618 19.5127162,616.278763 C19.3648297,616.398775 19.1530903,616.398775 19.0052038,616.278763 L18.5205167,615.885435 C17.0515853,614.693384 14.9484147,614.693384 13.4794833,615.885435 Z" id="Star" fill="#FF9F0A" transform="translate(16.000000, 612.707107) rotate(-315.000000) translate(-16.000000, -612.707107) "></path>
        <path d="M106.160264,564.619749 L105.87868,564.838361 C105.731185,564.952871 105.518789,564.926131 105.40428,564.778637 C105.309563,564.656637 105.309563,564.485961 105.40428,564.363961 L105.622892,564.082377 C106.463322,562.999858 106.463322,561.485423 105.622892,560.402905 L105.40428,560.12132 C105.28977,559.973826 105.316509,559.76143 105.464004,559.64692 C105.586003,559.552204 105.75668,559.552204 105.87868,559.64692 L106.160264,559.865533 C107.242782,560.705963 108.757218,560.705963 109.839736,559.865533 L110.12132,559.64692 C110.268815,559.532411 110.481211,559.55915 110.59572,559.706645 C110.690437,559.828644 110.690437,559.999321 110.59572,560.12132 L110.377108,560.402905 C109.536678,561.485423 109.536678,562.999858 110.377108,564.082377 L110.59572,564.363961 C110.71023,564.511455 110.683491,564.723852 110.535996,564.838361 C110.413997,564.933077 110.24332,564.933077 110.12132,564.838361 L109.839736,564.619749 C108.757218,563.779319 107.242782,563.779319 106.160264,564.619749 Z" id="Star-Copy" fill="#FF9F0A" transform="translate(108.000000, 562.242641) rotate(-315.000000) translate(-108.000000, -562.242641) "></path>
        <path d="M120.83781,710.861787 L119.171573,712.051513 C118.910941,712.23761 118.548796,712.177187 118.3627,711.916555 C118.218766,711.714973 118.218766,711.444223 118.3627,711.242641 L119.552427,709.576404 C120.048865,708.881132 120.048865,707.947295 119.552427,707.252023 L118.3627,705.585786 C118.176604,705.325155 118.237027,704.96301 118.497658,704.776914 C118.699241,704.63298 118.969991,704.63298 119.171573,704.776914 L120.83781,705.966641 C121.533082,706.463079 122.466918,706.463079 123.16219,705.966641 L124.828427,704.776914 C125.089059,704.590817 125.451204,704.65124 125.6373,704.911872 C125.781234,705.113454 125.781234,705.384204 125.6373,705.585786 L124.447573,707.252023 C123.951135,707.947295 123.951135,708.881132 124.447573,709.576404 L125.6373,711.242641 C125.823396,711.503272 125.762973,711.865417 125.502342,712.051513 C125.300759,712.195447 125.030009,712.195447 124.828427,712.051513 L123.16219,710.861787 C122.466918,710.365348 121.533082,710.365348 120.83781,710.861787 Z" id="Star-Copy-3" fill="#FF9F0A" transform="translate(122.000000, 708.414214) rotate(-315.000000) translate(-122.000000, -708.414214) "></path>
        <path d="M143.160264,587.479548 L141.994796,588.384377 C141.785846,588.546599 141.484951,588.508718 141.322729,588.299768 C141.188548,588.126935 141.188548,587.885143 141.322729,587.712311 L142.227558,586.546843 C143.067989,585.464324 143.067989,583.949889 142.227558,582.867371 L141.322729,581.701903 C141.160507,581.492953 141.198388,581.192058 141.407339,581.029836 C141.580172,580.895655 141.821963,580.895655 141.994796,581.029836 L143.160264,581.934665 C144.242782,582.775095 145.757218,582.775095 146.839736,581.934665 L148.005204,581.029836 C148.214154,580.867614 148.515049,580.905495 148.677271,581.114446 C148.811452,581.287278 148.811452,581.52907 148.677271,581.701903 L147.772442,582.867371 C146.932011,583.949889 146.932011,585.464324 147.772442,586.546843 L148.677271,587.712311 C148.839493,587.921261 148.801612,588.222156 148.592661,588.384377 C148.419828,588.518559 148.178037,588.518559 148.005204,588.384377 L146.839736,587.479548 C145.757218,586.639118 144.242782,586.639118 143.160264,587.479548 Z" id="Star-Copy" fill="#FF9F0A" transform="translate(145.000000, 584.707107) rotate(-315.000000) translate(-145.000000, -584.707107) "></path>
        <path d="M86.0167941,639.234013 C93.4727863,639.234013 100.22292,637.519006 105.109056,632.941514 C109.995192,628.364021 113.01733,622.854076 113.01733,615.869058 C113.01733,601.89902 101.062933,582.234013 86.1509486,582.234013 C71.2389642,582.234013 59.0160628,601.89902 59.0160628,615.869058 C59.0160628,622.854076 62.0383958,628.364021 66.9245318,632.941514 C71.8106678,637.519006 78.5608019,639.234013 86.0167941,639.234013 Z" id="Oval-Copy-99" fill="#48A043" transform="translate(86.016697, 610.734013) rotate(19.000000) translate(-86.016697, -610.734013) "></path>
        <path d="M86.5,96 C93.7722591,96 100.201224,99.6945388 104.092086,105.349394 C107.397813,103.227117 111.308859,102 115.5,102 C121.222433,102 126.422707,104.287615 130.275063,108.017879 C132.063668,107.358686 133.991143,107 136,107 C145.388841,107 153,114.835017 153,124.5 C153,125.026294 152.977431,125.547162 152.933236,126.061634 C157.236259,129.539997 160,134.938522 160,141 C160,151.49341 151.717268,160 141.5,160 C139.214103,160 137.025038,159.574206 135.003897,158.795631 C131.616422,163.184193 126.378391,166 120.5,166 C117.753573,166 115.146926,165.385358 112.803355,164.282704 C109.143739,167.237403 104.52303,169 99.5,169 C97.8036457,169 96.1531768,168.798973 94.5701042,168.41893 C91.3833863,174.142525 85.3803191,178 78.5,178 C71.2247821,178 64.9304066,173.687015 61.908712,167.414825 C59.6409606,168.434305 57.1348045,169 54.5,169 C44.7570392,169 36.7731726,161.264866 36.0529131,151.447881 C27.9837803,149.402702 22,141.919031 22,133 C22,122.50659 30.2827321,114 40.5,114 C40.6469579,114 40.7935157,114.00176 40.9396543,114.00526 C43.3832305,106.449905 50.3219171,101 58.5,101 C62.578911,101 66.3495063,102.355734 69.4078814,104.65238 C73.3365038,99.3927918 79.5310423,96 86.5,96 Z" id="Combined-Shape-Copy-52" fill="#0A84FF" transform="translate(91.000000, 137.000000) scale(-1, -1) translate(-91.000000, -137.000000) "></path>
        <path d="M5,105 C9.34861194,105 13.2650197,106.480389 16.0047332,108.845575 C18.318463,107.676433 21.0604881,107 24,107 C31.0690129,107 36.9959229,110.911939 38.5826947,116.177388 C45.6361321,117.156374 51,122.077068 51,128 C51,132.666517 47.6704132,136.710902 42.8081054,138.69566 C40.5233588,142.989668 35.2011174,146 29,146 C26.0587961,146 23.3153064,145.322788 20.9998778,144.152641 C18.6854828,145.322593 15.941627,146 13,146 C7.25517965,146 2.26465316,143.416387 -0.255109107,139.622338 C-1.45138484,139.869034 -2.70657451,140 -4,140 C-12.2842712,140 -19,134.627417 -19,128 C-19,123.079168 -15.2976139,118.850126 -9.9997845,116.99843 C-9.9993241,110.372042 -3.28385437,105 5,105 Z" id="Combined-Shape-Copy-4" fill="#40CBE0"></path>
        <path d="M82.5,150 C86.2524962,150 89.5852125,151.797291 91.6842799,154.578005 C93.3896075,153.574918 95.377664,153 97.5,153 C100.779053,153 103.73757,154.372382 105.8325,156.574095 C106.816677,156.202889 107.884645,156 109,156 C113.970563,156 118,160.029437 118,165 C118,165.324882 117.982786,165.645744 117.94922,165.961723 C120.406901,167.783179 122,170.705545 122,174 C122,179.522847 117.522847,184 112,184 C110.828782,184 109.704592,183.79865 108.660156,183.428677 C106.826441,185.611768 104.07534,187 101,187 C99.0489325,187 97.2283689,186.441246 95.6895979,185.475028 C93.7209054,187.055135 91.2207952,188 88.5,188 C87.9008625,188 87.3124263,187.954183 86.7380039,187.86586 C85.0292452,190.928688 81.7565131,193 78,193 C74.1024842,193 70.7257489,190.770274 69.0758102,187.516837 C68.1075672,187.830835 67.073539,188 66,188 C60.7484788,188 56.4424307,183.951949 56.0320107,178.806001 C51.4516016,177.892288 48,173.849226 48,169 C48,163.533651 52.3860183,159.091712 57.8308354,159.001402 C59.3734724,155.469401 62.8983565,153 67,153 C69.255174,153 71.3359912,153.74651 73.0088209,155.005901 C75.0796584,151.98317 78.5582321,150 82.5,150 Z" id="Combined-Shape-Copy-53" fill="#5E5CE6" transform="translate(85.000000, 171.500000) scale(-1, 1) translate(-85.000000, -171.500000) "></path>
        <path d="M123.000098,152.944375 C130.455915,152.944375 137.20589,151.229369 142.091912,146.651876 C146.977933,142.074383 150,136.564438 150,129.57942 C150,115.609382 138.045883,95.9443753 123.134249,95.9443753 C108.222615,95.9443753 96,115.609382 96,129.57942 C96,136.564438 99.0222621,142.074383 103.908283,146.651876 C108.794305,151.229369 115.54428,152.944375 123.000098,152.944375 Z" id="Oval-Copy-99" fill="#48A043"></path>
        <path d="M48.0000975,125.944375 C55.4559147,125.944375 62.2058903,124.229369 67.0919117,119.651876 C71.977933,115.074383 75,109.564438 75,102.57942 C75,88.609382 63.0458833,68.9443753 48.1342489,68.9443753 C33.2226145,68.9443753 21,88.609382 21,102.57942 C21,109.564438 24.0222621,115.074383 28.9082834,119.651876 C33.7943047,124.229369 40.5442803,125.944375 48.0000975,125.944375 Z" id="Oval-Copy-100" fill="#FF9500"></path>
        <path d="M33.5,120 C39.7527654,120 45.281009,123.102047 48.6297327,127.851142 C51.4854493,126.045094 54.8706773,125 58.5,125 C63.6953484,125 68.390505,127.141576 71.7508474,130.590104 C73.0978682,130.206068 74.5240394,130 76,130 C84.2842712,130 91,136.491871 91,144.5 C91,145.059824 90.9671803,145.612238 90.9032994,146.155543 C94.0385947,148.985043 96,153.020624 96,157.5 C96,166.060414 88.836556,173 80,173 C78.3875751,173 76.8308583,172.768939 75.3632065,172.339132 C72.4296066,175.795429 67.9805607,178 63,178 C60.1444886,178 57.4636908,177.275338 55.142875,176.005494 C51.8359588,179.103154 47.3894955,181 42.5,181 C41.4915866,181 40.5020178,180.919317 39.5373966,180.764055 C36.7039161,185.112488 31.700043,188 26,188 C19.5840575,188 14.050138,184.341623 11.4997486,179.060705 C9.78521486,179.668058 7.93262245,180 6,180 C-2.48282785,180 -9.42381235,173.604878 -9.96591589,165.51989 C-16.8841376,163.810957 -22,157.734245 -22,150.5 C-22,142.256383 -15.3569436,135.515849 -6.97389643,135.028242 C-4.69151654,129.167923 1.15180526,125 8,125 C11.7832633,125 15.2598419,126.27204 17.9988629,128.398711 C21.3001041,123.342157 27.0097508,120 33.5,120 Z" id="Combined-Shape" fill="#64D2FF"></path>
        <path d="M49.5,115 C53.8539907,115 57.7265658,116.984845 60.195187,120.066165 C62.2999477,118.758781 64.8079543,118 67.5,118 C73.5166085,118 78.6139351,121.790139 80.3576627,127.026259 C87.4132755,127.451179 93,133.097329 93,140 C93,144.481436 90.645183,148.433244 87.0620839,150.770615 C85.0872693,155.589636 80.2072192,159 74.5,159 C71.2782537,159 68.3200967,157.913238 65.9992917,156.099635 C63.6790575,157.913549 60.7212858,159 57.5,159 C52.315927,159 47.81433,156.186196 45.5523762,152.058083 C43.9927937,152.665672 42.2869417,153 40.5,153 C33.0441559,153 27,147.179702 27,140 C27,134.338581 30.7581439,129.522414 36.0031604,127.738649 C36.1468656,120.679929 42.1346117,115 49.5,115 Z" id="Combined-Shape-Copy-48" fill="#63E6E2" transform="translate(60.000000, 137.000000) scale(-1, 1) translate(-60.000000, -137.000000) "></path>
        <path d="M137,146 C140.564224,146 143.692928,147.864686 145.463784,150.671733 C147.048911,149.615291 148.952601,149 151,149 C153.992048,149 156.677182,150.314053 158.509777,152.396532 C159.293252,152.13874 160.130424,152 161,152 C165.418278,152 169,155.581722 169,160 C169,160.096189 168.998302,160.191981 168.994936,160.287349 C170.839029,161.935058 172,164.331949 172,167 C172,171.970563 167.970563,176 163,176 C162.282733,176 161.585063,175.916094 160.91627,175.757561 C159.266547,177.739082 156.780525,179 154,179 C152.303463,179 150.716565,178.530582 149.362104,177.714544 C147.633933,179.142429 145.417115,180 143,180 C142.194332,180 141.410916,179.904723 140.660407,179.724821 C139.076351,182.290196 136.237849,184 133,184 C129.63909,184 126.70846,182.157757 125.162826,179.427988 C124.179706,179.797797 123.113466,180 122,180 C117.194808,180 113.26916,176.234221 113.013267,171.492872 C109.510797,170.260852 107,166.92364 107,163 C107,158.051127 110.994348,154.035184 115.934986,154.00023 C117.407596,151.03698 120.465917,149 124,149 C125.742389,149 127.369133,149.495135 128.747206,150.352378 C130.54755,147.724484 133.572388,146 137,146 Z" id="Combined-Shape-Copy-54" fill="#63E6E2" transform="translate(139.500000, 165.000000) scale(-1, -1) translate(-139.500000, -165.000000) "></path>
        <path d="M46.4794833,30.8854352 L45.9947962,31.2787634 C45.8220986,31.418909 45.5684891,31.3925205 45.4283434,31.219823 C45.3083321,31.0719365 45.3083321,30.8601971 45.4283434,30.7123106 L45.8216716,30.2276235 C47.0137232,28.7586921 47.0137232,26.6555215 45.8216716,25.1865901 L45.4283434,24.701903 C45.2881978,24.5292054 45.3145863,24.2755959 45.4872838,24.1354502 C45.6351703,24.0154389 45.8469097,24.0154389 45.9947962,24.1354502 L46.4794833,24.5287783 C47.9484147,25.72083 50.0515853,25.72083 51.5205167,24.5287783 L52.0052038,24.1354502 C52.1779014,23.9953045 52.4315109,24.021693 52.5716566,24.1943906 C52.6916679,24.3422771 52.6916679,24.5540164 52.5716566,24.701903 L52.1783284,25.1865901 C50.9862768,26.6555215 50.9862768,28.7586921 52.1783284,30.2276235 L52.5716566,30.7123106 C52.7118022,30.8850081 52.6854137,31.1386177 52.5127162,31.2787634 C52.3648297,31.3987746 52.1530903,31.3987746 52.0052038,31.2787634 L51.5205167,30.8854352 C50.0515853,29.6933836 47.9484147,29.6933836 46.4794833,30.8854352 Z" id="Star" fill="#FF9F0A" transform="translate(49.000000, 27.707107) rotate(-315.000000) translate(-49.000000, -27.707107) "></path>
        <path d="M-2.5205167,232.885435 L-3.00520382,233.278763 C-3.17790136,233.418909 -3.4315109,233.392521 -3.57165657,233.219823 C-3.69166787,233.071936 -3.69166787,232.860197 -3.57165657,232.712311 L-3.17832843,232.227623 C-1.98627682,230.758692 -1.98627682,228.655521 -3.17832843,227.18659 L-3.57165657,226.701903 C-3.71180224,226.529205 -3.68541374,226.275596 -3.5127162,226.13545 C-3.36482968,226.015439 -3.15309034,226.015439 -3.00520382,226.13545 L-2.5205167,226.528778 C-1.05158529,227.72083 1.05158529,227.72083 2.5205167,226.528778 L3.00520382,226.13545 C3.17790136,225.995305 3.4315109,226.021693 3.57165657,226.194391 C3.69166787,226.342277 3.69166787,226.554016 3.57165657,226.701903 L3.17832843,227.18659 C1.98627682,228.655521 1.98627682,230.758692 3.17832843,232.227623 L3.57165657,232.712311 C3.71180224,232.885008 3.68541374,233.138618 3.5127162,233.278763 C3.36482968,233.398775 3.15309034,233.398775 3.00520382,233.278763 L2.5205167,232.885435 C1.05158529,231.693384 -1.05158529,231.693384 -2.5205167,232.885435 Z" id="Star-Copy-6" fill="#FF9F0A" transform="translate(0.000000, 229.707107) rotate(-315.000000) translate(-0.000000, -229.707107) "></path>
        <path d="M102.160264,9.61974883 L101.87868,9.83836114 C101.731185,9.95287071 101.518789,9.92613124 101.40428,9.77863686 C101.309563,9.65663723 101.309563,9.48596066 101.40428,9.36396103 L101.622892,9.08237681 C102.463322,7.99985837 102.463322,6.48542301 101.622892,5.40290457 L101.40428,5.12132034 C101.28977,4.97382596 101.316509,4.7614298 101.464004,4.64692023 C101.586003,4.55220391 101.75668,4.55220391 101.87868,4.64692023 L102.160264,4.86553255 C103.242782,5.70596267 104.757218,5.70596267 105.839736,4.86553255 L106.12132,4.64692023 C106.268815,4.53241066 106.481211,4.55915014 106.59572,4.70664451 C106.690437,4.82864414 106.690437,4.99932072 106.59572,5.12132034 L106.377108,5.40290457 C105.536678,6.48542301 105.536678,7.99985837 106.377108,9.08237681 L106.59572,9.36396103 C106.71023,9.51145541 106.683491,9.72385157 106.535996,9.83836114 C106.413997,9.93307746 106.24332,9.93307746 106.12132,9.83836114 L105.839736,9.61974883 C104.757218,8.7793187 103.242782,8.7793187 102.160264,9.61974883 Z" id="Star-Copy" fill="#FF9F0A" transform="translate(104.000000, 7.242641) rotate(-315.000000) translate(-104.000000, -7.242641) "></path>
        <path d="M59.1602639,207.619749 L58.8786797,207.838361 C58.7311853,207.952871 58.5187891,207.926131 58.4042795,207.778637 C58.3095632,207.656637 58.3095632,207.485961 58.4042795,207.363961 L58.6228919,207.082377 C59.463322,205.999858 59.463322,204.485423 58.6228919,203.402905 L58.4042795,203.12132 C58.28977,202.973826 58.3165094,202.76143 58.4640038,202.64692 C58.5860035,202.552204 58.75668,202.552204 58.8786797,202.64692 L59.1602639,202.865533 C60.2427823,203.705963 61.7572177,203.705963 62.8397361,202.865533 L63.1213203,202.64692 C63.2688147,202.532411 63.4812109,202.55915 63.5957205,202.706645 C63.6904368,202.828644 63.6904368,202.999321 63.5957205,203.12132 L63.3771081,203.402905 C62.536678,204.485423 62.536678,205.999858 63.3771081,207.082377 L63.5957205,207.363961 C63.71023,207.511455 63.6834906,207.723852 63.5359962,207.838361 C63.4139965,207.933077 63.24332,207.933077 63.1213203,207.838361 L62.8397361,207.619749 C61.7572177,206.779319 60.2427823,206.779319 59.1602639,207.619749 Z" id="Star-Copy-7" fill="#FF9F0A" transform="translate(61.000000, 205.242641) rotate(-315.000000) translate(-61.000000, -205.242641) "></path>
        <path d="M116.83781,65.8617866 L115.171573,67.0515135 C114.910941,67.2376098 114.548796,67.1771869 114.3627,66.9165552 C114.218766,66.7149729 114.218766,66.4442229 114.3627,66.2426407 L115.552427,64.5764039 C116.048865,63.8811318 116.048865,62.9472953 115.552427,62.2520233 L114.3627,60.5857864 C114.176604,60.3251547 114.237027,59.96301 114.497658,59.7769137 C114.699241,59.6329798 114.969991,59.6329798 115.171573,59.7769137 L116.83781,60.9666406 C117.533082,61.4630789 118.466918,61.4630789 119.16219,60.9666406 L120.828427,59.7769137 C121.089059,59.5908173 121.451204,59.6512402 121.6373,59.9118719 C121.781234,60.1134542 121.781234,60.3842042 121.6373,60.5857864 L120.447573,62.2520233 C119.951135,62.9472953 119.951135,63.8811318 120.447573,64.5764039 L121.6373,66.2426407 C121.823396,66.5032724 121.762973,66.8654171 121.502342,67.0515135 C121.300759,67.1954473 121.030009,67.1954473 120.828427,67.0515135 L119.16219,65.8617866 C118.466918,65.3653482 117.533082,65.3653482 116.83781,65.8617866 Z" id="Star-Copy-3" fill="#FF9F0A" transform="translate(118.000000, 63.414214) rotate(-315.000000) translate(-118.000000, -63.414214) "></path>
        <path d="M73.8378097,269.861787 L72.1715729,271.051513 C71.9109411,271.23761 71.5487965,271.177187 71.3627001,270.916555 C71.2187663,270.714973 71.2187663,270.444223 71.3627001,270.242641 L72.552427,268.576404 C73.0488653,267.881132 73.0488653,266.947295 72.552427,266.252023 L71.3627001,264.585786 C71.1766038,264.325155 71.2370266,263.96301 71.4976584,263.776914 C71.6992406,263.63298 71.9699906,263.63298 72.1715729,263.776914 L73.8378097,264.966641 C74.5330817,265.463079 75.4669183,265.463079 76.1621903,264.966641 L77.8284271,263.776914 C78.0890589,263.590817 78.4512035,263.65124 78.6372999,263.911872 C78.7812337,264.113454 78.7812337,264.384204 78.6372999,264.585786 L77.447573,266.252023 C76.9511347,266.947295 76.9511347,267.881132 77.447573,268.576404 L78.6372999,270.242641 C78.8233962,270.503272 78.7629734,270.865417 78.5023416,271.051513 C78.3007594,271.195447 78.0300094,271.195447 77.8284271,271.051513 L76.1621903,269.861787 C75.4669183,269.365348 74.5330817,269.365348 73.8378097,269.861787 Z" id="Star-Copy-4" fill="#FF9F0A" transform="translate(75.000000, 267.414214) rotate(-315.000000) translate(-75.000000, -267.414214) "></path>
        <circle id="Oval-Copy-13" fill="url(#linearGradient-1)" cx="81" cy="963" r="52"></circle>
        <path d="M110,812 C113.885424,812 117.195788,814.462125 118.455998,817.911281 C119.983536,816.713461 121.908449,816 124,816 C127.125897,816 129.879587,817.593612 131.492949,820.012718 C136.234221,820.26916 140,824.194808 140,829 C140,833.970563 135.970563,838 131,838 L131.064435,838.000092 C129.591715,840.963479 126.533685,843 123,843 C122.193914,843 121.412579,842.894027 120.669168,842.695252 C119.308611,843.523103 117.709998,844 116,844 C113.046387,844 110.425084,842.577211 108.784076,840.379618 C107.774798,840.779505 106.664758,841 105.5,841 C100.80558,841 97,837.418278 97,833 C97,832.582892 97.0339165,832.17324 97.0992955,831.773353 C94.6419319,830.28358 93,827.583537 93,824.5 C93,819.80558 96.8055796,816 101.5,816 C101.83117,816 102.157917,816.018939 102.479216,816.055793 C104.087941,813.612468 106.855665,812 110,812 Z" id="Combined-Shape-Copy-2" fill="#0A84FF" transform="translate(116.500000, 828.000000) scale(-1, 1) translate(-116.500000, -828.000000) "></path>
        <path d="M14.5,818 C17.0012573,818 19.2165354,819.224422 20.5791489,821.106582 C21.7191794,820.404501 23.0623516,820 24.5,820 C26.6512957,820 28.591039,820.905763 29.9586785,822.356739 C30.5954394,822.125754 31.283034,822 32,822 C35.3137085,822 38,824.686292 38,828 C38,828.258408 37.9836643,828.513002 37.9519692,828.762803 C39.2120494,829.94811 40,831.632037 40,833.5 C40,837.089851 37.0898509,840 33.5,840 C32.7939039,840 32.114104,839.887413 31.4775731,839.67921 C30.2863229,841.098085 28.4984882,842 26.5,842 C25.3667907,842 24.3013122,841.71001 23.373725,841.200191 C22.0636525,842.322206 20.3609799,843 18.5,843 C18.0087886,843 17.5286067,842.952777 17.0637464,842.862624 C15.9245903,844.743278 13.8590567,846 11.5,846 C9.02831939,846 6.87885713,844.620419 5.77962736,842.589272 C5.07059012,842.854654 4.30226871,843 3.5,843 C0.0199459957,843 -2.82134827,840.265144 -2.9918968,836.827419 C-5.86214446,836.1544 -8,833.576862 -8,830.5 C-8,826.910816 -5.09093221,824.001081 -1.50200096,824 C-0.522557254,821.651248 1.79588659,820 4.5,820 C5.92969713,820 7.2515856,820.461584 8.32477062,821.243856 C9.67668174,819.284249 11.9383647,818 14.5,818 Z" id="Combined-Shape-Copy-50" fill="#63E6E2"></path>
        <path d="M23.8297872,886 C27.0618586,886 29.8377752,887.736028 31.0417653,890.216286 C32.3993288,889.21725 34.1420836,888.617021 36.0425532,888.617021 C38.9618327,888.617021 41.5089762,890.033291 42.8618176,892.135018 C46.8638569,892.455025 50,895.444516 50,899.085106 C50,902.939349 46.484959,906.06383 42.1489362,906.06383 C42.0896716,906.06383 42.0305604,906.063246 41.9716095,906.062085 C40.6147789,908.149044 38.0769712,909.553191 35.1702128,909.553191 C34.5113532,909.553191 33.8714492,909.481051 33.2599524,909.345171 C32.0471871,910.029505 30.6075381,910.425532 29.0638298,910.425532 C26.3764867,910.425532 24.0044964,909.225367 22.5892188,907.395134 C21.7570199,907.662273 20.851375,907.808511 19.9042553,907.808511 C15.8091227,907.808511 12.4893617,905.07459 12.4893617,901.702128 C12.4893617,901.380974 12.5194667,901.065611 12.5774794,900.757848 C10.4332637,899.61263 9,897.533789 9,895.159574 C9,891.546222 12.319761,888.617021 16.4148936,888.617021 C16.8264962,888.617021 17.2302658,888.646613 17.6236188,888.703517 C19.0600251,887.058675 21.3058186,886 23.8297872,886 Z" id="Combined-Shape-Copy-63" fill="#5E5CE6"></path>
        <path d="M79.0000975,925 C86.4559147,925 93.2058903,923.284993 98.0919117,918.7075 C102.977933,914.130007 106,908.620063 106,901.635044 C106,887.665007 94.0458833,868 79.1342489,868 C64.2226145,868 52,887.665007 52,901.635044 C52,908.620063 55.0222621,914.130007 59.9082834,918.7075 C64.7943047,923.284993 71.5442803,925 79.0000975,925 Z" id="Oval-Copy-59" fill="#48A043"></path>
        <polyline id="Path-10-Copy-2" stroke="#090909" stroke-width="0.5" points="51 903.973742 57.8314288 892.207962 62.6454587 903.973742 67.7335019 898.831631 71.5157989 903.973742 75.6055731 896.128731 79.3320242 900.073569 85.3053414 890 90.3751316 903.973742 99.2202787 896.986871 100.33604 903.973742 106.542178 898.831631 113 903.973742"></polyline>
        <path d="M38.5,302 C45.7722591,302 52.2012239,305.694539 56.0920862,311.349394 C59.3978127,309.227117 63.308859,308 67.5,308 C73.2224326,308 78.4227073,310.287615 82.2750626,314.017879 C84.0636684,313.358686 85.9911432,313 88,313 C97.3888407,313 105,320.835017 105,330.5 C105,331.026294 104.977431,331.547162 104.933236,332.061634 C109.236259,335.539997 112,340.938522 112,347 C112,357.49341 103.717268,366 93.5,366 C91.2141028,366 89.0250379,365.574206 87.0038967,364.795631 C83.6164223,369.184193 78.3783911,372 72.5,372 C69.7535735,372 67.1469263,371.385358 64.8033549,370.282704 C61.1437393,373.237403 56.5230298,375 51.5,375 C49.8036457,375 48.1531768,374.798973 46.5701042,374.41893 C43.3833863,380.142525 37.3803191,384 30.5,384 C23.2247821,384 16.9304066,379.687015 13.908712,373.414825 C11.6409606,374.434305 9.13480446,375 6.5,375 C-3.24296083,375 -11.2268274,367.264866 -11.9470869,357.447881 C-20.0162197,355.402702 -26,347.919031 -26,339 C-26,328.50659 -17.7172679,320 -7.5,320 C-7.35304206,320 -7.20648433,320.00176 -7.0603457,320.00526 C-4.61676952,312.449905 2.32191705,307 10.5,307 C14.578911,307 18.3495063,308.355734 21.4078814,310.65238 C25.3365038,305.392792 31.5310423,302 38.5,302 Z" id="Combined-Shape-Copy-52" fill="#0A84FF" transform="translate(43.000000, 343.000000) scale(-1, -1) translate(-43.000000, -343.000000) "></path>
        <path d="M-43,311 C-38.6513881,311 -34.7349803,312.480389 -31.9952668,314.845575 C-29.681537,313.676433 -26.9395119,313 -24,313 C-16.9309871,313 -11.0040771,316.911939 -9.41730533,322.177388 C-2.36386791,323.156374 3,328.077068 3,334 C3,338.666517 -0.329586845,342.710902 -5.19189456,344.69566 C-7.47664119,348.989668 -12.7988826,352 -19,352 C-21.9412039,352 -24.6846936,351.322788 -27.0001222,350.152641 C-29.3145172,351.322593 -32.058373,352 -35,352 C-40.7448204,352 -45.7353468,349.416387 -48.2551091,345.622338 C-49.4513848,345.869034 -50.7065745,346 -52,346 C-60.2842712,346 -67,340.627417 -67,334 C-67,329.079168 -63.2976139,324.850126 -57.9997845,322.99843 C-57.9993241,316.372042 -51.2838544,311 -43,311 Z" id="Combined-Shape-Copy-4" fill="#40CBE0"></path>
        <path d="M34.5,356 C38.2524962,356 41.5852125,357.797291 43.6842799,360.578005 C45.3896075,359.574918 47.377664,359 49.5,359 C52.7790532,359 55.7375696,360.372382 57.8324998,362.574095 C58.8166774,362.202889 59.884645,362 61,362 C65.9705627,362 70,366.029437 70,371 C70,371.324882 69.9827859,371.645744 69.9492199,371.961723 C72.4069007,373.783179 74,376.705545 74,380 C74,385.522847 69.5228475,390 64,390 C62.8287819,390 61.7045916,389.79865 60.6601558,389.428677 C58.8264412,391.611768 56.0753401,393 53,393 C51.0489325,393 49.2283689,392.441246 47.6895979,391.475028 C45.7209054,393.055135 43.2207952,394 40.5,394 C39.9008625,394 39.3124263,393.954183 38.7380039,393.86586 C37.0292452,396.928688 33.7565131,399 30,399 C26.1024842,399 22.7257489,396.770274 21.0758102,393.516837 C20.1075672,393.830835 19.073539,394 18,394 C12.7484788,394 8.44243075,389.951949 8.03201073,384.806001 C3.45160157,383.892288 0,379.849226 0,375 C0,369.533651 4.38601829,365.091712 9.83083539,365.001402 C11.3734724,361.469401 14.8983565,359 19,359 C21.255174,359 23.3359912,359.74651 25.0088209,361.005901 C27.0796584,357.98317 30.5582321,356 34.5,356 Z" id="Combined-Shape-Copy-53" fill="#5E5CE6" transform="translate(37.000000, 377.500000) scale(-1, 1) translate(-37.000000, -377.500000) "></path>
        <path d="M110.000098,364.944375 C117.455915,364.944375 124.20589,363.229369 129.091912,358.651876 C133.977933,354.074383 137,348.564438 137,341.57942 C137,327.609382 125.045883,307.944375 110.134249,307.944375 C95.2226145,307.944375 83,327.609382 83,341.57942 C83,348.564438 86.0222621,354.074383 90.9082834,358.651876 C95.7943047,363.229369 102.54428,364.944375 110.000098,364.944375 Z" id="Oval-Copy-99" fill="#48A043" transform="translate(110.000000, 336.444375) rotate(23.000000) translate(-110.000000, -336.444375) "></path>
        <path d="M9.75131001e-05,331.944375 C7.45591471,331.944375 14.2058903,330.229369 19.0919117,325.651876 C23.977933,321.074383 27,315.564438 27,308.57942 C27,294.609382 15.0458833,274.944375 0.134248927,274.944375 C-14.7773855,274.944375 -27,294.609382 -27,308.57942 C-27,315.564438 -23.9777379,321.074383 -19.0917166,325.651876 C-14.2056953,330.229369 -7.45571968,331.944375 9.75131001e-05,331.944375 Z" id="Oval-Copy-100" fill="#FF9500"></path>
        <path d="M-14.5,326 C-8.2472346,326 -2.71899102,329.102047 0.62973267,333.851142 C3.48544934,332.045094 6.87067731,331 10.5,331 C15.6953484,331 20.390505,333.141576 23.7508474,336.590104 C25.0978682,336.206068 26.5240394,336 28,336 C36.2842712,336 43,342.491871 43,350.5 C43,351.059824 42.9671803,351.612238 42.9032994,352.155543 C46.0385947,354.985043 48,359.020624 48,363.5 C48,372.060414 40.836556,379 32,379 C30.3875751,379 28.8308583,378.768939 27.3632065,378.339132 C24.4296066,381.795429 19.9805607,384 15,384 C12.1444886,384 9.46369082,383.275338 7.14287498,382.005494 C3.8359588,385.103154 -0.610504497,387 -5.5,387 C-6.50841337,387 -7.49798224,386.919317 -8.46260337,386.764055 C-11.2960839,391.112488 -16.299957,394 -22,394 C-28.4159425,394 -33.949862,390.341623 -36.5002514,385.060705 C-38.2147851,385.668058 -40.0673776,386 -42,386 C-50.4828278,386 -57.4238123,379.604878 -57.9659159,371.51989 C-64.8841376,369.810957 -70,363.734245 -70,356.5 C-70,348.256383 -63.3569436,341.515849 -54.9738964,341.028242 C-52.6915165,335.167923 -46.8481947,331 -40,331 C-36.2167367,331 -32.7401581,332.27204 -30.0011371,334.398711 C-26.6998959,329.342157 -20.9902492,326 -14.5,326 Z" id="Combined-Shape" fill="#64D2FF"></path>
        <path d="M1.5,321 C5.8539907,321 9.72656581,322.984845 12.195187,326.066165 C14.2999477,324.758781 16.8079543,324 19.5,324 C25.5166085,324 30.6139351,327.790139 32.3576627,333.026259 C39.4132755,333.451179 45,339.097329 45,346 C45,350.481436 42.645183,354.433244 39.0620839,356.770615 C37.0872693,361.589636 32.2072192,365 26.5,365 C23.2782537,365 20.3200967,363.913238 17.9992917,362.099635 C15.6790575,363.913549 12.7212858,365 9.5,365 C4.31592702,365 -0.185669972,362.186196 -2.44762376,358.058083 C-4.00720626,358.665672 -5.71305826,359 -7.5,359 C-14.9558441,359 -21,353.179702 -21,346 C-21,340.338581 -17.2418561,335.522414 -11.9968396,333.738649 C-11.8531344,326.679929 -5.86538834,321 1.5,321 Z" id="Combined-Shape-Copy-48" fill="#63E6E2" transform="translate(12.000000, 343.000000) scale(-1, 1) translate(-12.000000, -343.000000) "></path>
        <path d="M89,352 C92.5642242,352 95.6929276,353.864686 97.4637839,356.671733 C99.0489114,355.615291 100.952601,355 103,355 C105.992048,355 108.677182,356.314053 110.509777,358.396532 C111.293252,358.13874 112.130424,358 113,358 C117.418278,358 121,361.581722 121,366 C121,366.096189 120.998302,366.191981 120.994936,366.287349 C122.839029,367.935058 124,370.331949 124,373 C124,377.970563 119.970563,382 115,382 C114.282733,382 113.585063,381.916094 112.91627,381.757561 C111.266547,383.739082 108.780525,385 106,385 C104.303463,385 102.716565,384.530582 101.362104,383.714544 C99.6339328,385.142429 97.4171147,386 95,386 C94.1943317,386 93.4109165,385.904723 92.6604071,385.724821 C91.0763514,388.290196 88.2378488,390 85,390 C81.6390904,390 78.7084598,388.157757 77.1628257,385.427988 C76.1797059,385.797797 75.1134665,386 74,386 C69.1948077,386 65.2691602,382.234221 65.0132667,377.492872 C61.5107967,376.260852 59,372.92364 59,369 C59,364.051127 62.9943484,360.035184 67.9349856,360.00023 C69.4075964,357.03698 72.4659171,355 76,355 C77.7423892,355 79.3691334,355.495135 80.7472057,356.352378 C82.5475502,353.724484 85.5723877,352 89,352 Z" id="Combined-Shape-Copy-54" fill="#63E6E2" transform="translate(91.500000, 371.000000) scale(-1, -1) translate(-91.500000, -371.000000) "></path>
        <path d="M46.4794833,810.885435 L45.9947962,811.278763 C45.8220986,811.418909 45.5684891,811.392521 45.4283434,811.219823 C45.3083321,811.071936 45.3083321,810.860197 45.4283434,810.712311 L45.8216716,810.227623 C47.0137232,808.758692 47.0137232,806.655521 45.8216716,805.18659 L45.4283434,804.701903 C45.2881978,804.529205 45.3145863,804.275596 45.4872838,804.13545 C45.6351703,804.015439 45.8469097,804.015439 45.9947962,804.13545 L46.4794833,804.528778 C47.9484147,805.72083 50.0515853,805.72083 51.5205167,804.528778 L52.0052038,804.13545 C52.1779014,803.995305 52.4315109,804.021693 52.5716566,804.194391 C52.6916679,804.342277 52.6916679,804.554016 52.5716566,804.701903 L52.1783284,805.18659 C50.9862768,806.655521 50.9862768,808.758692 52.1783284,810.227623 L52.5716566,810.712311 C52.7118022,810.885008 52.6854137,811.138618 52.5127162,811.278763 C52.3648297,811.398775 52.1530903,811.398775 52.0052038,811.278763 L51.5205167,810.885435 C50.0515853,809.693384 47.9484147,809.693384 46.4794833,810.885435 Z" id="Star" fill="#FF9F0A" transform="translate(49.000000, 807.707107) rotate(-315.000000) translate(-49.000000, -807.707107) "></path>
        <path d="M66.1602639,843.619749 L65.8786797,843.838361 C65.7311853,843.952871 65.5187891,843.926131 65.4042795,843.778637 C65.3095632,843.656637 65.3095632,843.485961 65.4042795,843.363961 L65.6228919,843.082377 C66.463322,841.999858 66.463322,840.485423 65.6228919,839.402905 L65.4042795,839.12132 C65.28977,838.973826 65.3165094,838.76143 65.4640038,838.64692 C65.5860035,838.552204 65.75668,838.552204 65.8786797,838.64692 L66.1602639,838.865533 C67.2427823,839.705963 68.7572177,839.705963 69.8397361,838.865533 L70.1213203,838.64692 C70.2688147,838.532411 70.4812109,838.55915 70.5957205,838.706645 C70.6904368,838.828644 70.6904368,838.999321 70.5957205,839.12132 L70.3771081,839.402905 C69.536678,840.485423 69.536678,841.999858 70.3771081,843.082377 L70.5957205,843.363961 C70.71023,843.511455 70.6834906,843.723852 70.5359962,843.838361 C70.4139965,843.933077 70.24332,843.933077 70.1213203,843.838361 L69.8397361,843.619749 C68.7572177,842.779319 67.2427823,842.779319 66.1602639,843.619749 Z" id="Star-Copy" fill="#FF9F0A" transform="translate(68.000000, 841.242641) rotate(-315.000000) translate(-68.000000, -841.242641) "></path>
        <path d="M39.4587307,872.264928 L38.232233,873.054446 C38.0206136,873.190669 37.7386315,873.129548 37.6024084,872.917929 C37.5057094,872.767709 37.5057094,872.574841 37.6024084,872.424621 L38.3919262,871.198124 C38.6041271,870.868474 38.6041271,870.445234 38.3919262,870.115585 L37.6024084,868.889087 C37.4661852,868.677468 37.5273061,868.395486 37.7389255,868.259263 C37.889145,868.162564 38.0820135,868.162564 38.232233,868.259263 L39.4587307,869.04878 C39.7883799,869.260981 40.2116201,869.260981 40.5412693,869.04878 L41.767767,868.259263 C41.9793864,868.123039 42.2613685,868.18416 42.3975916,868.39578 C42.4942906,868.545999 42.4942906,868.738868 42.3975916,868.889087 L41.6080738,870.115585 C41.3958729,870.445234 41.3958729,870.868474 41.6080738,871.198124 L42.3975916,872.424621 C42.5338148,872.636241 42.4726939,872.918223 42.2610745,873.054446 C42.110855,873.151145 41.9179865,873.151145 41.767767,873.054446 L40.5412693,872.264928 C40.2116201,872.052727 39.7883799,872.052727 39.4587307,872.264928 Z" id="Star-Copy-2" fill="#FF9F0A" transform="translate(40.000000, 870.656854) rotate(-315.000000) translate(-40.000000, -870.656854) "></path>
        <path d="M132.83781,867.861787 L131.171573,869.051513 C130.910941,869.23761 130.548796,869.177187 130.3627,868.916555 C130.218766,868.714973 130.218766,868.444223 130.3627,868.242641 L131.552427,866.576404 C132.048865,865.881132 132.048865,864.947295 131.552427,864.252023 L130.3627,862.585786 C130.176604,862.325155 130.237027,861.96301 130.497658,861.776914 C130.699241,861.63298 130.969991,861.63298 131.171573,861.776914 L132.83781,862.966641 C133.533082,863.463079 134.466918,863.463079 135.16219,862.966641 L136.828427,861.776914 C137.089059,861.590817 137.451204,861.65124 137.6373,861.911872 C137.781234,862.113454 137.781234,862.384204 137.6373,862.585786 L136.447573,864.252023 C135.951135,864.947295 135.951135,865.881132 136.447573,866.576404 L137.6373,868.242641 C137.823396,868.503272 137.762973,868.865417 137.502342,869.051513 C137.300759,869.195447 137.030009,869.195447 136.828427,869.051513 L135.16219,867.861787 C134.466918,867.365348 133.533082,867.365348 132.83781,867.861787 Z" id="Star-Copy-3" fill="#FF9F0A" transform="translate(134.000000, 865.414214) rotate(-315.000000) translate(-134.000000, -865.414214) "></path>
    </g>
</svg>