<?xml version="1.0" encoding="UTF-8"?>
<svg width="162px" height="197px" viewBox="0 0 162 197" version="1.1" xmlns="http://www.w3.org/2000/svg" xmlns:xlink="http://www.w3.org/1999/xlink">
    <title>SecondView Copy 2@2x</title>
    <defs>
        <linearGradient x1="50%" y1="6.19338703%" x2="50%" y2="63.500224%" id="linearGradient-1">
            <stop stop-color="#0A84FF" offset="0%"></stop>
            <stop stop-color="#48A043" offset="100%"></stop>
        </linearGradient>
        <linearGradient x1="50%" y1="6.19338703%" x2="50%" y2="55.8595062%" id="linearGradient-2">
            <stop stop-color="#0A84FF" offset="0%"></stop>
            <stop stop-color="#48A043" offset="45.0743952%"></stop>
            <stop stop-color="#FF9F0A" offset="100%"></stop>
        </linearGradient>
    </defs>
    <g id="SecondView-Copy-2" stroke="none" stroke-width="1" fill="none" fill-rule="evenodd">
        <circle id="Oval-Copy-12" fill="url(#linearGradient-1)" cx="81" cy="197" r="52"></circle>
        <circle id="Oval-Copy-13" fill="url(#linearGradient-2)" cx="81" cy="197" r="52"></circle>
        <path d="M110,46 C113.885424,46 117.195788,48.462125 118.455998,51.911281 C119.983536,50.7134609 121.908449,50 124,50 C127.125897,50 129.879587,51.5936124 131.492949,54.0127181 C136.234221,54.2691602 140,58.1948077 140,63 C140,67.9705627 135.970563,72 131,72 L131.064435,72.0000917 C129.591715,74.963479 126.533685,77 123,77 C122.193914,77 121.412579,76.8940268 120.669168,76.6952522 C119.308611,77.5231031 117.709998,78 116,78 C113.046387,78 110.425084,76.5772109 108.784076,74.3796182 C107.774798,74.7795048 106.664758,75 105.5,75 C100.80558,75 97,71.418278 97,67 C97,66.5828923 97.0339165,66.1732402 97.0992955,65.7733535 C94.6419319,64.2835798 93,61.5835368 93,58.5 C93,53.8055796 96.8055796,50 101.5,50 C101.83117,50 102.157917,50.0189391 102.479216,50.0557932 C104.087941,47.6124677 106.855665,46 110,46 Z" id="Combined-Shape-Copy-2" fill="#0A84FF" transform="translate(116.500000, 62.000000) scale(-1, 1) translate(-116.500000, -62.000000) "></path>
        <path d="M141.78125,59 C144.64702,59 147.185163,60.402735 148.746526,62.5590507 C150.052615,61.7553418 151.591951,61.2916667 153.239583,61.2916667 C155.704432,61.2916667 157.926911,62.3293707 159.49398,63.9917363 C160.22346,63.7275144 161.011559,63.5833333 161.833333,63.5833333 C165.630291,63.5833333 168.708333,66.6613757 168.708333,70.4583333 C168.708333,70.7544548 168.689612,71.0462035 168.653288,71.3324606 C170.097518,72.6913499 171,74.6204903 171,76.7604167 C171,80.8737875 167.665454,84.2083333 163.552083,84.2083333 C162.743365,84.2083333 161.964752,84.0794386 161.235667,83.8410718 C159.869462,85.4666983 157.821026,86.5 155.53125,86.5 C154.232397,86.5 153.011199,86.1675237 151.948118,85.5830347 C150.447067,86.8695396 148.496482,87.6458333 146.364583,87.6458333 C145.80138,87.6458333 145.25083,87.5916552 144.717862,87.4882264 C143.414202,89.6429686 141.047184,91.0833333 138.34375,91.0833333 C135.510995,91.0833333 133.047611,89.5018706 131.788328,87.1736767 C130.976874,87.4792618 130.096431,87.6458333 129.177083,87.6458333 C125.189811,87.6458333 121.934345,84.5125997 121.738494,80.5739425 C118.449302,79.8015267 116,76.8482543 116,73.3229167 C116,69.2098817 119.334001,65.8755444 123.446909,65.8750001 C124.568092,63.1835868 127.224564,61.2916667 130.322917,61.2916667 C131.960786,61.2916667 133.475174,61.8203548 134.704734,62.7163852 C136.255116,60.4712026 138.846374,59 141.78125,59 Z" id="Combined-Shape-Copy-49" fill="#64D2FF"></path>
        <path d="M14.5,52 C17.0012573,52 19.2165354,53.2244224 20.5791489,55.1065817 C21.7191794,54.4045013 23.0623516,54 24.5,54 C26.6512957,54 28.591039,54.9057633 29.9586785,56.3567385 C30.5954394,56.125754 31.283034,56 32,56 C35.3137085,56 38,58.6862915 38,62 C38,62.2584085 37.9836643,62.5130015 37.9519692,62.7628028 C39.2120494,63.9481095 40,65.6320369 40,67.5 C40,71.0898509 37.0898509,74 33.5,74 C32.7939039,74 32.114104,73.8874125 31.4775731,73.6792104 C30.2863229,75.098085 28.4984882,76 26.5,76 C25.3667907,76 24.3013122,75.7100102 23.373725,75.2001913 C22.0636525,76.3222057 20.3609799,77 18.5,77 C18.0087886,77 17.5286067,76.9527772 17.0637464,76.8626238 C15.9245903,78.7432781 13.8590567,80 11.5,80 C9.02831939,80 6.87885713,78.6204192 5.77962736,76.5892718 C5.07059012,76.8546543 4.30226871,77 3.5,77 C0.0199459957,77 -2.82134827,74.2651444 -2.9918968,70.8274193 C-5.86214446,70.1544003 -8,67.5768616 -8,64.5 C-8,60.9108161 -5.09093221,58.0010815 -1.50200096,58.0000003 C-0.522557254,55.6512477 1.79588659,54 4.5,54 C5.92969713,54 7.2515856,54.4615838 8.32477062,55.2438565 C9.67668174,53.2842487 11.9383647,52 14.5,52 Z" id="Combined-Shape-Copy-50" fill="#63E6E2"></path>
        <path d="M23.8297872,120 C27.0618586,120 29.8377752,121.736028 31.0417653,124.216286 C32.3993288,123.21725 34.1420836,122.617021 36.0425532,122.617021 C38.9618327,122.617021 41.5089762,124.033291 42.8618176,126.135018 C46.8638569,126.455025 50,129.444516 50,133.085106 C50,136.939349 46.484959,140.06383 42.1489362,140.06383 C42.0896716,140.06383 42.0305604,140.063246 41.9716095,140.062085 C40.6147789,142.149044 38.0769712,143.553191 35.1702128,143.553191 C34.5113532,143.553191 33.8714492,143.481051 33.2599524,143.345171 C32.0471871,144.029505 30.6075381,144.425532 29.0638298,144.425532 C26.3764867,144.425532 24.0044964,143.225367 22.5892188,141.395134 C21.7570199,141.662273 20.851375,141.808511 19.9042553,141.808511 C15.8091227,141.808511 12.4893617,139.07459 12.4893617,135.702128 C12.4893617,135.380974 12.5194667,135.065611 12.5774794,134.757848 C10.4332637,133.61263 9,131.533789 9,129.159574 C9,125.546222 12.319761,122.617021 16.4148936,122.617021 C16.8264962,122.617021 17.2302658,122.646613 17.6236188,122.703517 C19.0600251,121.058675 21.3058186,120 23.8297872,120 Z" id="Combined-Shape-Copy-63" fill="#5E5CE6"></path>
        <path d="M46.4794833,49.8854352 L45.9947962,50.2787634 C45.8220986,50.418909 45.5684891,50.3925205 45.4283434,50.219823 C45.3083321,50.0719365 45.3083321,49.8601971 45.4283434,49.7123106 L45.8216716,49.2276235 C47.0137232,47.7586921 47.0137232,45.6555215 45.8216716,44.1865901 L45.4283434,43.701903 C45.2881978,43.5292054 45.3145863,43.2755959 45.4872838,43.1354502 C45.6351703,43.0154389 45.8469097,43.0154389 45.9947962,43.1354502 L46.4794833,43.5287783 C47.9484147,44.72083 50.0515853,44.72083 51.5205167,43.5287783 L52.0052038,43.1354502 C52.1779014,42.9953045 52.4315109,43.021693 52.5716566,43.1943906 C52.6916679,43.3422771 52.6916679,43.5540164 52.5716566,43.701903 L52.1783284,44.1865901 C50.9862768,45.6555215 50.9862768,47.7586921 52.1783284,49.2276235 L52.5716566,49.7123106 C52.7118022,49.8850081 52.6854137,50.1386177 52.5127162,50.2787634 C52.3648297,50.3987746 52.1530903,50.3987746 52.0052038,50.2787634 L51.5205167,49.8854352 C50.0515853,48.6933836 47.9484147,48.6933836 46.4794833,49.8854352 Z" id="Star" fill="#FF9F0A" transform="translate(49.000000, 46.707107) rotate(-315.000000) translate(-49.000000, -46.707107) "></path>
        <path d="M66.1602639,82.6197488 L65.8786797,82.8383611 C65.7311853,82.9528707 65.5187891,82.9261312 65.4042795,82.7786369 C65.3095632,82.6566372 65.3095632,82.4859607 65.4042795,82.363961 L65.6228919,82.0823768 C66.463322,80.9998584 66.463322,79.485423 65.6228919,78.4029046 L65.4042795,78.1213203 C65.28977,77.973826 65.3165094,77.7614298 65.4640038,77.6469202 C65.5860035,77.5522039 65.75668,77.5522039 65.8786797,77.6469202 L66.1602639,77.8655325 C67.2427823,78.7059627 68.7572177,78.7059627 69.8397361,77.8655325 L70.1213203,77.6469202 C70.2688147,77.5324107 70.4812109,77.5591501 70.5957205,77.7066445 C70.6904368,77.8286441 70.6904368,77.9993207 70.5957205,78.1213203 L70.3771081,78.4029046 C69.536678,79.485423 69.536678,80.9998584 70.3771081,82.0823768 L70.5957205,82.363961 C70.71023,82.5114554 70.6834906,82.7238516 70.5359962,82.8383611 C70.4139965,82.9330775 70.24332,82.9330775 70.1213203,82.8383611 L69.8397361,82.6197488 C68.7572177,81.7793187 67.2427823,81.7793187 66.1602639,82.6197488 Z" id="Star-Copy" fill="#FF9F0A" transform="translate(68.000000, 80.242641) rotate(-315.000000) translate(-68.000000, -80.242641) "></path>
        <path d="M39.4587307,111.264928 L38.232233,112.054446 C38.0206136,112.190669 37.7386315,112.129548 37.6024084,111.917929 C37.5057094,111.767709 37.5057094,111.574841 37.6024084,111.424621 L38.3919262,110.198124 C38.6041271,109.868474 38.6041271,109.445234 38.3919262,109.115585 L37.6024084,107.889087 C37.4661852,107.677468 37.5273061,107.395486 37.7389255,107.259263 C37.889145,107.162564 38.0820135,107.162564 38.232233,107.259263 L39.4587307,108.04878 C39.7883799,108.260981 40.2116201,108.260981 40.5412693,108.04878 L41.767767,107.259263 C41.9793864,107.123039 42.2613685,107.18416 42.3975916,107.39578 C42.4942906,107.545999 42.4942906,107.738868 42.3975916,107.889087 L41.6080738,109.115585 C41.3958729,109.445234 41.3958729,109.868474 41.6080738,110.198124 L42.3975916,111.424621 C42.5338148,111.636241 42.4726939,111.918223 42.2610745,112.054446 C42.110855,112.151145 41.9179865,112.151145 41.767767,112.054446 L40.5412693,111.264928 C40.2116201,111.052727 39.7883799,111.052727 39.4587307,111.264928 Z" id="Star-Copy-2" fill="#FF9F0A" transform="translate(40.000000, 109.656854) rotate(-315.000000) translate(-40.000000, -109.656854) "></path>
        <path d="M132.83781,106.861787 L131.171573,108.051513 C130.910941,108.23761 130.548796,108.177187 130.3627,107.916555 C130.218766,107.714973 130.218766,107.444223 130.3627,107.242641 L131.552427,105.576404 C132.048865,104.881132 132.048865,103.947295 131.552427,103.252023 L130.3627,101.585786 C130.176604,101.325155 130.237027,100.96301 130.497658,100.776914 C130.699241,100.63298 130.969991,100.63298 131.171573,100.776914 L132.83781,101.966641 C133.533082,102.463079 134.466918,102.463079 135.16219,101.966641 L136.828427,100.776914 C137.089059,100.590817 137.451204,100.65124 137.6373,100.911872 C137.781234,101.113454 137.781234,101.384204 137.6373,101.585786 L136.447573,103.252023 C135.951135,103.947295 135.951135,104.881132 136.447573,105.576404 L137.6373,107.242641 C137.823396,107.503272 137.762973,107.865417 137.502342,108.051513 C137.300759,108.195447 137.030009,108.195447 136.828427,108.051513 L135.16219,106.861787 C134.466918,106.365348 133.533082,106.365348 132.83781,106.861787 Z" id="Star-Copy-3" fill="#FF9F0A" transform="translate(134.000000, 104.414214) rotate(-315.000000) translate(-134.000000, -104.414214) "></path>
    </g>
</svg>